<svg xmlns="http://www.w3.org/2000/svg" viewBox="0 0 315 418"><defs><style>.cls-1{fill:#fff;}</style></defs><g id="Layer_2" data-name="Layer 2"><g id="Layer_2-2" data-name="Layer 2"><polygon points="315 354.87 157.5 418 0 354.87 0 0 315 0 315 354.87"/></g><g id="Layer_1-2" data-name="Layer 1"><path class="cls-1" d="M90.39,301.38l-3.94-.54q-6.7-.73-16.93-.9t-24.16.16l-1.17-35.52q20.85-2.65,37.15-1,6.07,14.91,1.07,27.87l-26-2,.22-15.41,11.5-.53,0,0,2.4,0c.77,0,1.54.06,2.31.15s1.45.2,2.17.34c.9.18,1.79.39,2.68.58a13.32,13.32,0,0,0-3.09-7.1q-10.22-1.92-26.18.22l.85,27.64q23.83,3,39.6,2.55l1.38-7.33Q92.41,276,88.37,258l-50.57.42v84.24h8.94l-1.17-36.19,1-.22q14.25-2.86,36.62,1.07l1.38,3.82a36.63,36.63,0,0,1-.32,24.49l-27-2.13.22-16.61,11.52-.62s0-.09.08-.09c1,.1,2,.14,3,.18s1.78.06,2.67.13,1.73.21,2.59.37c.68.13,1.36.27,2,.43a14.49,14.49,0,0,0-3.16-7.42q-10.55-2-27.25.21l.85,29.81q12.45,1.59,22.73,2.29t18.58.48a66.82,66.82,0,0,0,1.33-6.77q.48-3.34.69-6.44Q93.91,317.64,90.39,301.38Z"/><path class="cls-1" d="M150.65,309.94l-11.08-52.25h-26L96.23,342.62h7.88l13.31-75.68,18.75.32,7,39.86-24.27.21L124,280.92l6.17.21L131.69,296h-.08c0,.63.07,1.25.13,1.87.19,2,.49,4,.65,6.07l7.18-.27-7.45-31.1-11.5.11L112,313l32.16.11,3.94,29.55h10.23Z"/><path class="cls-1" d="M188.34,258.93l.42,8.4h8.43L199.42,337l-30.7,1.07-.21-25.35,22-.21-.22,16.59-12.71.43h0c-.5,0-1,.05-1.5,0-.88,0-1.75-.06-2.63-.07h-1.25l.24,4.5,24.06-.21-.64-26.39L164.05,307l-.22,37,42-.64v-76H215l.42-8.4Z"/><path class="cls-1" d="M273.26,311.18l-11.07-52.25h-26l-17.36,84.93h7.88L240,268.18l18.74.31,7,39.86-24.28.22,5.11-26.41,6.17.21,1.49,14.91h0c.13.43.13.87.23,1.31a47.42,47.42,0,0,1,1,6.61l6.7-.25-7.46-31.1-11.5.11L234.6,314.2l32.16.11,3.95,29.55h10.22Z"/><path class="cls-1" d="M117.88,361.6v.68a2.42,2.42,0,0,1-.19,1,2.91,2.91,0,0,1-.53.81,2.77,2.77,0,0,1-.79.56,2.29,2.29,0,0,1-1,.2,3.54,3.54,0,0,1-.9-.12,2,2,0,0,1-.83-.43,2.32,2.32,0,0,1-.61-.79,2.8,2.8,0,0,1-.24-1.24v-6a2.74,2.74,0,0,1,.19-1,2.26,2.26,0,0,1,.52-.8,2.37,2.37,0,0,1,.81-.53,2.63,2.63,0,0,1,1-.19,2.38,2.38,0,0,1,1.8.72,2.7,2.7,0,0,1,.72,1.89v.62h-1.57v-.53a1.26,1.26,0,0,0-.26-.8.84.84,0,0,0-.7-.33.8.8,0,0,0-.78.36,1.89,1.89,0,0,0-.19.91v5.6a1.42,1.42,0,0,0,.21.8.8.8,0,0,0,.74.33,1.05,1.05,0,0,0,.33-.06A.77.77,0,0,0,116,363a.92.92,0,0,0,.23-.33,1.45,1.45,0,0,0,.09-.54v-.54Z"/><path class="cls-1" d="M128.67,364.72v-11h1.57v4.69h1.94v-4.69h1.56v11h-1.56v-4.87h-1.94v4.87Z"/><path class="cls-1" d="M144.78,364.72v-11h1.57v11Z"/><path class="cls-1" d="M157.39,364.72v-11h2.35a3.53,3.53,0,0,1,1.13.17,2.07,2.07,0,0,1,.89.6,2.39,2.39,0,0,1,.56,1,6.4,6.4,0,0,1,.15,1.56,7.24,7.24,0,0,1-.09,1.24,2.44,2.44,0,0,1-.36,1,2.24,2.24,0,0,1-.86.84,2.84,2.84,0,0,1-1.41.3H159v4.27Zm1.56-9.47V359h.76a1.6,1.6,0,0,0,.73-.14.9.9,0,0,0,.39-.38,1.41,1.41,0,0,0,.14-.57c0-.23,0-.48,0-.76s0-.5,0-.73a1.66,1.66,0,0,0-.14-.61.89.89,0,0,0-.37-.4,1.48,1.48,0,0,0-.7-.13Z"/><path class="cls-1" d="M190.51,361.6v.68a2.43,2.43,0,0,1-.2,1,2.6,2.6,0,0,1-1.32,1.37,2.25,2.25,0,0,1-1,.2,3.61,3.61,0,0,1-.91-.12,2.13,2.13,0,0,1-.83-.43,2.43,2.43,0,0,1-.6-.79,2.8,2.8,0,0,1-.24-1.24v-6a2.73,2.73,0,0,1,.18-1,2.43,2.43,0,0,1,.53-.8,2.33,2.33,0,0,1,.8-.53,2.68,2.68,0,0,1,1-.19,2.36,2.36,0,0,1,1.79.72,2.45,2.45,0,0,1,.53.84,2.77,2.77,0,0,1,.2,1.05v.62h-1.57v-.53a1.32,1.32,0,0,0-.26-.8.86.86,0,0,0-.71-.33.79.79,0,0,0-.77.36,1.89,1.89,0,0,0-.19.91v5.6a1.42,1.42,0,0,0,.2.8.82.82,0,0,0,.75.33,1.05,1.05,0,0,0,.33-.06.77.77,0,0,0,.33-.18.92.92,0,0,0,.23-.33,1.45,1.45,0,0,0,.09-.54v-.54Z"/><path class="cls-1" d="M201.21,356.35a2.72,2.72,0,0,1,.23-1.17,2.49,2.49,0,0,1,.61-.84,2.54,2.54,0,0,1,.84-.49,2.71,2.71,0,0,1,1.89,0,2.69,2.69,0,0,1,.85.49,2.47,2.47,0,0,1,.6.84,2.87,2.87,0,0,1,.23,1.17v5.79a2.82,2.82,0,0,1-.23,1.18,2.39,2.39,0,0,1-.6.82,3,3,0,0,1-.85.51,2.87,2.87,0,0,1-1.89,0,2.78,2.78,0,0,1-.84-.51,2.41,2.41,0,0,1-.61-.82,2.67,2.67,0,0,1-.23-1.18Zm1.56,5.79a1,1,0,0,0,.32.84,1.16,1.16,0,0,0,1.49,0,1,1,0,0,0,.31-.84v-5.79a1,1,0,0,0-.31-.83,1.16,1.16,0,0,0-1.49,0,1,1,0,0,0-.32.83Z"/><path class="cls-1" d="M208.67,364.72v-1.57h1.57v1.57Z"/><path class="cls-1" d="M122.84,145.59c-2.6,1.55-5.6,3.27-8.52,5.13-2.06,1.3-4,2.84-6,4.18a9.4,9.4,0,0,1-9.88.64A10.59,10.59,0,0,1,96,153.68c-1-.89-1.8-1.88-2.7-2.83a8.41,8.41,0,0,1-2.11,1.57,6.6,6.6,0,0,1-2.51,0,51.78,51.78,0,0,0-16.52,1.14c-3.26.8-6.41,2.09-9.61,3.16l-1.82.58c-1-1.28-.34-2.44,0-3.58a71.67,71.67,0,0,1,13-26q6.88-8.53,14.25-16.7c1.66-1.83.82-3.65,1.25-5.83-2.35.33-4.37.57-6.37.91a48.41,48.41,0,0,0-12.87,4c-2.14,1-2.42,1.71-1.86,4,.13.55.35,1.08.48,1.62,1.44,5.94-3.66,10.81-9.62,9.35a9.12,9.12,0,0,1-6.58-5.57,7.69,7.69,0,0,1,.28-7.29,24.69,24.69,0,0,1,12.82-11.34c7.73-3,15.57-5.57,24-5.17a2.82,2.82,0,0,0,2.9-1.81A9.1,9.1,0,0,0,90.59,92c-3.64-2.12-7.32-4.18-11-6.15a13.51,13.51,0,0,0-3.73-1.23c-2.35-.47-3.75.4-4.59,2.65a5.82,5.82,0,0,0-.32,1.08c-.64,3.81-3,5.81-6.65,6.76-4.13,1.08-9.47-1.74-10.88-5.9a9,9,0,0,1,5.22-10.88A31.65,31.65,0,0,1,82.73,79a49.21,49.21,0,0,1,15.92,10.3l3.82-1.39c.74-7.21-1.17-13.25-7-17.73a7,7,0,0,0-5.26-1.73C89.44,69.92,89,71.56,88,72.67c-2.58,2.82-6,3.41-9.58,2.48a4.57,4.57,0,0,1-3.36-4.42c-.35-4.53,1.06-8.33,5-10.91a13.69,13.69,0,0,1,13.67-1.23c3.6,1.56,7.28,3,10.13,6.16,0-.51,0-1,.07-1.52.19-3.36,3.07-7.24,6.4-8.2a8.09,8.09,0,0,1,8.89,2.63c4.35,4.87,5.82,10.65,5.47,17a83.4,83.4,0,0,1-2.92,18.88,8.4,8.4,0,0,0,.49,5.72,81,81,0,0,1,2.73,8.55,11.28,11.28,0,0,1,.3,3.07,4.93,4.93,0,0,1-2.3,4.56c-2,1.19-4,2.35-6.35,3.72a15.29,15.29,0,0,0,4.56,6.86,137.66,137.66,0,0,0,16.61,12.57c7.19,4.42,14.21,9.15,21.27,13.78a25.29,25.29,0,0,1,3.3,2.64c1.54,1.43,1.88,2.5.76,4.22-1.63,2.5-3.57,4.8-5.42,7.14a17.17,17.17,0,0,1-1.65,1.53c-1.65,1.59-3.11,1.92-5,.63-3-2-5.88-4.06-8.62-6.32C135.86,156.72,129.39,151.14,122.84,145.59Zm-14.71-24.4c-3.94,0-6.6,1.46-8.09,4.86a20.59,20.59,0,0,1-1.23,2.2c-2.34,3.9-1.46,6.63,2.9,9.58a3.07,3.07,0,0,0,3.64.07c2.16-1.29,4.41-2.45,6.61-3.67.71-.4,1.4-.83,2.12-1.26-1.16-2.08-2.27-3.92-3.23-5.84S109,123.1,108.13,121.19ZM105.56,67a4.22,4.22,0,0,0,.07,1,35.15,35.15,0,0,1,3.65,15.17,28.28,28.28,0,0,0,.51,3.83l6.52,3.23c2.91-6.59,2-17.52-1.77-22C111.55,69.1,108.52,69.39,105.56,67Zm9.1,34.33a2.19,2.19,0,0,0-2.13-1.84,2,2,0,1,0,.43,4A1.93,1.93,0,0,0,114.66,101.32Z"/><path class="cls-1" d="M81.51,211.51c-2.54-1.45-5-2.47-7-4.09a36.23,36.23,0,0,1-5.2-5.83,4.19,4.19,0,0,1-.23-4.78c4.47-8.76,9.46-17.1,17.32-23.34A46.61,46.61,0,0,0,90.14,170a7.72,7.72,0,0,1,5.49-2.49c2.43,0,4.88-.11,7.29.11,3.36.31,6.71.76,10,1.39a21.73,21.73,0,0,1,5.29,1.85c3.23,1.57,4.66,4.53,5.39,7.84.66,3,1.13,6.08,1.69,9.12.08.44.22.86.42,1.61,1-.68,1.84-1.24,2.68-1.78,2.94-1.88,5.92-2,8.15-.21a8.44,8.44,0,0,1,2.47,8.94,13.56,13.56,0,0,1-4.27,5.5,28.09,28.09,0,0,1-9.9,5.23c-3.1,1-5.83-.45-7.79-2.7-2.68-3.08-4.69-6.57-3.8-11a13.57,13.57,0,0,0,0-3.37c-.25-3.74-2.28-5.71-6.08-5.87a17.66,17.66,0,0,0-9.66,2.6c-3.91,2.26-7,5.25-8.45,9.76-.69,2.13-.6,3.78.9,5.4a33.19,33.19,0,0,1,2.51,3,43.52,43.52,0,0,1,2.68,4,5.64,5.64,0,0,1,.38,5.41,44.15,44.15,0,0,1-3.83,7.15c-3,4.1-6.28,8-9.42,11.94-1,1.24-1.83,2.56-2.93,4.11a22.52,22.52,0,0,0,2.83,2.07c2.47,1.27,3.49,2.45,3,5.09a5.73,5.73,0,0,1-5.08,4.23,8.51,8.51,0,0,1-4.56-1,48.59,48.59,0,0,0-8.81-4.32,34,34,0,0,1-4.28-2.11,4.22,4.22,0,0,1-2-5.32,10.19,10.19,0,0,1,3.15-4.91L70,225.7C74.64,221.64,77.79,216.36,81.51,211.51Z"/><path class="cls-1" d="M70.11,169.24A37.41,37.41,0,0,0,75,171.37c1.84.52,2.79-.23,3.19-2.14.36-1.71.43-3.53,1.66-5A31.69,31.69,0,0,0,83,165.55c3.09,1,4.25.28,5-2.9a6.2,6.2,0,0,1,.38-.86l4.81,1.3a12.5,12.5,0,0,1-1.19,1.33,142.28,142.28,0,0,0-15.21,14.14c-3.69,4-5.89,8.9-8.72,13.42-.64,1-1.3,2-2.19,3.42-3.47-5.78-4.41-12-6.32-18a5.33,5.33,0,0,1,4.62.11c.25.13.51.25.76.36,3.37,1.51,4.24,1,4.19-2.69A13.08,13.08,0,0,1,70.11,169.24Z"/><path class="cls-1" d="M92.54,159.11c-1.56.46-2.38-.26-3.28-1-2.14-1.72-3.5-1.18-4.09,1.52-.2.9-.43,1.79-.74,3.11a29.57,29.57,0,0,1-2.74-1.54c-2.7-1.94-3.3-1.84-4.74,1.28-.82,1.76-1.45,3.61-2.26,5.66-1.14-.92-2.2-1.82-3.31-2.65-1.87-1.41-3.42-1-4.1,1.22-.73,2.41-1.19,4.9-1.79,7.42l-6.41-.69a30.61,30.61,0,0,1,.05-9.79,4.9,4.9,0,0,1,3.22-3.62c8.67-3.37,17.55-5.36,26.93-4.48C91.48,155.78,92,157.24,92.54,159.11Z"/><path class="cls-1" d="M220.13,107.86c.63,3.59,2.85,5.52,6.12,6.34,1.82.46,3.7.65,5.52,1.09a16,16,0,0,1,4,1.31c6,3.25,11.5,7.16,15.56,12.74a40,40,0,0,1,7.07,14.59c1.09,4.75,2.32,9.48,3.27,14.26,1.12,5.62.33,11.23-.84,16.75-.63,3-3.33,4.17-6.12,2.65-4.77-2.59-9.47-5.33-14.14-8.13-3.05-1.84-6-3.88-8.95-5.85s-3.42-3.18-2.28-6.4a20.44,20.44,0,0,0,.52-11.64,7.44,7.44,0,0,0-.29-1.08c-.06-.16-.24-.27-.55-.59-.27.65-.51,1.19-.73,1.74-1.55,3.83-2.95,7.72-4.67,11.47-1.58,3.42-6,5.22-10.13,4.33-1.63-.36-3.2-1-4.93-1.49l-6.06,13.83a6.28,6.28,0,0,1-4.12-.37c-2.73-1-5.46-2-8.15-3.11s-3.14-2.12-2.26-4.85a38,38,0,0,1,2.45-6c3.14-5.87,6.43-11.67,9.64-17.5.89-1.61,1.72-3.24,2.69-5.07-8.21-1.72-9.54-8.41-11.6-14.4-5.82-1.45-10.76-4-14-9.18-1.35-2.14-2.81-4.22-4.14-6.37a10.55,10.55,0,0,1-1.32-6.25,6,6,0,0,1,8.86-4.89,9.24,9.24,0,0,1,3.5,3.52,54.91,54.91,0,0,1,2.81,7.61,17.68,17.68,0,0,0,1.82,4.47,5.65,5.65,0,0,0,.12-1.35c-.4-2.79-.73-5.59-1.29-8.35a51.93,51.93,0,0,1-.81-11.48c.17-6.58,3-11.94,7.21-16.7,2.32-2.61,4-3,6.71-1.85A6.43,6.43,0,0,1,204.39,78,22.19,22.19,0,0,1,203,83.44c-2.07,5.75-4.18,11.48-4.95,17.58-.15,1.14-.11,2.3-.16,3.46l.76.17c.51-1.14,1.06-2.26,1.5-3.43,2-5.28,4-10.57,7-15.36,2.54-4,5.26-8,8.09-11.85a16.75,16.75,0,0,1,7.17-5.31A8.17,8.17,0,0,1,232,71.51a4.54,4.54,0,0,1,.31,4.57c-1,2.33-2.52,4.42-4.93,5.16-7.68,2.39-11.09,8.85-14.84,15a26.17,26.17,0,0,0-1.83,3.81c-.44,1.09-.72,2.26-1.23,3.92a8.22,8.22,0,0,0,2-.67c2.93-2.34,5.85-4.69,8.71-7.11,2.36-2,4.56-4.2,7-6.15,4.33-3.51,9.46-4.92,14.92-5.14a10.72,10.72,0,0,1,4.6,1,5,5,0,0,1,2.61,6.63,9.07,9.07,0,0,1-4.21,5.12,32.51,32.51,0,0,1-5.69,2.36c-3.05.94-6.17,1.65-9.26,2.45A22.94,22.94,0,0,0,220.13,107.86Zm-9.57,42.43a4.31,4.31,0,0,0,5-1.72,31.52,31.52,0,0,0,2.3-3.54,47.89,47.89,0,0,0,5.84-15.77,2.7,2.7,0,0,0-.56-2,3.47,3.47,0,0,0-5.6.19A19.94,19.94,0,0,0,215,133c-1.51,5.13-2.79,10.33-4.15,15.51A17.85,17.85,0,0,0,210.56,150.29Zm-11.68-25.2a2.45,2.45,0,0,0,3.15-1.53,2.8,2.8,0,0,0-1.59-3.67,2.65,2.65,0,0,0-3.21,1.52A2.92,2.92,0,0,0,198.88,125.09Z"/><path class="cls-1" d="M222.59,204.12a10.64,10.64,0,0,0-2.51,1.06c-5.81,4.4-12.59,7.1-18.75,10.89-.72.44-1.43.91-2.18,1.29a4.87,4.87,0,0,0-3,5.45,16.36,16.36,0,0,1-1.79,9.29,9.45,9.45,0,0,1-2.55,3.28,13.67,13.67,0,0,1-16.91-.85,3.86,3.86,0,0,1-.66-5.54,7.06,7.06,0,0,1,5.14-3.11c5.45-.63,5.59-2.63,5.07-6.74-1-7.89.19-10.14,7.57-13.21,4.24-1.77,8.56-3.38,12.91-4.86a5,5,0,0,0,3.69-4.3,44.77,44.77,0,0,1,3.23-9.57c1.36-3,4.82-3.7,7.48-1.78l26,18.79a20.32,20.32,0,0,1,2,1.57c1.61,1.49,1.73,2.22.78,4.18-.37.76-.71,1.53-1.12,2.27a7.3,7.3,0,0,1-8.36,3.68,26.18,26.18,0,0,1-5-1.76,3.86,3.86,0,0,0-3.47-.14,18,18,0,0,0-7.86,6.19,8.45,8.45,0,0,0-.76,8.83c.6,1.28,1.26,2.53,1.82,3.82,2,4.52,1.05,9.4-2.77,12.49a31.54,31.54,0,0,1-7.51,4.34c-3.12,1.31-6.25-.29-7.66-3.4a5.94,5.94,0,0,1,2.53-8l.74-.41c2.89-1.53,2.89-1.53,1.63-4.41-.63-1.47-1.17-3-1.85-4.42a9.17,9.17,0,0,1,1.82-10.92c2.5-2.65,5.34-5,8-7.44,1.31-1.2,2.69-2.34,3.89-3.65a9.07,9.07,0,0,0,1.13-2.34Z"/><path class="cls-1" d="M243.83,185.39c.37,2,.59,3.8,1,5.51.79,3.18,1.35,3.37,4.26,2,1.66-.76,3.4-1.34,5.23-2,.08,3.62-1.94,8.85-4.14,10.88a37.2,37.2,0,0,1-8.45-4.73c-6.59-4.64-13.07-9.42-19.57-14.17-1.78-1.3-2.53-3.45-2.56-7l6.7-3.07c.34,2.39.63,4.47.93,6.55a16.58,16.58,0,0,0,.37,2.22c.46,1.53,1.41,1.92,2.76,1.05s2.88-2,4.65-3.29c.14,2.12.25,3.83.36,5.55a9.19,9.19,0,0,0,.1,1.39c.35,1.56,1.3,2.07,2.66,1.21A11.27,11.27,0,0,1,243.83,185.39Z"/><path class="cls-1" d="M189.17,187.75c-2.1-.79-4.34-1.51-6.46-2.47-2.66-1.21-3.4-2.9-2.67-5.69a31.82,31.82,0,0,1,1.37-4.28c.91-2.18,2.33-2.58,4.49-1.71,1.9.77,3.88,1.34,5.83,2,2.75.92,5.53,1.76,8.24,2.77,2.25.83,3,2.26,2.65,4.63-.69,5-4.89,7.57-9.6,5.95C191.78,188.51,190.51,188.16,189.17,187.75Z"/><path class="cls-1" d="M229.8,179.45c-.27-2.68-.48-4.82-.71-6.95-.25-2.35-.82-2.8-3.1-2.14-1.77.51-3.46,1.27-5.56,2.06a50.56,50.56,0,0,1,1.23-5.42c.63-1.88,2.72-2.33,4.71-1.12,1.76,1.07,3.47,2.22,5.2,3.33,3.64,2.31,7.22,4.72,10.94,6.9,2.5,1.47,5.19,2.6,7.78,3.91a28.63,28.63,0,0,1,3.68,2,6.48,6.48,0,0,1,2,2.23c1,2.11.26,3.46-2,4.13-2,.6-4.07,1.32-6.25,2-1.16-1.46-1.08-3.2-1-5,.13-2.93-.31-3.3-3.21-2.76-.92.18-1.84.38-2.74.62s-1.6.5-2.79.88a32.31,32.31,0,0,1-.18-3.85c.24-3.53-1.13-4.6-4.64-2.9C232.21,178,231.29,178.58,229.8,179.45Z"/></g></g></svg>