<svg xmlns="http://www.w3.org/2000/svg" viewBox="0 0 460.39 271.06"><g id="Layer_2" data-name="Layer 2"><g id="Layer_1-2" data-name="Layer 1"><path d="M24.31.17h1a1.51,1.51,0,0,0,1.33.5c1.89,0,3.72,0,5.5.08s3.6,0,5.49-.08a7.93,7.93,0,0,1,2.58.08A3,3,0,0,0,42.63.17h2c.55.44,1.11.86,1.66,1.25a7.11,7.11,0,0,0,1.83.91C49.23,2.56,50,3.44,50.29,5a4.06,4.06,0,0,1,.25,1.83A2.93,2.93,0,0,0,51,8.66v2a9.34,9.34,0,0,1-9.33,5,8.64,8.64,0,0,0-4.5,1,8,8,0,0,0-4.33,6.83c0,1.22,0,2.44-.08,3.66a26.43,26.43,0,0,0,.08,3.67c.11,1.22.23,2.47.34,3.74s.16,2.53.16,3.75-.22,2.19-.33,3.25a14.41,14.41,0,0,0,0,3.08q0,3.49.17,7t0,7a5.08,5.08,0,0,0,.16,1.49,2.51,2.51,0,0,1,.17,1.5,3.09,3.09,0,0,0-.58,2c0,.67.14,1.39.25,2.17a13.59,13.59,0,0,1,0,3,21.67,21.67,0,0,0-.25,5.75A43.05,43.05,0,0,1,33,80.43c0,.56,0,1.17.08,1.83a4.76,4.76,0,0,1-.25,2,2.61,2.61,0,0,0,0,1.83,8.07,8.07,0,0,1,.42,3.08,18.48,18.48,0,0,0,.08,3.08A3.74,3.74,0,0,1,33.22,94,6.49,6.49,0,0,0,33,95.75a43.33,43.33,0,0,1,.33,5.33,24.12,24.12,0,0,1-.66,5.49,1.39,1.39,0,0,0,0,1.34,5.86,5.86,0,0,1,.41,2.49c0,.78-.08,1.61-.08,2.5a5,5,0,0,1-3,4.83,9.19,9.19,0,0,0-1.25.75,2.9,2.9,0,0,0-.91,1.08h-4.5a2.64,2.64,0,0,0-1.5-.83q-3.16-1.17-3.66-5.16a26,26,0,0,1-.08-5.5,26,26,0,0,0-.09-5.49,24.78,24.78,0,0,1,.09-6.08,25.28,25.28,0,0,0,.08-6.08,31.39,31.39,0,0,1-.08-4,33.22,33.22,0,0,0-.09-4V76.27c0-2-.05-4-.16-6.17a8.27,8.27,0,0,1,0-2.33q.16-1.15.33-2.49c.11-1.45.19-2.86.25-4.25A32.46,32.46,0,0,0,18.32,57a36.87,36.87,0,0,1-.42-4.16,21.4,21.4,0,0,1,.25-4.17,19,19,0,0,0,.17-4.33c-.11-1.44-.17-2.88-.17-4.33V37.13a27.38,27.38,0,0,0-.17-3,19.44,19.44,0,0,1,.17-4.42,19.33,19.33,0,0,0,.17-4.41,7.76,7.76,0,0,0-.67-3.16A5.12,5.12,0,0,1,17.32,19h.16l-.16.17c-.34-.33-.64-.67-.92-1a3.38,3.38,0,0,0-1.08-.83c-1.11-.56-2.19-1.08-3.25-1.58a5.92,5.92,0,0,0-3.58-.42,6.93,6.93,0,0,1-5.83-1.67,5.8,5.8,0,0,0-1.49-1c-.67-.34-.56-.95.33-1.84,0-.33-.06-.5-.17-.5q-.82,0-.75-.66a.92.92,0,0,0-.58-1v-3a4.51,4.51,0,0,0,.83-1A7.25,7.25,0,0,1,4.66,1.17,11.24,11.24,0,0,1,9.82.67a21,21,0,0,0,2.59.16A4.84,4.84,0,0,0,14.82.17h2.5a1.26,1.26,0,0,0,2,0h2Q22.48,1.16,24.31.17ZM3.16,4V3.66c0,.12-.11.06-.33-.16V4Q3.16,4.33,3.16,4ZM14.82,5.83c0-.33-.11-.5-.33-.5s-.61.06-.84.5c0,.44.17.66.5.66S14.82,6.16,14.82,5.83Zm.83,4.83v-.34c-.11,0-.16.06-.16.17v.17Zm3.83-7.33c0,.11-.11.17-.33.17a.65.65,0,0,0,.17.5c.33,0,.5-.11.5-.34Zm.34,51.12c0-.11,0-.16-.09-.16s-.08-.06-.08-.17a.15.15,0,0,0-.17.17v.33c.11,0,.17,0,.17-.08S19.7,54.45,19.82,54.45Zm.83,19.15c0-.22-.17-.33-.5-.33s-.5.11-.5.33.22.5.67.5C20.54,74.1,20.65,73.94,20.65,73.6ZM20.48,7.16c.56-.11.83-.61.83-1.5q0-.66-.33-.33a2.53,2.53,0,0,0-1.16,1.33C19.82,7,20,7.16,20.48,7.16Zm1.33,25a.44.44,0,0,0-.5.5.15.15,0,0,1,.17.16.15.15,0,0,0,.17.17c.33,0,.5-.11.5-.33S22,32.14,21.81,32.14Zm.5,56.78v0h0ZM23.65,71.6a.44.44,0,0,0-.5-.5c-.23,0-.34.06-.34.17-.22.33-.11.5.34.5C23.26,71.88,23.42,71.83,23.65,71.6Zm.5-44.29a.44.44,0,0,0-.5.5c0,.33.1.5.33.5a.44.44,0,0,0,.5-.5C24.48,27.48,24.37,27.31,24.15,27.31Zm.33-4c-.45.23-.67.5-.67.84.22.44.44.61.67.5a.67.67,0,0,0,0-1.34Zm-.17-3.49-.33.33.17.17.33-.17c0-.11,0-.17-.08-.17S24.31,19.93,24.31,19.82Zm0,57.61-.33.34c0,.44.17.55.5.33l.17-.33ZM25,41.63a.21.21,0,0,0-.33,0,.45.45,0,0,0-.17.33l.33.17A.69.69,0,0,0,25,41.63Zm.5-28.81c-.45-.22-.67-.05-.67.5s.17.67.5.67.67-.17.67-.5S25.81,12.82,25.48,12.82ZM25.31,5.5a.29.29,0,0,0-.33.33l.33.17c.11,0,.17,0,.17-.09s.05-.08.16-.08Zm3.17,1.83c0-.67-.28-.94-.84-.84-.78,0-1.16.34-1.16,1a1.29,1.29,0,0,0,1.33.84C28.25,8.44,28.48,8.1,28.48,7.33Zm-1.34,3.83c0-.22-.05-.34-.16-.34-.23-.22-.39-.16-.5.17l.16.33C27,11.66,27.14,11.6,27.14,11.16Zm.34,40.46c.44,0,.66-.27.66-.83a3.62,3.62,0,0,1,.09-.75c.05-.28-.15-.47-.59-.58s-.83-.06-.83.5A1.34,1.34,0,0,0,27.48,51.62ZM27.31,23c.11-.11.11-.28,0-.5a.48.48,0,0,0-.33.17q-.35,0,0,.33Zm.17,74.93c.33,0,.5-.1.5-.33a.3.3,0,0,0-.34-.33c-.33-.33-.5-.28-.5.16C26.92,97.75,27,97.91,27.48,97.91Zm.16,10.33-.16-.17v.17Zm1-14.16c0,.12,0,.17-.08.17s-.08.06-.08.17l.16.16c.11,0,.17,0,.17-.08s.05-.08.16-.08Zm1-20.14c.33,0,.44-.17.33-.5,0-.11-.11-.17-.33-.17-.33-.33-.5-.22-.5.33C29.14,73.83,29.31,73.94,29.64,73.94Zm-.17-54h-.16l.16.17Zm1.34,46.79-.34.17v.17c.22,0,.34-.06.34-.17ZM35.3,14.82c-.33,0-.5.11-.5.33a.3.3,0,0,0,.34.34c.11.11.27,0,.5-.17C35.64,15,35.52,14.82,35.3,14.82ZM37,7h.16c.11,0,.17,0,.17-.16,0-.34-.11-.5-.33-.5s-.34.11-.34.33C36.41,6.88,36.52,7,37,7Zm4.16-.5c0-.77-.28-1.16-.83-1.16-.34.11-.5.5-.5,1.16s.27,1,.83,1S41.35,7.27,41.13,6.49ZM44,12.82l.33-.16a.55.55,0,0,0-.16-.67.67.67,0,0,0-.67.33C43.46,12.55,43.63,12.71,44,12.82Zm0-8.49-.17.33c0,.34.11.39.34.17.11,0,.16-.11.16-.33A.48.48,0,0,0,44,4.33Zm1.75-1c-.06,0-.08.06-.08.17a.21.21,0,0,0,.33,0V3.33l-.17-.17C45.79,3.28,45.76,3.33,45.71,3.33ZM47,9.82l-.33-.33-.5.5c0,.33.11.39.33.17C46.57,10.16,46.73,10.05,47,9.82Z"/><path d="M89.26,120.06h-.5l-2-.66a4,4,0,0,0-2-.17,14.66,14.66,0,0,1-6.83-.92,28.25,28.25,0,0,1-6-3.24q-2-1.5-4.16-2.84a6.88,6.88,0,0,1-3-4.16l-.17-.16a6.9,6.9,0,0,1-2.16-3.58,39.41,39.41,0,0,0-1.17-3.92c-.33-.89-.64-1.83-.91-2.83s-.59-1.94-.92-2.83v-1a6.16,6.16,0,0,0,.58-3.5c-.16-1.1-.36-2.22-.58-3.33V84.43q1-.68,0-1.5v-2.5a22.82,22.82,0,0,0,.67-3.5,6.92,6.92,0,0,0-.67-3.49v-4c.33-.11.5-.28.5-.5V60.45a1.53,1.53,0,0,0-.5-1.34v-5a2.93,2.93,0,0,0,0-3v-3c.44-.66.44-1.1,0-1.33v-2.5a1.89,1.89,0,0,0,.67-2c-.23-.67-.45-1.34-.67-2V37.8a14.62,14.62,0,0,0,.83-3.5,6,6,0,0,0-.83-3.49V25.48c.55-.11.86-.36.92-.75a5.71,5.71,0,0,1,.24-1.08c.56-2.11,1.11-4.17,1.67-6.17a15.46,15.46,0,0,1,3-5.66l1.66-2.33a18.15,18.15,0,0,1,1.83-2.16,27.52,27.52,0,0,1,4.75-3.58,18.56,18.56,0,0,1,5.41-2.08A27.66,27.66,0,0,0,84.26.17h4a.47.47,0,0,1,.16.33c0,.11.11.17.34.17a23.15,23.15,0,0,1,7,1.74,39.4,39.4,0,0,1,6.33,3.42,16,16,0,0,1,4.08,4.33q1.57,2.49,3.41,4.83a.48.48,0,0,0,.17.33q.83,3.16,1.41,6.41a23.75,23.75,0,0,1,.25,6.58,45,45,0,0,0-.08,7.24,62.51,62.51,0,0,1,.08,7.25c0,.77.17,1.27.5,1.49v2.5a5.62,5.62,0,0,0-.5,2.5c0,1.56,0,3.14-.08,4.75a43.84,43.84,0,0,0,.08,4.74,14.9,14.9,0,0,1-.16,2.25,2.53,2.53,0,0,0,.66,2.08v1.5a8.14,8.14,0,0,0,0,6.83v2c-.22.89-.44,1.8-.66,2.74a7.6,7.6,0,0,0-.17,2.75,26.77,26.77,0,0,1,.25,4.75c-.06,1.61-.08,3.19-.08,4.74,0,.89,0,1.78.08,2.67a9.41,9.41,0,0,0,.58,2.66v1a2.64,2.64,0,0,0-.5,2.5,6.46,6.46,0,0,1-.5,3.83c-.55,1.22-1.14,2.36-1.74,3.41s-1.25,2.14-1.92,3.25a17.58,17.58,0,0,1-5.16,6.16,50.84,50.84,0,0,1-6.66,4.16c-.56.23-1.09.45-1.58.67a2.61,2.61,0,0,1-1.59.17A3.56,3.56,0,0,0,89.26,120.06ZM61,48.12a.3.3,0,0,0-.34.34c0,.22.06.33.17.33.33.33.5.28.5-.17S61.17,48.12,61,48.12ZM62.45,37c-.23,0-.34.16-.34.5a.47.47,0,0,0,.34.16c.22,0,.33-.16.33-.5A.47.47,0,0,0,62.45,37Zm.33,29.8c-.45,0-.5.17-.17.5,0,.45.17.56.5.34.22,0,.34-.17.34-.5C63.22,66.77,63,66.67,62.78,66.77ZM64.11,57a.79.79,0,0,0-1.5.5,1.14,1.14,0,0,0,.84.33C63.89,57.56,64.11,57.28,64.11,57Zm.17,36.3h-.17v.17h.17Zm.5-40c-.23.22-.34.39-.34.5l.34.16c.33,0,.44-.16.33-.5A.47.47,0,0,1,64.78,53.29Zm.33,30.14c0-.22-.06-.34-.17-.34-.22-.22-.33-.16-.33.17v.17c0,.11.06.16.17.16A.47.47,0,0,0,65.11,83.43Zm1.67-50.79a.69.69,0,0,0-.34-.67c-.44,0-.66.17-.66.5-.23.33-.11.5.33.5C66.55,33.19,66.78,33.08,66.78,32.64ZM66.28,39a.48.48,0,0,0,.33-.17.29.29,0,0,0-.33-.33l-.17.16C66.11,38.86,66.16,39,66.28,39Zm.66,38.8a.37.37,0,0,1-.08.25.32.32,0,0,0-.08.25.29.29,0,0,0,.33.33c.44,0,.61-.17.5-.5S67.38,77.77,66.94,77.77Zm0,9c.22.22.39.33.5.33l.34-.33c0-.34-.12-.5-.34-.5A.44.44,0,0,0,66.94,86.76Zm1-2.33-.33-.34-.17.17.34.33C67.88,84.7,67.94,84.65,67.94,84.43Zm.17-57.79c-.11,0-.17,0-.17-.08s-.06-.08-.16-.08c-.23.22-.28.39-.17.5a.47.47,0,0,1,.33.16.37.37,0,0,1,.08-.25A.3.3,0,0,0,68.11,26.64Zm.83,33.64a.62.62,0,0,1-.58.08c-.28,0-.36,0-.25.25,0,.56.33.84,1,.84a.59.59,0,0,0,.66-.67C70,60.23,69.72,60.06,68.94,60.28Zm.17,29.47c0-.33-.11-.49-.34-.49s-.5.11-.5.33a.44.44,0,0,0,.5.5A.3.3,0,0,0,69.11,89.75Zm1.33,11.16c0-.55-.17-.83-.5-.83s-.5.28-.5.83.17.83.5.83.33-.08.33-.25A1.41,1.41,0,0,1,70.44,100.91ZM71.6,41a.44.44,0,0,0-.49-.5c-.56,0-.84.23-.84.67-.22.33,0,.5.5.5S71.6,41.41,71.6,41Zm-.83-28.8c-.33,0-.39.11-.16.33,0,.11,0,.17.16.17l.34-.34A.47.47,0,0,1,70.77,12.16Zm1.17,13.65q1.16-.66,0-1.83c-.45-.44-.78-.56-1-.33-.56.33-.5.72.17,1.16.33.11.6.5.83,1.17Zm-.5,65.44v-.16h-.17q-.33,0,0,.33Zm.16,4.67c0-.23,0-.34-.16-.34a.47.47,0,0,0-.33.17v.17a.14.14,0,0,0,.16.16A.47.47,0,0,1,71.6,95.92Zm1.5,17h.17a.15.15,0,0,0,.17-.17.7.7,0,0,0-.17-.5c-.33,0-.5.12-.5.34Zm.34-94.58c.11,0,.16-.11.16-.34l-.16-.16-.34.33A.5.5,0,0,0,73.44,18.32Zm-.17,55H73.1a.48.48,0,0,1,.17.33h.17C73.44,73.38,73.38,73.27,73.27,73.27Zm.5-64.78c.33-.11.5-.27.5-.5s-.11-.5-.33-.5a.59.59,0,0,0-.67.67C73.49,8.38,73.66,8.49,73.77,8.49Zm.33,81.6a3.68,3.68,0,0,0,0,2.66c.67,1.45,1.32,2.89,1.93,4.33a24.74,24.74,0,0,0,2.27,4.16,5.83,5.83,0,0,0,2.26,2.09,11.59,11.59,0,0,0,2.94,1.08,8.45,8.45,0,0,0,7.3-.92,15.78,15.78,0,0,0,5-5.24,12.06,12.06,0,0,0,1.17-2.33,3.06,3.06,0,0,0,.16-2.17,9.17,9.17,0,0,1-.5-4.49c.22-1.45.39-2.89.5-4.33a23.31,23.31,0,0,0-.25-5.17,8,8,0,0,1,.92-5.16c.33-.33.27-.5-.17-.5-.89-.22-1.22-.58-1-1.08a2.59,2.59,0,0,0,.17-1.58,5.62,5.62,0,0,1,.33-1.92,2.4,2.4,0,0,0,0-1.75,7.72,7.72,0,0,1-.08-3A5.39,5.39,0,0,0,96.75,62a1.1,1.1,0,0,1,0-.84,2.1,2.1,0,0,1,.5-.83c.44-.44.67-.77.67-1s-.28-.44-.84-.66q-.33-.16-.33-1.17c.22-1.33.42-2.66.58-4a8.55,8.55,0,0,0-.58-4.16,1.65,1.65,0,0,1-.25-1.17A5.73,5.73,0,0,1,96.75,47a4.81,4.81,0,0,0,.33-3.17c-.11-1.88-.16-3.68-.16-5.41s-.06-3.52-.17-5.41a17.64,17.64,0,0,1,0-3.41,12.21,12.21,0,0,0-.17-3.42q-.33-2-.75-4a5.43,5.43,0,0,0-2.27-3.33,12.73,12.73,0,0,1-1.34-1.17,4.68,4.68,0,0,0-1.51-1,19.38,19.38,0,0,0-3.77-1.25,6,6,0,0,0-4.11.75,17.1,17.1,0,0,0-6.46,5.5,14.17,14.17,0,0,0-2.27,8.16,12.73,12.73,0,0,1-.33,2.91,5.81,5.81,0,0,0,0,2.75,19.38,19.38,0,0,1,.5,4.33c0,1.44-.06,2.94-.17,4.49a8.49,8.49,0,0,0,.25,2,3.5,3.5,0,0,1-.08,2,9.26,9.26,0,0,0-.42,4.08c.17,1.39.31,2.81.42,4.25s.17,3.14.17,4.74a33.83,33.83,0,0,1-.34,4.75,17.84,17.84,0,0,0-.16,4.24c.11,1.39.16,2.81.16,4.25q0,3.84.17,7.74A60.53,60.53,0,0,1,74.1,90.09Zm.5,13.15c.34.23.5.11.5-.33a1,1,0,0,0-.66-.67.44.44,0,0,0-.5.5C73.94,103.08,74.16,103.24,74.6,103.24ZM77.93,6.16c-.22-.55-.44-.83-.66-.83a.44.44,0,0,0-.5.5c0,.56.22.83.66.83C77.77,6.88,77.93,6.72,77.93,6.16Zm2.67.33a.73.73,0,0,0-.5-.16c-.11.11-.11.16,0,.16a.47.47,0,0,0,.16.34Zm-.17-3.66H80.1l.16.17Zm.17,106.41c-.34,0-.5.22-.5.66a.64.64,0,0,0,.5.67.67.67,0,0,0,0-1.33ZM85.09,8.33c0,.11,0,.16-.08.16s-.08.06-.08.17,0,.17.16.17a.48.48,0,0,1,.34-.17ZM86.26,109.9c.44-.22.66-.38.66-.5a.58.58,0,0,0-.66-.66.44.44,0,0,0-.5.5C85.76,109.68,85.93,109.9,86.26,109.9Zm3-3.49c-.67,0-1,.16-1,.5-.23.33-.11.5.33.5.55-.22.83-.39.83-.5s0-.17-.08-.17-.08,0-.08-.17ZM91.75,8.83c-.33,0-.61.27-.83.83-.22.78-.06,1.22.5,1.33.56.33.83.17.83-.5a2.71,2.71,0,0,0-.16-.83A6.39,6.39,0,0,0,91.75,8.83Zm1-5c0,.44.17.56.5.33a.48.48,0,0,0,.17-.33c0-.33-.11-.5-.33-.5S92.75,3.5,92.75,3.83Zm2.5,102.74c0,.23.17.34.5.34s.5-.22.5-.67c-.22-.22-.39-.33-.5-.33C95.42,105.91,95.25,106.13,95.25,106.57Zm2.17-4.16c0-.22-.17-.33-.5-.33a.45.45,0,0,0-.17.33c0,.33.11.5.33.5S97.42,102.74,97.42,102.41Zm.5-81.26q-.35.33,0,.33v-.33Zm.33,24.14h.17l-.17-.16Zm1.5-19.65a.3.3,0,0,0-.34.34.33.33,0,0,0,.09.25.36.36,0,0,1,.08.25c.33.22.5.11.5-.34C100.19,26,100.08,25.87,99.75,25.64Zm1.16-3.49c.11-.34,0-.5-.33-.5a.44.44,0,0,0-.5.5c0,.44.17.55.5.33A.29.29,0,0,0,100.91,22.15Zm1.5,52.78a.78.78,0,0,0-.83-.66c-.45-.22-.67-.06-.67.5a.74.74,0,0,0,.84.83C102,75.6,102.19,75.38,102.41,74.93Zm-.5,7.83c-.33.22-.5.39-.5.5a.44.44,0,0,0,.5.5c.33,0,.5-.22.5-.67C102.19,82.87,102,82.76,101.91,82.76Zm0-16.32-.16.17h.16Zm.33-23.64.17-.17c-.11,0-.17,0-.17-.08s0-.09-.16-.09h-.17Zm0,50.12v.17h.17Zm1-42.3-.16-.33c-.23,0-.34.06-.34.17a.47.47,0,0,0-.16.33q0,.16.33,0c.11,0,.17,0,.17-.08S103.13,50.62,103.24,50.62ZM105.41,45c0-.44-.17-.67-.5-.67-.67-.22-1,0-1,.5-.11.23,0,.45.33.67C104.91,45.46,105.3,45.29,105.41,45Zm-.5,54.12a.36.36,0,0,1-.25-.08.33.33,0,0,0-.25-.09l-.17.34a.68.68,0,0,0,.5.16A.48.48,0,0,1,104.91,99.08ZM104.74,48c-.33.11-.39.28-.16.5a.29.29,0,0,0,.33.33c.22,0,.33-.17.33-.5C105,48.07,104.85,48,104.74,48Zm1-7.66c.33-.11.5-.28.5-.5,0-.44-.22-.56-.66-.33-.23,0-.34.16-.34.49C105.46,40.19,105.63,40.3,105.74,40.3Zm2.17-17c-.23-.44-.45-.66-.67-.66a.44.44,0,0,0-.5.5.59.59,0,0,0,.67.66c.22-.11.33-.19.33-.25S107.79,23.42,107.91,23.31Zm-.5,41.63c.33-.11.5-.27.5-.5a.59.59,0,0,0-.67-.66c-.22,0-.33.16-.33.5S107.07,64.94,107.41,64.94Zm.66,29.14v-.16h-.16c-.12,0-.17,0-.17.08s.05.08.17.08Zm1.83-20.81a2,2,0,0,1-.58-.08c-.16-.06-.3,0-.41.25s.22.5.66.5h.67c.22,0,.33-.11.33-.34S110.46,73.27,109.9,73.27Zm0-19-.33-.34c-.22-.22-.33-.11-.33.34,0,.22.05.33.17.33S109.68,54.62,109.9,54.29Z"/><path d="M125.39,84.76v-3.5a5.44,5.44,0,0,0,.33-1.33,25.92,25.92,0,0,0,.25-7.49,37.5,37.5,0,0,1-.08-7.5l-.5-.5v-1.5a22.48,22.48,0,0,0,.67-3.49,6.06,6.06,0,0,0-.67-3.33v-4a.77.77,0,0,0,.5-.83q.33-4.34.25-8.74t-.25-8.75v-.75a.93.93,0,0,0-.5-.74v-1a2.17,2.17,0,0,0,.67-1.92,6.05,6.05,0,0,1,0-2.08,4.74,4.74,0,0,0-.34-1.42c-.22-.6.23-.8,1.35-.58.45,0,.51-.17.17-.5-.45-1.11-1.06-1.44-1.85-1v-2.5q.33-.66,0-1v-2.5a6,6,0,0,0,0-5.83v-1.5a4.14,4.14,0,0,0,.5-3.16,3.77,3.77,0,0,1,1-3.08,32.87,32.87,0,0,0,2.19-2.58A3.09,3.09,0,0,1,131,.5a9,9,0,0,1,2.44,0,8.73,8.73,0,0,1,1.69.17A1.85,1.85,0,0,0,136.83,0h2.53a1.42,1.42,0,0,0,2,0h2q1.65,1.34,3,0h5.45a21.66,21.66,0,0,1,4.37,1.08,33.38,33.38,0,0,0,4.38,1.25,5.85,5.85,0,0,0,1,.25,1.57,1.57,0,0,1,.83.42q2.32,1.67,4.58,3.41A24.23,24.23,0,0,1,171,10.49a7.14,7.14,0,0,0,1.08,1.17A3.36,3.36,0,0,1,173,13a21.52,21.52,0,0,1,2.08,4.41,25.51,25.51,0,0,1,1.08,4.75c0,.66.22,1.05.67,1.16v3c-.78.56-.78,1.22,0,2V34.8a1,1,0,0,0,0,1.5v2.33a1.9,1.9,0,0,0-.34,1.09V40.8a14.26,14.26,0,0,1-.41,6.33A23.53,23.53,0,0,1,173.35,53a24.62,24.62,0,0,0-1.58,3A4.32,4.32,0,0,1,169,58.28a3.85,3.85,0,0,0-.5.83A3.59,3.59,0,0,1,166.35,61c-.89.44-1.72.89-2.49,1.33A4.9,4.9,0,0,0,162,64.11a8.1,8.1,0,0,0-.33,7.49l2.67,6.67q1.32,3.33,2.66,6.66,2,5.82,4.08,11.57t4.41,11.57a9.23,9.23,0,0,1,.75,5.08,9.06,9.06,0,0,1-2.75,4.41,4.86,4.86,0,0,1-1.08,1.09,2.63,2.63,0,0,0-.91,1.25h-3a1.41,1.41,0,0,0-.83-.42,7,7,0,0,1-1-.25A6.14,6.14,0,0,1,162,113.9a2.75,2.75,0,0,0-.33-1.17,34.77,34.77,0,0,0-1.81-3.49,10.22,10.22,0,0,1-1.33-3.67q-.33-1.32-.66-2.58a7.5,7.5,0,0,0-1.15-2.41,8.79,8.79,0,0,1-1.74-3.5,18.17,18.17,0,0,0-1.24-3.66,67.6,67.6,0,0,1-3.13-7.83c-.88-2.66-1.82-5.33-2.81-8a9.12,9.12,0,0,0-.75-1.5c-.27-.44-.52-.89-.74-1.33a3.8,3.8,0,0,0-1.24-1.08,1.71,1.71,0,0,0-1.56-.09c-1.11.23-1.71.78-1.82,1.67-.22,1.44-.42,2.89-.58,4.33a36.85,36.85,0,0,0-.25,4.33,30.2,30.2,0,0,1-.25,5.82,14.71,14.71,0,0,0,.41,6,2.4,2.4,0,0,1,0,1.75,2.85,2.85,0,0,0,0,1.91,8,8,0,0,1-.16,4.83,10.51,10.51,0,0,0-.25,3,18.17,18.17,0,0,0,.41,3,7.47,7.47,0,0,1-6.22,9.32,1,1,0,0,1-.68.09.67.67,0,0,0-.67.25H132c-.57-.34-1.16-.7-1.77-1.09a18.73,18.73,0,0,1-1.77-1.25l.34-.33c.45-.22.56-.5.33-.83h-.33c-.23,0-.34.28-.34.83a.45.45,0,0,0,.17.33c-.45-.11-.7-.3-.76-.58a1.53,1.53,0,0,0-.42-.75,6.42,6.42,0,0,1-.93-2,3,3,0,0,0-1.09-1.66v-2a6.75,6.75,0,0,0,0-5.5v-2.49a4.57,4.57,0,0,0,.58-3.5,5,5,0,0,1,.42-3.5c.11-.11,0-.27-.17-.5a4.78,4.78,0,0,1-.33-3.16,1.84,1.84,0,0,0-.5-2.17v-1a2.22,2.22,0,0,0,.58-2C125.81,86.09,125.61,85.43,125.39,84.76Zm2.5-53.29c-.23,0-.33.11-.33.34V32l.33-.33Zm-.17,5h.17V35.8c0-.11,0-.16.17-.16V36C127.61,36,127.5,36.14,127.72,36.47Zm.67,76.1a.54.54,0,0,0-.5-.34c-.23.23-.28.4-.17.5s.17.17.5.17S128.61,112.79,128.39,112.57Zm-.17-39.47c-.44,0-.5.17-.16.5,0,.45.16.56.49.34.23,0,.34-.17.34-.5C128.66,73.1,128.44,73,128.22,73.1Zm-.33-18.31V55l.17-.16ZM128.22,18a.51.51,0,0,0-.16.34l.33.16.33-.33a.37.37,0,0,1-.25-.08A.33.33,0,0,0,128.22,18Zm.17,69.61.16-.17c.11-.11.14-.19.09-.25s-.14,0-.25.09-.17,0-.17.16A.15.15,0,0,1,128.39,87.59ZM129.22,8c0-.22-.17-.33-.5-.33s-.33.17-.33.5.16.33.5.33S129.22,8.33,129.22,8Zm-.67,38a.44.44,0,0,0,.5.5c.11,0,.17-.17.17-.5s-.11-.44-.33-.33Zm.5-20.32-.16-.16v.16Zm1,77.44c0-.45-.16-.67-.5-.67s-.5,0-.5.33c-.22.45-.05.67.5.67C129.89,103.41,130.05,103.3,130.05,103.08Zm-.33-69.78a.29.29,0,0,0-.33-.33l-.17.17c0,.22.06.33.17.33s.16,0,.16-.08S129.61,33.3,129.72,33.3Zm.17-31.13-.34.16h.34Zm.33,71.43v.17l.33-.17Zm.5-34c-.22,0-.33.17-.33.5a.29.29,0,0,0,.33.33.44.44,0,0,0,.5-.5A.54.54,0,0,0,130.72,39.63Zm2-33.63c0-.45-.17-.67-.5-.67a.59.59,0,0,0-.67.67c0,.66.28.88.83.66C132.61,6.66,132.72,6.44,132.72,6Zm-1,85.59c0-.11.05-.17.16-.17h.17a.37.37,0,0,0-.08-.25.32.32,0,0,1-.09-.25l-.33.17A.69.69,0,0,0,131.72,91.59Zm.66-21.82v-.16h-.16Zm.67-40.63-.33-.17a.7.7,0,0,0-.17.5q0,.34.33,0A.48.48,0,0,0,133.05,29.14Zm-.17,57.28v.17h.17Zm1.67-2.83q.66,0,.33-.33c0-.22-.16-.44-.5-.67a.44.44,0,0,0-.5.5C133.88,83.43,134.1,83.59,134.55,83.59Zm1.5-37.13a1,1,0,0,0-.83-.5c-.56-.11-.84.11-.84.67s.22.83.67.83S135.82,47.13,136.05,46.46Zm-.67-39.8c0-.33-.11-.5-.33-.5a.29.29,0,0,0-.33.33c-.34.34-.23.5.33.5Zm-.5,30.14-.16.17h.16Zm1.17,73.1a1,1,0,0,0-.67-.66c-.22,0-.39.16-.5.5s.17.66.5.66S135.82,110.24,136.05,109.9Zm-.5-107.07a.32.32,0,0,1-.25-.08.33.33,0,0,0-.25-.09V3c0,.11.11.16.33.16A.48.48,0,0,0,135.55,2.83Zm.5,81.1c.44,0,.66-.11.66-.34a1,1,0,0,0-.33-.66c-.33-.11-.5-.06-.5.16C135.66,83.54,135.71,83.82,136.05,83.93Zm1.16-17.16c-.22-.66-.5-1-.83-1s-.5.27-.5.83.22.83.67.83C137,67.66,137.21,67.44,137.21,66.77Zm-1-46.45h-.16a.47.47,0,0,0,.16.33.15.15,0,0,1,.17-.17Zm.84,18a.44.44,0,0,0-.5-.5c-.45,0-.56.17-.34.5,0,.22.17.33.5.33S137.05,38.52,137.05,38.3Zm.33,21c.89.11,1.33-.05,1.33-.5a.58.58,0,0,0-.66-.66c-.56,0-.84.16-.84.5S137.27,59.28,137.38,59.28Zm.33-16.15c.34-.11.39-.39.17-.83-.22-.22-.33-.39-.33-.5a2.17,2.17,0,0,0-.17,1Q137.38,43.3,137.71,43.13Zm-.16,61.11c0,.11.11.17.33.17l.17-.17c0-.22-.06-.33-.17-.33Zm2.33-33.14a1.6,1.6,0,0,1,.66-.16,1.48,1.48,0,0,0,.67-.17c.33-.22.64-.42.92-.58s.35-.53.25-1.08-.5-.78-.84-.67l-1,.33a1.22,1.22,0,0,1-1.08.17,1.25,1.25,0,0,0-1.08.17c-.89.55-.89,1.11,0,1.66A2.22,2.22,0,0,0,139.88,71.1Zm-.83-5.49-.17-.33c-.45-.11-.67,0-.67.5-.33.33-.28.5.17.5a.4.4,0,0,0,.42-.25A.89.89,0,0,1,139.05,65.61Zm.16,6.66c0-.33-.16-.44-.5-.33s-.33.39-.33.5q-.33.33.33.33C139.05,72.66,139.21,72.49,139.21,72.27ZM138.55,54l-.17.17a.45.45,0,0,0,.17.33l.16-.16A.53.53,0,0,0,138.55,54Zm1,2.5c0-.33-.11-.39-.33-.17l-.16.17v.17a.14.14,0,0,0,.16.16h.17C139.49,56.78,139.54,56.67,139.54,56.45ZM140,8.33l-.33.33a.69.69,0,0,0,.5.17.5.5,0,0,0,.17-.34C140.38,8.16,140.27,8.1,140,8.33Zm1.17,43.46a1,1,0,0,0-.83-.5c-.34,0-.5.22-.5.66s.22.5.66.5A1,1,0,0,0,141.21,51.79Zm7.94-36.47v.17a15.25,15.25,0,0,1-1.66-.09,5.73,5.73,0,0,0-1.65.09,10,10,0,0,0-2.23.58,2.28,2.28,0,0,0-1.4,1.58A20,20,0,0,0,141,20.57a5.8,5.8,0,0,0-.16,3.08,11.2,11.2,0,0,1,.25,3q-.09,1.5-.09,3a15.16,15.16,0,0,0,0,3.16,13.68,13.68,0,0,1,0,3,39.71,39.71,0,0,0-.16,6.25,30.69,30.69,0,0,0,1,6.24,3.71,3.71,0,0,0,1.65,1.83,5.91,5.91,0,0,0,2.89.92,18.15,18.15,0,0,0,3.05-.08,3.3,3.3,0,0,1,1.65.08,3.3,3.3,0,0,0,1.65.08A7.22,7.22,0,0,0,155.58,50c.77-.56,1.6-1.11,2.47-1.67a6.85,6.85,0,0,0,2.48-3.08,9.63,9.63,0,0,0,.66-3.41,34,34,0,0,0,.25-5.33c-.06-1.78-.14-3.55-.25-5.33,0-1.22-.05-2.47-.16-3.75a5.08,5.08,0,0,1,1.33-3.74.57.57,0,0,0,.16-.42c0-.17-.11-.25-.33-.25a1.81,1.81,0,0,1-1.4-1.17,5.18,5.18,0,0,0-.91-1.66A18.16,18.16,0,0,0,157,17.23a7.85,7.85,0,0,0-3.72-1.58,12,12,0,0,0-2-.16A15.21,15.21,0,0,1,149.15,15.32Zm-6.61,40.8c.11-.34.06-.5-.16-.5-.45-.22-.67-.17-.67.16-.22.45-.11.67.33.67S142.54,56.34,142.54,56.12Zm2,8c.22,0,.33-.17.33-.5a.48.48,0,0,0-.33-.17c-.44,0-.56.17-.33.5A.45.45,0,0,0,144.54,64.11Zm.5,5.16a.44.44,0,0,0,.5-.5c.11-.33,0-.5-.33-.5-.23.23-.34.39-.34.5C144.54,69.11,144.6,69.27,145,69.27Zm1.5-60.44c-.45.11-.7.3-.75.58a8.48,8.48,0,0,1-.25.91.74.74,0,0,0,.83.84A1.55,1.55,0,0,0,147,11q.33-.16,0-.33A.75.75,0,0,1,147,9.58Q147.36,9,146.54,8.83Zm-.33,55.28c0-.33-.06-.5-.17-.5a.29.29,0,0,0-.33.33.67.67,0,0,0,.33.67v-.17c0-.11,0-.16.08-.16S146.21,64.22,146.21,64.11Zm1.49-4c.45-.1.67-.44.67-1s-.06-.6-.17-.49c-.89,0-1.22.33-1,1A.44.44,0,0,0,147.7,60.11Zm0-55.95c.34,0,.5-.11.5-.33s-.11-.5-.33-.5-.5,0-.5.33C147.37,3.78,147.48,3.94,147.7,4.16ZM148,71.77c-.34.56-.34.89,0,1s.66-.17.66-.83a.36.36,0,0,0-.08-.25c-.06-.06-.08-.2-.08-.42.33.11.55.06.66-.17H149l-.34.17A2.61,2.61,0,0,0,148,71.77Zm1.16-10.32a.68.68,0,0,1-.5.16c-.11.12-.19.17-.25.17s-.14.06-.25.17a.48.48,0,0,1,.17.33l.5-.5c.11,0,.17-.11.17-.33l.33-.17h-.17Zm1.17,11.82a.44.44,0,0,0-.5-.5l-.17.33a.44.44,0,0,0,.5.5ZM151,5.33c0-.22-.05-.28-.16-.17a.15.15,0,0,0-.17.17c0,.33.11.39.33.17Zm.34,70.77a.15.15,0,0,0-.17-.17.45.45,0,0,1-.33.17l.16.17c.11,0,.17,0,.17-.09S151.26,76.1,151.37,76.1Zm.5-18.82q.33-.33,0-.33a.67.67,0,0,0-.5.17c-.34,0-.39.11-.17.33S151.53,57.62,151.87,57.28Zm.83,1.5h-.83c-.34,0-.45.28-.34.83,0,.34.28.5.84.5a2,2,0,0,1,.83-.16c.33,0,.5-.22.5-.67s0-.47-.25-.41A1.18,1.18,0,0,1,152.7,58.78Zm-.83,4.83a.48.48,0,0,0-.17.33c0,.12.11.17.33.17l.34-.33A.7.7,0,0,0,151.87,63.61Zm.33,10.16c-.33,0-.5.22-.5.67.22.44.44.66.67.66.44,0,.66-.28.66-.83A1,1,0,0,0,152.2,73.77ZM154,55.12l-.16-.17h-.17l.17.17Zm.5,12.32-.33-.33h-.33c-.23.33-.12.5.33.5A.48.48,0,0,1,154.53,67.44Zm.17,5.16-.33.34.16.16.33-.16c0-.11,0-.17-.08-.17S154.7,72.72,154.7,72.6Zm.66-15.32v.34l.34-.34v-.16C155.47,57.12,155.36,57.17,155.36,57.28Zm1.84,17.65c0-.55-.34-.83-1-.83-.34,0-.5.23-.5.67,0,.78.27,1,.83.83A.59.59,0,0,0,157.2,74.93Zm0,8.33c0-.33-.17-.44-.5-.33s-.56.22-.34.66c0,.12.17.17.5.17A.54.54,0,0,0,157.2,83.26Zm-.34-16.82c-.11,0-.16,0-.16-.08s-.06-.08-.17-.08l-.17.33a.47.47,0,0,0,.34.16C157,66.77,157.08,66.67,156.86,66.44Zm1-15.48a.32.32,0,0,1,.09-.25.37.37,0,0,0,.08-.25l-.33-.17-.17.33Zm1.33-44.63a.64.64,0,0,0,.5-.67q-.33-.5-.66-.33c-.45,0-.56.22-.34.67C158.69,6.22,158.86,6.33,159.19,6.33Zm.5,92.92c-.11,0-.16,0-.16-.09s-.06-.08-.17-.08a.15.15,0,0,0-.17.17c0,.11.11.16.34.16A.14.14,0,0,0,159.69,99.25Zm.17-50.63v-.16l-.17-.17c-.33,0-.39.11-.16.33Zm.67-38.13-.17-.17c-.22,0-.22.12,0,.34A.15.15,0,0,1,160.53,10.49Zm2,46.13c0-.11,0-.17.09-.17s.08-.05.08-.17h-.17c-.33,0-.39.12-.16.34Zm.67,37.63c0-.33-.06-.5-.17-.5a1,1,0,0,0-.66.17c-.11.11-.06.28.16.5A1,1,0,0,0,163.19,94.25ZM164.36,55c.33,0,.5-.22.5-.66.22-.56,0-.73-.5-.5-.12,0-.28.11-.5.33A.76.76,0,0,0,164.36,55Zm1.49-48.46a.14.14,0,0,1-.16-.16.15.15,0,0,0-.17-.17.44.44,0,0,0-.5.5l.17.33C165.41,7,165.63,6.83,165.85,6.49ZM166.52,32a.44.44,0,0,0-.5.5c0,.45.17.67.5.67s.67-.17.67-.5A.6.6,0,0,0,166.52,32Zm2.83-4a1,1,0,0,0-.5-.84.44.44,0,0,0-.5.5.79.79,0,0,0,.67.84C169.24,28.48,169.35,28.31,169.35,28Zm-.16-3.33a.59.59,0,0,0,.66-.67.44.44,0,0,0-.5-.5c-.44,0-.66.17-.66.5S168.85,24.65,169.19,24.65ZM169,20.32l.17-.17c0-.22-.12-.22-.34,0A.15.15,0,0,1,169,20.32Zm.33,21.81a.48.48,0,0,1,.34-.17h.16a.75.75,0,0,0-.16-.5c-.12-.11-.28,0-.5.34A.51.51,0,0,1,169.35,42.13Zm1.33-29A1,1,0,0,0,170,13c-.23.22-.28.39-.17.5s.39.28.5.16a.45.45,0,0,0,.17-.24C170.52,13.35,170.57,13.27,170.68,13.16ZM171,30.47h-.17v.17H171Zm1.33,20.82a.39.39,0,0,0,.42-.25,3,3,0,0,1,.25-.58c0-.67-.23-1-.67-1a.73.73,0,0,0-.83.83C171.52,50.73,171.79,51.07,172.35,51.29ZM172,22.48l-.34.33c0,.34.11.39.34.17l.16-.17C172.18,22.59,172.13,22.48,172,22.48Zm.33,85.76.17.16v-.16Z"/><path d="M211.65.17h1a1.49,1.49,0,0,0,1.33.5c1.89,0,3.72,0,5.5.08s3.6,0,5.49-.08a7.93,7.93,0,0,1,2.58.08A3,3,0,0,0,230,.17h2c.56.44,1.11.86,1.67,1.25a7,7,0,0,0,1.83.91c1.11.23,1.83,1.11,2.17,2.67a4.06,4.06,0,0,1,.25,1.83,3,3,0,0,0,.41,1.83v2a9.33,9.33,0,0,1-9.32,5,8.6,8.6,0,0,0-4.5,1,7.94,7.94,0,0,0-4.33,6.83c0,1.22,0,2.44-.08,3.66a26.43,26.43,0,0,0,.08,3.67c.11,1.22.22,2.47.34,3.74s.16,2.53.16,3.75-.22,2.19-.33,3.25a14.41,14.41,0,0,0,0,3.08c0,2.33.05,4.66.17,7s.1,4.66,0,7a5.08,5.08,0,0,0,.16,1.49,2.59,2.59,0,0,1,.17,1.5,3,3,0,0,0-.58,2c.05.67.13,1.39.25,2.17a14.94,14.94,0,0,1,0,3,21.67,21.67,0,0,0-.25,5.75,43.05,43.05,0,0,1,.08,5.91c0,.56,0,1.17.08,1.83a4.93,4.93,0,0,1-.25,2,2.61,2.61,0,0,0,0,1.83,8.27,8.27,0,0,1,.42,3.08,18.48,18.48,0,0,0,.08,3.08,3.87,3.87,0,0,1-.08,1.75,6.49,6.49,0,0,0-.25,1.75,43.33,43.33,0,0,1,.33,5.33,24.12,24.12,0,0,1-.66,5.49,1.39,1.39,0,0,0,0,1.34,5.86,5.86,0,0,1,.41,2.49c-.06.78-.08,1.61-.08,2.5a5,5,0,0,1-3,4.83,9.19,9.19,0,0,0-1.25.75,2.9,2.9,0,0,0-.91,1.08h-4.5a2.64,2.64,0,0,0-1.5-.83q-3.17-1.17-3.66-5.16a26.05,26.05,0,0,1-.09-5.5,26,26,0,0,0-.08-5.49,25.28,25.28,0,0,1,.08-6.08,24.78,24.78,0,0,0,.09-6.08,33.34,33.34,0,0,1-.09-4,31.27,31.27,0,0,0-.08-4V76.27c0-2-.06-4-.16-6.17a7.59,7.59,0,0,1,0-2.33c.1-.77.22-1.6.33-2.49.11-1.45.19-2.86.25-4.25a34.45,34.45,0,0,0-.09-4.08,36.78,36.78,0,0,1-.41-4.16,20.65,20.65,0,0,1,.25-4.17,19,19,0,0,0,.16-4.33c-.11-1.44-.16-2.88-.16-4.33V37.13a27.38,27.38,0,0,0-.17-3,18.89,18.89,0,0,1,.17-4.42,19.35,19.35,0,0,0,.16-4.41,7.75,7.75,0,0,0-.66-3.16,5.05,5.05,0,0,1-.33-3.17h.16l-.16.17c-.34-.33-.64-.67-.92-1a3.38,3.38,0,0,0-1.08-.83c-1.11-.56-2.2-1.08-3.25-1.58a5.93,5.93,0,0,0-3.58-.42A6.93,6.93,0,0,1,190,13.65a5.7,5.7,0,0,0-1.5-1c-.66-.34-.55-.95.34-1.84,0-.33-.06-.5-.17-.5q-.84,0-.75-.66a.92.92,0,0,0-.58-1v-3a4.51,4.51,0,0,0,.83-1A7.21,7.21,0,0,1,192,1.17a11.21,11.21,0,0,1,5.16-.5,21,21,0,0,0,2.58.16,4.84,4.84,0,0,0,2.42-.66h2.5a1.25,1.25,0,0,0,2,0h2Q209.82,1.16,211.65.17ZM190.5,4V3.66c0,.12-.11.06-.33-.16V4Q190.5,4.33,190.5,4Zm11.66,1.83c0-.33-.11-.5-.34-.5s-.61.06-.83.5c0,.44.17.66.5.66S202.16,6.16,202.16,5.83Zm.83,4.83v-.34a.15.15,0,0,0-.17.17v.17Zm3.83-7.33c0,.11-.11.17-.33.17a.68.68,0,0,0,.16.5c.34,0,.5-.11.5-.34Zm.33,51.12c0-.11,0-.16-.08-.16s-.08-.06-.08-.17a.15.15,0,0,0-.17.17v.33c.11,0,.17,0,.17-.08S207,54.45,207.15,54.45ZM208,73.6c0-.22-.17-.33-.5-.33s-.5.11-.5.33.22.5.66.5C207.87,74.1,208,73.94,208,73.6Zm-.17-66.44c.55-.11.83-.61.83-1.5q0-.66-.33-.33a2.51,2.51,0,0,0-1.17,1.33C207.15,7,207.37,7.16,207.82,7.16Zm1.33,25a.44.44,0,0,0-.5.5.15.15,0,0,1,.17.16c0,.12.05.17.16.17.34,0,.5-.11.5-.33S209.37,32.14,209.15,32.14Zm.5,56.78v0h0ZM211,71.6a.44.44,0,0,0-.5-.5c-.22,0-.33.06-.33.17-.22.33-.11.5.33.5C210.59,71.88,210.76,71.83,211,71.6Zm.5-44.29a.44.44,0,0,0-.5.5c0,.33.11.5.34.5a.44.44,0,0,0,.5-.5C211.82,27.48,211.7,27.31,211.48,27.31Zm.34-4c-.45.23-.67.5-.67.84.22.44.44.61.67.5a.67.67,0,0,0,0-1.34Zm-.17-3.49-.33.33.16.17.34-.17c0-.11,0-.17-.09-.17S211.65,19.93,211.65,19.82Zm0,57.61-.33.34c0,.44.16.55.5.33l.16-.33Zm.67-35.8a.22.22,0,0,0-.34,0,.47.47,0,0,0-.16.33l.33.17A.69.69,0,0,0,212.32,41.63Zm.49-28.81c-.44-.22-.66-.05-.66.5s.17.67.5.67.66-.17.66-.5S213.15,12.82,212.81,12.82Zm-.16-7.32a.29.29,0,0,0-.33.33l.33.17c.11,0,.16,0,.16-.09s.06-.08.17-.08Zm3.16,1.83c0-.67-.28-.94-.83-.84-.78,0-1.17.34-1.17,1a1.31,1.31,0,0,0,1.34.84C215.59,8.44,215.81,8.1,215.81,7.33Zm-1.33,3.83c0-.22-.06-.34-.17-.34-.22-.22-.39-.16-.5.17l.17.33C214.31,11.66,214.48,11.6,214.48,11.16Zm.33,40.46c.45,0,.67-.27.67-.83a4.36,4.36,0,0,1,.08-.75c.06-.28-.14-.47-.58-.58s-.83-.06-.83.5A1.34,1.34,0,0,0,214.81,51.62ZM214.65,23c.11-.11.11-.28,0-.5a.48.48,0,0,0-.34.17q-.33,0,0,.33Zm.16,74.93c.34,0,.5-.1.5-.33a.29.29,0,0,0-.33-.33c-.33-.33-.5-.28-.5.16C214.26,97.75,214.37,97.91,214.81,97.91Zm.17,10.33-.17-.17v.17Zm1-14.16c0,.12,0,.17-.08.17s-.09.06-.09.17l.17.16c.11,0,.17,0,.17-.08s0-.08.16-.08Zm1-20.14c.33,0,.44-.17.33-.5,0-.11-.11-.17-.33-.17-.33-.33-.5-.22-.5.33C216.48,73.83,216.65,73.94,217,73.94Zm-.17-54h-.16l.16.17Zm1.33,46.79-.33.17v.17c.22,0,.33-.06.33-.17Zm4.5-51.95c-.33,0-.5.11-.5.33s.11.34.33.34.28,0,.5-.17C223,15,222.86,14.82,222.64,14.82ZM224.3,7h.17c.11,0,.17,0,.17-.16,0-.34-.11-.5-.34-.5a.29.29,0,0,0-.33.33Q223.64,7,224.3,7Zm4.17-.5c0-.77-.28-1.16-.83-1.16-.34.11-.5.5-.5,1.16s.27,1,.83,1S228.69,7.27,228.47,6.49Zm2.83,6.33.33-.16a.55.55,0,0,0-.16-.67.67.67,0,0,0-.67.33C230.8,12.55,231,12.71,231.3,12.82Zm0-8.49-.17.33c0,.34.11.39.34.17.1,0,.16-.11.16-.33A.48.48,0,0,0,231.3,4.33Zm1.75-1c-.06,0-.09.06-.09.17a.22.22,0,0,0,.34,0V3.33l-.17-.17C233.13,3.28,233.1,3.33,233.05,3.33Zm1.25,6.49L234,9.49l-.5.5c0,.33.11.39.34.17C233.91,10.16,234.07,10.05,234.3,9.82Z"/><path d="M267.43,64.28v2c-.33.11-.5.44-.5,1a32.57,32.57,0,0,0-.16,5.67c.11,1.88.16,3.77.16,5.66,0,.55.17.89.5,1v2c-.22.44-.41.86-.58,1.24s0,.81.58,1.25v2.5a10.59,10.59,0,0,0,0,7.83v2a6.29,6.29,0,0,0-.66,2.83v3c0,1.56,0,3.14.08,4.75a44.07,44.07,0,0,1-.08,4.75,5.9,5.9,0,0,1-2.67,5.16,20,20,0,0,1-2.25,1.41,20.07,20.07,0,0,0-2.24,1.42h-2.5a1.42,1.42,0,0,0-.75-.42,3.14,3.14,0,0,1-.75-.25,8.27,8.27,0,0,1-3.75-2.16,7.72,7.72,0,0,1-1.08-4.17v-1.08a1,1,0,0,0-.66-.91v-1.5a3.88,3.88,0,0,0,0-4.33v-2a4.16,4.16,0,0,0,0-4.5v-2c.55-.23.8-.56.74-1a10.93,10.93,0,0,1-.08-1.17c-.11-1.55-.19-3-.25-4.5a24.69,24.69,0,0,1,.25-4.49q0-1-.66-1.17v-1.5a3.3,3.3,0,0,0,.49-2.83,30.21,30.21,0,0,1-.08-3.91c.06-1.27.08-2.58.08-3.91a3.7,3.7,0,0,1,.17-1.17c.11-.33.5-.5,1.17-.5.44,0,.66-.33.66-1a.47.47,0,0,0-.16-.33.22.22,0,0,0-.34,0c-.55.11-.91.08-1.08-.08a1.22,1.22,0,0,1-.33-.67c-.06-.28-.11-.55-.17-.83a.81.81,0,0,0-.41-.59V65.28a6.81,6.81,0,0,0,.49-3.25c-.11-1.05-.27-2.14-.49-3.25v-1.5a4.15,4.15,0,0,0,.58-2.91,5.54,5.54,0,0,1,.25-2.91c.33-.56.05-1-.83-1.17V48a2.93,2.93,0,0,0,0-3.5V42q1.49-1.66,0-4v-6.5q1.32-2.82,0-4.83V23.15c.77-1,.77-1.84,0-2.5v-1.5a7.81,7.81,0,0,0,.74-4.25,39.31,39.31,0,0,0-.74-4.24V6.83a4.16,4.16,0,0,0,2.16-2.17A3.45,3.45,0,0,1,255.44,2h.84c.33,0,.61-.22.83-.67h2a1.75,1.75,0,0,0,.83.67,9.16,9.16,0,0,1,6.83,6.16A1.53,1.53,0,0,1,267,9.24a.87.87,0,0,0,.41.92v1.5a6,6,0,0,1-.33.58,1,1,0,0,0-.17.58c0,1.56,0,3.14.09,4.75a30.21,30.21,0,0,1-.25,4.91,1.69,1.69,0,0,1-.42-.25,2.09,2.09,0,0,0-.42-.25.25.25,0,0,0-.24.17c-.06.11,0,.16.08.16h.83a1.64,1.64,0,0,1,.5,1.17,2.11,2.11,0,0,0,.33,1.17v2c-.55.78-.55,1.39,0,1.84v6a4.54,4.54,0,0,0,0,5V41a1.71,1.71,0,0,0-.91,1.59,15.17,15.17,0,0,0,.25,1.74,13.93,13.93,0,0,1,.33,3v3.17c-.11,1.33-.17,2.69-.17,4.08v5a.93.93,0,0,0,.5.75v3A.84.84,0,0,0,267.43,64.28Zm-15.48,45-.34-.17-.16.17c0,.11,0,.16.08.16s.08.06.08.17Zm.83-53.12c0-.11,0-.17.08-.17s.09-.05.09-.17c-.23-.1-.39-.1-.5,0V56c.11,0,.16,0,.16.08S252.67,56.12,252.78,56.12Zm1.66-18.49q0-.66-.66-.33c-.45,0-.67.28-.67.83,0,.34.22.5.67.5S254.44,38.19,254.44,37.63Zm-1,42.13c0,.12,0,.17-.09.17s-.08.06-.08.17l.17.16c.1,0,.16,0,.16-.08s.06-.08.17-.08Zm1.33,27c-.34-.22-.56-.28-.67-.17l-.16.34c.1.22.33.28.66.16A.48.48,0,0,1,254.78,106.74Zm1.66-25.14c-.22-.34-.44-.5-.66-.5a2.17,2.17,0,0,0-1.09.66c-.5.45-.69.72-.58.83,0,.34.11.39.33.17a1.14,1.14,0,0,1,1-.5A1.06,1.06,0,0,0,256.44,81.6Zm-1.5-32.48-.33-.33h-.33a.32.32,0,0,0,.08.25.33.33,0,0,1,.08.25.36.36,0,0,0,.25-.08A.33.33,0,0,1,254.94,49.12Zm0,14.32-.16.17c0,.33.11.39.33.17v-.17A.15.15,0,0,1,254.94,63.44Zm1,5.33a.14.14,0,0,0-.16-.16l-.17.16v.17C255.83,69.16,255.94,69.11,255.94,68.77Zm1.67-58.28a1.09,1.09,0,0,1-.33-.83c0-.33-.12-.5-.34-.5s-.39,0-.5.33a2.71,2.71,0,0,0-.16.83.46.46,0,0,0,.08.59.83.83,0,0,0,.58.25A.59.59,0,0,0,257.61,10.49Zm-.17,78.1c0-.44-.11-.67-.33-.67s-.5.06-.5.5v.5a.15.15,0,0,0,.17.17C257.22,89.2,257.44,89,257.44,88.59Zm1.33-29.14c0-.34-.11-.5-.33-.5-.33.22-.5.39-.5.5-.33.33-.28.5.17.5S258.77,59.78,258.77,59.45Zm-.16-55.29-.17.17c0-.33-.06-.5-.17-.5V4A.49.49,0,0,0,258.61,4.16Zm.66,42a1.06,1.06,0,0,0-.66,1c.22.44.44.61.66.5a.79.79,0,0,0,.67-.84A.59.59,0,0,0,259.27,46.13Zm-.33,26.14V72.1c-.22-.22-.33-.16-.33.17l.16.33A.48.48,0,0,0,258.94,72.27Zm.5-37.63a.66.66,0,0,0,.5-.67c0-.44-.17-.67-.5-.67-.67,0-.89.28-.67.84C258.77,34.47,259,34.64,259.44,34.64Zm.5-12.83-.17-.16c-.22-.22-.33-.17-.33.16,0,.12.11.17.33.17A.15.15,0,0,1,259.94,21.81Zm.33,63.45-.16-.33c-.34-.11-.5,0-.5.33l.16.33C259.88,85.59,260.05,85.48,260.27,85.26Zm.67,3-.17-.34c-.33-.11-.5,0-.5.34s.06.33.17.33S260.83,88.59,260.94,88.26Zm0-58.62c0-.11.11-.28.33-.5,0-.33-.16-.44-.5-.33s-.33.16-.33.5C260.22,29.53,260.38,29.64,260.94,29.64Zm-.17,43.63V73.1a.21.21,0,0,0-.33,0c-.11.11-.11.17,0,.17Q260.44,73.6,260.77,73.27Zm.34,32.8c-.34,0-.5.12-.5.34v.33c0,.11.05.17.16.17a1,1,0,0,0,.67-.34C261.44,106.24,261.33,106.07,261.11,106.07Zm.49-30.14v.17c0,.45.11.45.34,0l-.17-.17Zm1.17,26.65a.36.36,0,0,0-.08-.25.33.33,0,0,1-.09-.25.44.44,0,0,0-.5.5l.17.33C262.6,102.91,262.77,102.8,262.77,102.58Zm1.33-43.13a.44.44,0,0,0-.5-.5.9.9,0,0,1-.66.08.71.71,0,0,0-.67.25.44.44,0,0,0,.5.5A1.92,1.92,0,0,0,264.1,59.45Zm-.66,15c0-.11-.12-.28-.34-.5-.33,0-.5.11-.5.33s.11.5.34.5S263.21,74.77,263.44,74.44Zm.16-29.31h-.16c-.23.22-.23.39,0,.5s.16-.06.16-.17Q263.93,45.46,263.6,45.13Zm-.33-23.82v.17l.33-.17Zm1.83,5c.11,0,.17-.11.17-.33l-.17-.17-.33.33c.11,0,.17,0,.17.09S265,26.31,265.1,26.31Z"/><path d="M292.08.5a2.11,2.11,0,0,0,1.16,1,6,6,0,0,1,2.83,2.66,9.84,9.84,0,0,1,1,3.67q.17,3.49.09,6.91c-.06,2.27-.09,4.58-.09,6.91,0,1.55-.06,3.14-.16,4.74a13.6,13.6,0,0,0,.49,4.75,10.6,10.6,0,0,1,.25,4c-.16,1.33-.3,2.61-.41,3.83-.23,2.88-.36,5.74-.42,8.57s0,5.69.25,8.58q.33,6.16.09,12.32t-.09,12.32c0,1.67,0,3.36-.08,5.08a50.37,50.37,0,0,0,.08,5.08,28.91,28.91,0,0,0,1.25,7.33q1.08,3.5,5.41,5.33a13.87,13.87,0,0,0,2.08.83,4.51,4.51,0,0,0,2.42,0,18.14,18.14,0,0,1,5.16.08,17.45,17.45,0,0,0,5.16.08,11.18,11.18,0,0,1,3,.09c1,.16,2,.36,3,.58a2.78,2.78,0,0,1,1.75.83c.38.45.8.89,1.24,1.34s.64.86.92,1.24.58.87.92,1.42v1a1,1,0,0,0-.5.83v1a9.73,9.73,0,0,1-1.42,3.83,5.67,5.67,0,0,1-3.25,2.33,18.32,18.32,0,0,1-5.82.67,53.11,53.11,0,0,0-6.83-.25q-3.49.08-6.83.42a2.34,2.34,0,0,1-1-.17,2.07,2.07,0,0,0-2.5,0,1.4,1.4,0,0,1-1.33,0,21.13,21.13,0,0,0-4.91-.42c-1.61.06-3.25.14-4.91.25a6.09,6.09,0,0,1-4.5-1,22.34,22.34,0,0,1-2.58-2.25,3.74,3.74,0,0,1-.92-3.41,5.44,5.44,0,0,0-.33-1.33v-5l.33-.33c.11-1.67.2-3.33.25-5s.14-3.38.25-5.16a1.94,1.94,0,0,0-.83-1.83v-2.5a3.27,3.27,0,0,0,.67-1.66,13.77,13.77,0,0,0-.09-3.42,14.19,14.19,0,0,1-.08-3.41l-.5-.5V73.44a18.77,18.77,0,0,0,.5-2.25,3.47,3.47,0,0,0-.5-2.25v-4a7.38,7.38,0,0,0,.75-3.49,12.3,12.3,0,0,0-.75-3.5v-.5a25,25,0,0,1,.83-2.91,2.83,2.83,0,0,0-.83-2.92v-1.5c1-1.88,1-3.55,0-5v-1c.56-.34.81-.72.75-1.17a11.32,11.32,0,0,1-.08-1.5c-.11-1.22-.23-2.44-.34-3.66a10.13,10.13,0,0,1,.34-3.66,1.51,1.51,0,0,0-.67-1.83v-1.5a1.63,1.63,0,0,0,0-2.5v-4a9.43,9.43,0,0,0,.83-4.49,23,23,0,0,0-.83-4.5V13.49a1.45,1.45,0,0,0,.5-1V11.32a10.06,10.06,0,0,1,.08-2.83c.17-1,.36-1.94.59-2.83a5.16,5.16,0,0,1,1.66-3.16,12.8,12.8,0,0,1,3.17-2Zm-8.16,31.64c-.34,0-.5.11-.5.33a.32.32,0,0,0,.08.25.37.37,0,0,1,.08.25,1,1,0,0,0,.67-.33C284.25,32.31,284.14,32.14,283.92,32.14Zm.16,6.49h-.16v.17Zm1,39.64-.16-.34-.34.17c-.22.33-.16.5.17.5Zm.34,8.49a.44.44,0,0,0-.5-.5c-.23,0-.34.11-.34.33s.11.5.34.5S285.19,87,285.42,86.76Zm-.5-2.33.33.16c.33,0,.39-.11.17-.33l-.17-.17C285,84.09,284.92,84.2,284.92,84.43Zm.33-79.6-.17.17c0,.33.11.39.34.16V5Zm.17,22.31c.22,0,.33-.05.33-.16.33-.34.22-.5-.33-.5a.51.51,0,0,1-.34.16C285.08,27,285.19,27.14,285.42,27.14Zm1,62.61-.33-.33-.16.17.33.33C286.36,90,286.41,90,286.41,89.75Zm1.17-29a.59.59,0,0,0-.67-.67c-.55.34-.83.62-.83.84s.22.5.67.5S287.58,61.23,287.58,60.78Zm.5,40.3v-.75c0-.28-.17-.42-.5-.42s-.67.34-.67,1,.22,1.17.67,1.17.5,0,.5-.25Zm.5-60.78a.73.73,0,0,1-.5.41c-.22.06-.28.25-.17.59s.22.33.67.33.67-.28.67-.83C289.35,40.46,289.13,40.3,288.58,40.3Zm-.17-27.48.34-.33a.3.3,0,0,0-.34-.33.29.29,0,0,0-.33.33Zm.34,10.66c-.34.22-.5.44-.5.67a1.74,1.74,0,0,0,.58,1c.28.23.52.45.75.67a.42.42,0,0,0,.58-.17.58.58,0,0,0,.08-.66A1.76,1.76,0,0,0,288.75,23.48Zm.16,67.44h-.16l-.17.17c-.33.33-.22.5.33.5a.34.34,0,1,0,0-.67Zm.5,5.33a.55.55,0,0,0-.16-.67c-.34-.33-.5-.27-.5.17-.34.33-.28.5.16.5C289,96.47,289.19,96.47,289.41,96.25Zm0-68.11V28h-.16c-.12,0-.17.05-.17.16Zm.5,70.11v-.17c-.22-.22-.33-.17-.33.17v.16C289.8,98.41,289.91,98.36,289.91,98.25Zm.5-66.28c.22,0,.33,0,.33-.16.22-.23.22-.34,0-.34s-.5.06-.5.17A.48.48,0,0,1,290.41,32Zm1.17,80.76c-.12-.44-.34-.66-.67-.66s-.67.16-.67.5a.59.59,0,0,0,.67.66C291.35,113.23,291.58,113.07,291.58,112.73Zm-1.17-77.09c.44-.23.67-.45.67-.67l-.17-.17a2.09,2.09,0,0,1-.25.42,1.69,1.69,0,0,0-.25.42.8.8,0,0,1-.08.33c-.06.11,0,.28.08.5.22,0,.33-.06.33-.17S290.74,36,290.41,35.64Zm.33,19.15c0-.11-.05-.11-.16,0V55A.14.14,0,0,0,290.74,54.79Zm0,18.65c0,.33.11.5.34.5.33.22.5.11.5-.34s-.12-.5-.34-.5S290.74,73.1,290.74,73.44Zm.17-55.12c0,.11.11.16.33.16a.48.48,0,0,0,.17-.33l-.33-.17C290.74,18,290.69,18.1,290.91,18.32Zm.5,68.77-.33.33v.17l.33-.33Zm.17,30.14c.33,0,.5-.22.5-.67s-.28-.44-.5-.33c-.45,0-.56.23-.34.67C291.24,117.12,291.35,117.23,291.58,117.23Zm.33-109.07a.69.69,0,0,0-.17-.5h-.16l-.17.17c-.22.22-.17.39.17.5A.48.48,0,0,1,291.91,8.16Zm0,17.32h-.17l-.16.16Zm0,20.81a.21.21,0,0,0,0-.33.48.48,0,0,0-.33-.17v.34C291.58,46.24,291.69,46.29,291.91,46.29Zm1.17,56.79a.74.74,0,0,0-.84-.84c-.44,0-.66.17-.66.5.22.56.5.84.83.84C292.85,103.8,293.08,103.63,293.08,103.08Zm-.5-69.94c0-.22-.12-.22-.34,0a.14.14,0,0,0-.16.16c0,.23.05.28.16.17Zm-.17-31,.17.16V2.17Zm.17,96.58-.17.33c0,.22,0,.28.17.17l.16-.17c0-.11,0-.17-.08-.17S292.58,98.86,292.58,98.75ZM293.91,40l-.34-.33c-.11,0-.27.11-.49.33,0,.23.1.34.33.34S293.68,40.3,293.91,40Zm.5,51.29c0,.12.11.17.33.17v-.17c0-.11-.06-.16-.17-.16Zm.66,20.82v-.17C295.18,111.9,295.18,112,295.07,112.07Zm2.5-2.17c0,.56.22.84.67.84s.66-.28.66-.84-.16-.66-.5-.66C297.85,109,297.57,109.24,297.57,109.9Zm2.5-5.49q0,.5.33.33l.5-.5v-.16l-.16-.17C300.51,103.8,300.29,104,300.07,104.41Zm2.33,3c0-.22-.06-.34-.17-.34h-.16l-.17.17a.54.54,0,0,0,.33.5Zm2.17,1.83a1,1,0,0,0-.84-.5c-.33,0-.5.22-.5.66a.65.65,0,0,0,.67.5A.59.59,0,0,0,304.57,109.24Zm2-3c-.55.22-.83.56-.83,1q-.33.33.33.33a3.48,3.48,0,0,1,.75-.25c.28,0,.36-.25.25-.58Zm6.66-.33c-.22,0-.39.16-.5.5a.5.5,0,0,0,1,0C313.72,106.3,313.56,106.13,313.22,105.91Zm2.17,7.32a.52.52,0,0,0-.17.34c0,.11.06.16.17.16s0-.16.08-.16.09-.06.09-.17Zm9.32.34-.16-.34c-.34-.33-.5-.27-.5.17a.29.29,0,0,0,.33.33c.11,0,.17,0,.17-.08S324.6,113.57,324.71,113.57Z"/><path d="M355.52.5a2.1,2.1,0,0,0,1.17,1,6.07,6.07,0,0,1,2.83,2.66,10.23,10.23,0,0,1,1,3.67q.15,3.49.08,6.91c-.06,2.27-.08,4.58-.08,6.91,0,1.55-.06,3.14-.17,4.74a13.61,13.61,0,0,0,.5,4.75,11,11,0,0,1,.25,4c-.17,1.33-.31,2.61-.42,3.83q-.33,4.32-.41,8.57a85.29,85.29,0,0,0,.25,8.58q.33,6.16.08,12.32t-.08,12.32c0,1.67,0,3.36-.09,5.08a50.34,50.34,0,0,0,.09,5.08,28.47,28.47,0,0,0,1.24,7.33q1.08,3.5,5.42,5.33a13.07,13.07,0,0,0,2.08.83,4.47,4.47,0,0,0,2.41,0,18.14,18.14,0,0,1,5.16.08,17.51,17.51,0,0,0,5.17.08,11.1,11.1,0,0,1,3,.09c1,.16,2,.36,3,.58a2.76,2.76,0,0,1,1.75.83c.39.45.8.89,1.25,1.34s.64.86.91,1.24.59.87.92,1.42v1a1,1,0,0,0-.5.83v1a9.57,9.57,0,0,1-1.41,3.83,5.74,5.74,0,0,1-3.25,2.33,18.38,18.38,0,0,1-5.83.67,53,53,0,0,0-6.83-.25c-2.33,0-4.61.19-6.82.42a2.31,2.31,0,0,1-1-.17,2.07,2.07,0,0,0-2.5,0,1.4,1.4,0,0,1-1.33,0,21.26,21.26,0,0,0-4.92-.42c-1.61.06-3.24.14-4.91.25a6.07,6.07,0,0,1-4.49-1,22.42,22.42,0,0,1-2.59-2.25,3.71,3.71,0,0,1-.91-3.41,5.44,5.44,0,0,0-.33-1.33v-5l.33-.33c.11-1.67.19-3.33.25-5s.14-3.38.25-5.16a2,2,0,0,0-.83-1.83v-2.5a3.23,3.23,0,0,0,.66-1.66,13.79,13.79,0,0,0-.08-3.42,13.23,13.23,0,0,1-.08-3.41l-.5-.5V73.44a20.93,20.93,0,0,0,.5-2.25,3.53,3.53,0,0,0-.5-2.25v-4a7.63,7.63,0,0,0,.75-3.49,12.3,12.3,0,0,0-.75-3.5v-.5a25,25,0,0,1,.83-2.91,2.87,2.87,0,0,0-.83-2.92v-1.5a4.55,4.55,0,0,0,0-5v-1c.55-.34.8-.72.75-1.17a11.2,11.2,0,0,1-.09-1.5l-.33-3.66a10.35,10.35,0,0,1,.33-3.66,1.51,1.51,0,0,0-.66-1.83v-1.5a1.64,1.64,0,0,0,0-2.5v-4a9.55,9.55,0,0,0,.83-4.49,23,23,0,0,0-.83-4.5V13.49a1.45,1.45,0,0,0,.5-1V11.32a9.37,9.37,0,0,1,.08-2.83c.17-1,.36-1.94.58-2.83A5.17,5.17,0,0,1,348,2.5a12.73,12.73,0,0,1,3.16-2Zm-8.16,31.64c-.33,0-.5.11-.5.33a.36.36,0,0,0,.08.25A.33.33,0,0,1,347,33a1,1,0,0,0,.66-.33C347.69,32.31,347.58,32.14,347.36,32.14Zm.17,6.49h-.17v.17Zm1,39.64-.17-.34-.33.17c-.23.33-.17.5.16.5Zm.33,8.49a.44.44,0,0,0-.5-.5.29.29,0,0,0-.33.33c0,.33.1.5.33.5S348.63,87,348.86,86.76Zm-.5-2.33.33.16c.34,0,.39-.11.17-.33l-.17-.17C348.47,84.09,348.36,84.2,348.36,84.43Zm.33-79.6-.16.17c0,.33.1.39.33.16V5Zm.17,22.31c.22,0,.33-.05.33-.16.34-.34.22-.5-.33-.5a.49.49,0,0,1-.33.16C348.53,27,348.63,27.14,348.86,27.14Zm1,62.61-.33-.33-.17.17.33.33C349.8,90,349.86,90,349.86,89.75Zm1.16-29a.59.59,0,0,0-.66-.67c-.56.34-.83.62-.83.84s.22.5.66.5S351,61.23,351,60.78Zm.5,40.3v-.75c0-.28-.16-.42-.5-.42s-.66.34-.66,1,.22,1.17.66,1.17.5,0,.5-.25ZM352,40.3a.73.73,0,0,1-.5.41c-.22.06-.28.25-.16.59s.22.33.66.33.67-.28.67-.83C352.8,40.46,352.58,40.3,352,40.3Zm-.16-27.48.33-.33a.29.29,0,0,0-.33-.33c-.23,0-.34.11-.34.33Zm.33,10.66c-.33.22-.5.44-.5.67a1.74,1.74,0,0,0,.58,1c.28.23.53.45.75.67a.42.42,0,0,0,.58-.17.58.58,0,0,0,.09-.66A1.78,1.78,0,0,0,352.19,23.48Zm.17,67.44h-.17l-.17.17c-.33.33-.22.5.34.5.22,0,.33-.11.33-.34A.29.29,0,0,0,352.36,90.92Zm.5,5.33a.57.57,0,0,0-.17-.67c-.33-.33-.5-.27-.5.17-.33.33-.28.5.17.5C352.46,96.47,352.63,96.47,352.86,96.25Zm0-68.11V28h-.17c-.11,0-.17.05-.17.16Zm.5,70.11v-.17c-.23-.22-.34-.17-.34.17v.16C353.24,98.41,353.36,98.36,353.36,98.25ZM353.85,32c.23,0,.34,0,.34-.16.22-.23.22-.34,0-.34s-.5.06-.5.17A.47.47,0,0,1,353.85,32ZM355,112.73c-.11-.44-.33-.66-.67-.66s-.66.16-.66.5a.58.58,0,0,0,.66.66C354.8,113.23,355,113.07,355,112.73Zm-1.17-77.09c.45-.23.67-.45.67-.67l-.17-.17a1.69,1.69,0,0,1-.25.42,2.09,2.09,0,0,0-.25.42.67.67,0,0,1-.08.33c-.06.11,0,.28.08.5.23,0,.34-.06.34-.17S354.19,36,353.85,35.64Zm.34,19.15c0-.11-.06-.11-.17,0V55C354.13,55,354.19,54.9,354.19,54.79Zm0,18.65c0,.33.11.5.33.5.33.22.5.11.5-.34s-.11-.5-.33-.5S354.19,73.1,354.19,73.44Zm.16-55.12c0,.11.11.16.34.16a.47.47,0,0,0,.16-.33l-.33-.17C354.19,18,354.13,18.1,354.35,18.32Zm.5,68.77-.33.33v.17l.33-.33Zm.17,30.14c.33,0,.5-.22.5-.67s-.28-.44-.5-.33c-.44,0-.56.23-.33.67A.29.29,0,0,0,355,117.23Zm.33-109.07a.68.68,0,0,0-.16-.5H355l-.17.17c-.22.22-.16.39.17.5A.48.48,0,0,1,355.35,8.16Zm0,17.32h-.16l-.17.16Zm0,20.81a.21.21,0,0,0,0-.33.48.48,0,0,0-.33-.17v.34C355,46.24,355.13,46.29,355.35,46.29Zm1.17,56.79a.74.74,0,0,0-.83-.84c-.45,0-.67.17-.67.5.22.56.5.84.83.84C356.29,103.8,356.52,103.63,356.52,103.08ZM356,33.14q0-.33-.33,0c-.12,0-.17,0-.17.16s.05.28.17.17Zm-.17-31,.17.16V2.17ZM356,98.75l-.17.33c0,.22.06.28.17.17l.17-.17c0-.11,0-.17-.09-.17S356,98.86,356,98.75ZM357.35,40l-.33-.33c-.11,0-.28.11-.5.33,0,.23.11.34.33.34S357.13,40.3,357.35,40Zm.5,51.29c0,.12.11.17.33.17v-.17a.14.14,0,0,0-.16-.16Zm.67,20.82v-.17C358.63,111.9,358.63,112,358.52,112.07ZM361,109.9c0,.56.23.84.67.84s.67-.28.67-.84-.17-.66-.5-.66Q361,108.91,361,109.9Zm2.5-5.49c0,.33.11.44.34.33l.5-.5v-.16l-.17-.17C364,103.8,363.73,104,363.51,104.41Zm2.33,3c0-.22,0-.34-.16-.34h-.17l-.17.17a.53.53,0,0,0,.34.5Zm2.17,1.83a1,1,0,0,0-.83-.5c-.34,0-.5.22-.5.66a.64.64,0,0,0,.66.5A.59.59,0,0,0,368,109.24Zm2-3c-.56.22-.84.56-.84,1-.22.22-.11.33.34.33a3.14,3.14,0,0,1,.75-.25c.27,0,.36-.25.25-.58Zm6.66-.33c-.23,0-.39.16-.5.5a.5.5,0,1,0,1,0C377.17,106.3,377,106.13,376.67,105.91Zm2.16,7.32a.51.51,0,0,0-.16.34.14.14,0,0,0,.16.16c0-.11,0-.16.09-.16s.08-.06.08-.17Zm9.33.34-.17-.34c-.33-.33-.5-.27-.5.17a.29.29,0,0,0,.33.33c.11,0,.17,0,.17-.08S388,113.57,388.16,113.57Z"/><path d="M408.64,102.58v-2a4.7,4.7,0,0,0,.58-3.08,11.84,11.84,0,0,1-.08-3.08,14.9,14.9,0,0,1,.16-2.25,2.57,2.57,0,0,0-.66-2.08V85.76q.83-.84,0-1.5v-2.5a1.64,1.64,0,0,0,0-2.5v-4q1.67-2,0-4.5v-1.5A2.32,2.32,0,0,0,409.3,67c-.22-.72-.44-1.41-.66-2.08v-2a4.12,4.12,0,0,0,.83-1.49c.11-.45-.17-1-.83-1.5V59c.44-.44.61-.78.5-1a16.81,16.81,0,0,1-.08-2.91c.05-.95.08-1.86.08-2.75a1,1,0,0,0-.5-.83V51a6.63,6.63,0,0,0,.42-1.5,2.45,2.45,0,0,0-.42-1.5V44.13a7.06,7.06,0,0,0,0-6v-7a1.15,1.15,0,0,0,.5-1.5,11.5,11.5,0,0,1,0-2.75,23.5,23.5,0,0,0,.16-2.74c.11-.89.2-1.84.25-2.84a9.51,9.51,0,0,1,.59-2.83A32.28,32.28,0,0,1,413.47,12a18.08,18.08,0,0,0,1.41-2.33,8.34,8.34,0,0,1,1.59-2.17,4.81,4.81,0,0,1,1.66-.91,3.54,3.54,0,0,0,1.5-.92,12.71,12.71,0,0,1,8.49-4.16,12.43,12.43,0,0,1,1.33-.25,1.26,1.26,0,0,0,1-.75H433a4.36,4.36,0,0,0,.08.75c.06.28.2.36.42.25A4.26,4.26,0,0,1,435,1.17,2,2,0,0,0,436.45.5h1a1.94,1.94,0,0,0,1.66.67,24.27,24.27,0,0,1,5.83,2c1.77.89,3.61,1.78,5.5,2.67a2,2,0,0,1,1.16,1,7,7,0,0,0,1.08,1.41l1.25,1.25a13.48,13.48,0,0,1,3.58,5.33c.72,2,1.42,4.05,2.08,6.16a9.88,9.88,0,0,1,.5,4.75,36.15,36.15,0,0,0-.33,4.91c-.11,1.44-.19,2.86-.25,4.25a19.77,19.77,0,0,0,.25,4.08,24.92,24.92,0,0,1,.08,6.74,18.42,18.42,0,0,0,.42,6.74,9.88,9.88,0,0,0-.5,4.75,23,23,0,0,1,.17,4.75,26,26,0,0,1-.17,2.83,7,7,0,0,0,.33,3,3.9,3.9,0,0,1-.33,2.17,5.16,5.16,0,0,0,0,3.16,23.46,23.46,0,0,1,.33,5.5,30.86,30.86,0,0,0,.17,5.49,6.58,6.58,0,0,1-.33,2.92,4.63,4.63,0,0,0-.17,2.74c.11.78.19,1.53.25,2.25a7.55,7.55,0,0,1-.25,2.42,2.62,2.62,0,0,0,0,1.83,8.18,8.18,0,0,1,.42,5,13.61,13.61,0,0,0-.25,5,11.5,11.5,0,0,1,0,2.75,25,25,0,0,0-.17,2.91c-.11.78-.22,1.58-.33,2.42a3.55,3.55,0,0,1-1,2.08c-.67.66-1.31,1.33-1.92,2a5.9,5.9,0,0,1-2.24,1.5h-.5c-.23-.45-.53-.65-.92-.59a6.51,6.51,0,0,1-6.08-2.25,7.35,7.35,0,0,1-2-5.16q.17-4.83.17-9.49t-.33-9.49V90.09a11.74,11.74,0,0,1,.33-2.83,9.53,9.53,0,0,0,.33-1.75,4.21,4.21,0,0,0-.66-1.58,6.18,6.18,0,0,0-.34-.59,1,1,0,0,1-.16-.58,4.38,4.38,0,0,0-2-3.33,10.24,10.24,0,0,0-3.66-1.33,11.51,11.51,0,0,0-5.5-.33,44.08,44.08,0,0,1-5.33.66.86.86,0,0,0-.41.33,1.29,1.29,0,0,1-.25.34c-.67,1.22-1.34,2.5-2,3.83a6.34,6.34,0,0,0-.5,4.33,1,1,0,0,1-.17.66,3.23,3.23,0,0,0-.58,2.08,10.92,10.92,0,0,0,.41,2.25,2.05,2.05,0,0,1-.66,2.5,5,5,0,0,0-.58.67c-.17.22-.14.5.08.83a4.84,4.84,0,0,1,1.42,3.91,24.92,24.92,0,0,1-.92,4.25,2.72,2.72,0,0,0,0,1.33,8.44,8.44,0,0,1,.75,3.83c-.06,1.33-.14,2.66-.25,4a5.2,5.2,0,0,1-1.58,3.41,6.11,6.11,0,0,1-3.25,2.08,17.55,17.55,0,0,1-3.75.25,6.69,6.69,0,0,1-3.58-1.41,7.61,7.61,0,0,1-1.33-1.34,5.85,5.85,0,0,1-.83-1.66,16.76,16.76,0,0,1-.58-5,49.35,49.35,0,0,1,.41-5,.69.69,0,0,0,.5-.17.69.69,0,0,1-.5.17,1.58,1.58,0,0,1-.17-1.25A.88.88,0,0,0,408.64,102.58ZM410,69.27l.33-.16c.11-.11.06-.28-.16-.5-.23,0-.34.11-.34.33A.48.48,0,0,1,410,69.27Zm.33,31.64h0a.64.64,0,0,1-.08.33.73.73,0,0,0-.08.34c0,.44.16.66.5.66.33.34.5.28.5-.16.33-.34.22-.61-.34-.84-.11-.1-.19-.16-.25-.16S410.41,101,410.3,100.91Zm2.17-19c-.22-.33-.45-.44-.67-.33a.44.44,0,0,0-.5.5c0,.33.22.49.67.49S412.47,82.37,412.47,81.93Zm-.17-21c0-.22-.16-.34-.5-.34h-.16l-.17.17c0,.11.11.28.33.5A.54.54,0,0,0,412.3,61Zm.17-37.8c-.56.22-.78.44-.67.66L412,24a.77.77,0,0,0,.5-.83h.66L413,23a.36.36,0,0,0-.25.08A.33.33,0,0,1,412.47,23.15Zm.66,87.59c-.22,0-.33.16-.33.5a.65.65,0,0,0,.67.5c.55,0,.66-.17.33-.5C413.8,110.68,413.58,110.52,413.13,110.74Zm1.5-62.62a.38.38,0,0,0-.25-.41,6,6,0,0,1-.58-.25c-.44-.22-.67-.22-.67,0s.5.61,1.17.83A.48.48,0,0,1,414.63,48.12ZM414,31l.33-.16c0-.22-.06-.34-.17-.34h-.33A.67.67,0,0,0,414,31Zm.66,36.8c.11,0,.17-.11.17-.33s.11-.19,0-.25a.29.29,0,0,0-.33.08l-.17.34C414.3,67.72,414.41,67.77,414.63,67.77Zm.17-53.95a.48.48,0,0,1-.17-.33l-.16.16c0,.23.11.34.33.34Zm.67,90.26c0-.34-.12-.5-.34-.5a.29.29,0,0,0-.33.33c-.11.11-.06.28.17.5C415.3,104.41,415.47,104.3,415.47,104.08Zm0-5.83a.33.33,0,0,0-.09-.25.37.37,0,0,1-.08-.25l-.33.16c0,.23,0,.34.16.34ZM415.8,37a.68.68,0,0,0-.67.33c0,.45.17.61.5.5s.5-.11.5-.33Zm.83,22.14c-.22-.55-.5-.72-.83-.49s-.33.39-.33.49c-.23.34-.06.5.5.5S416.63,59.45,416.63,59.11Zm-.83,34.31a.37.37,0,0,0,.08.25.33.33,0,0,1,.09.25.7.7,0,0,0,.5-.17c0-.33-.12-.5-.34-.5s-.16,0-.16.08S415.91,93.42,415.8,93.42Zm.67-12.49c0,.11-.12.17-.34.17-.22.33-.11.5.34.5l.33-.34Zm.16-70.77c0,.44.17.55.5.33.33,0,.5-.11.5-.33,0-.44-.22-.61-.67-.5C416.74,9.66,416.63,9.82,416.63,10.16ZM418,95.75l-.16-.33c-.23,0-.34,0-.34.16v.34a.32.32,0,0,0,.25-.09A.37.37,0,0,1,418,95.75Zm.17-48v-.16c-.22-.11-.39-.11-.5,0A.29.29,0,0,0,418,48,.15.15,0,0,1,418.13,47.79Zm.67-22a.15.15,0,0,1-.17-.17.15.15,0,0,0-.17-.16q-.33-.33-.33.33a.69.69,0,0,0,.17.5C418.41,26.31,418.57,26.14,418.8,25.81Zm0,37.47-.17-.34a.69.69,0,0,0-.5.17.29.29,0,0,0,.33.33c.11,0,.17,0,.17-.08S418.69,63.28,418.8,63.28Zm0,14.49c0-.23-.06-.34-.17-.34-.33-.33-.5-.33-.5,0v.34c0,.11.06.16.17.16a.33.33,0,0,0,.25-.08A.32.32,0,0,1,418.8,77.77ZM421,49.62a2.1,2.1,0,0,1,.75.17c.28.11.42-.06.42-.5-.11-.67-.42-.89-.92-.67a1,1,0,0,1-1.25-.16c-.11-.22-.25-.28-.41-.17a.55.55,0,0,0-.25.5c.11.56.3.86.58.92A2.67,2.67,0,0,0,421,49.62ZM419.8,43l.33.34.16-.17c0-.22-.05-.33-.16-.33S419.8,42.85,419.8,43Zm.33,14-.17.17c0,.22.06.33.17.33s.33,0,.33-.33C420.46,57,420.35,57,420.13,57Zm1.66,5.83a.88.88,0,0,0-1-1c-.44,0-.66.28-.66.83.22.78.55,1.17,1,1.17S421.79,63.44,421.79,62.78Zm-1.16,8.32c.44-.1.66-.33.66-.66a1.09,1.09,0,0,1,.34-.83c.11-.11.11-.2,0-.25s-.17,0-.17.08a5,5,0,0,1-.67.58,1.64,1.64,0,0,0-.5.92Zm.16,9.16h-.16l.16.17Zm.84,26.15-.17-.17h-.17c0,.22.06.33.17.33Zm.66-45.63-.16.17.16.16Zm2.17,2c.44,0,.66-.28.66-.83s-.27-.67-.83-.67-.66.5-.66,1.17A.67.67,0,0,0,424.46,62.78Zm20.31-33.64A12.72,12.72,0,0,0,440.94,18a7.16,7.16,0,0,0-6-2.41,12.26,12.26,0,0,0-5.83,1.75,14.6,14.6,0,0,0-3.91,4.16A9.38,9.38,0,0,0,424,27c0,1.22-.06,2.47-.17,3.74a10.73,10.73,0,0,0,.33,3.75,6,6,0,0,1-.08,3.58A6.61,6.61,0,0,0,424,41.8a18.45,18.45,0,0,1,0,8.49A2.17,2.17,0,0,0,424,52a2.9,2.9,0,0,1,.42,1.75q-.09.91-.09,1.92a6.56,6.56,0,0,0,.17,2.58,3.93,3.93,0,0,0,1.33,2.08,33.66,33.66,0,0,0,3.42,2.41,4.46,4.46,0,0,0,4.07.25,2.67,2.67,0,0,1,1.5.17,7.94,7.94,0,0,0,5.42-.83,15,15,0,0,0,4.07-3.66,1.58,1.58,0,0,0,.42-.92,7.05,7.05,0,0,0,.08-1.08c-.11-.89-.19-1.83-.25-2.83a16.37,16.37,0,0,1,.09-2.83q.33-3.16.41-6.17c.06-2,0-4-.08-6.16-.11-1.55-.17-3.13-.17-4.74ZM425.29,8.49c0-.11-.06-.16-.17-.16a.14.14,0,0,0-.16.16c0,.11.05.17.16.17A.15.15,0,0,1,425.29,8.49Zm1.5,2.17c.33,0,.5-.22.5-.67s-.22-.5-.67-.5-.5.23-.5.67S426.34,10.66,426.79,10.66ZM427,75.43v.17l.16-.17Zm1.83-71.1a.78.78,0,0,0-.67.83c.22.45.44.67.67.67.55,0,.72-.28.5-.83C429.29,4.55,429.12,4.33,428.79,4.33Zm-.17,63.61c-.33.22-.5.45-.5.67q0,.66.84.66c.33,0,.49-.16.49-.5A.73.73,0,0,0,428.62,67.94ZM429,13.65v-.16h-.17Zm1-2c-.33,0-.5.11-.5.33a.44.44,0,0,0,.5.5c.22,0,.34-.17.34-.5A.3.3,0,0,0,430,11.66Zm1.17-4.83-.5-.5c-.22,0-.33.16-.33.5a.47.47,0,0,1,.16.33c0,.11.11.17.34.17a.46.46,0,0,0,.16-.25C431,7,431,6.94,431.12,6.83Zm1.5,68.94c0-.22-.23-.45-.67-.67a.29.29,0,0,0-.33.33c-.11.23,0,.45.33.67A.67.67,0,0,0,432.62,75.77Zm-.5-70.94v.33c.11,0,.17,0,.17-.16ZM433,66.28c0-.45-.11-.67-.33-.67a.44.44,0,0,0-.5.5c0,.33.11.5.33.5a.28.28,0,0,0,.25-.17A.27.27,0,0,1,433,66.28Zm1.67-57.45V9l.16-.16Zm1.33-3V5.66h-.33v.17Zm1.16,7.82a1,1,0,0,0-.83-.49.52.52,0,0,0-.16.66q0,.67.66.33C437,14.15,437.11,14,437.11,13.65Zm5.67,48.13c-.23.11-.34.39-.34.83s.22.73.67.5c.22-.11.3-.25.25-.42a1.66,1.66,0,0,1-.08-.58C443.05,61.89,442.88,61.78,442.78,61.78Zm.33,6.49a3.47,3.47,0,0,0,.83-.5c.22-.22.25-.33.08-.33h-.41c-.45,0-.73.17-.83.5Zm.5-1.66v-.17l-.17-.16q-.33.33,0,.33Zm1.33,2.83a.78.78,0,0,0-.83.66v.34c.66,0,1.05-.22,1.16-.67Zm1.33,8.83c.44,0,.67-.17.67-.5s-.06-.61-.5-.84a.59.59,0,0,0-.67.67C445.66,77.93,445.83,78.16,446.27,78.27ZM446.11,10V9.82l-.17.17Zm.33,70.61c-.33,0-.5.11-.5.33a.5.5,0,0,0,1,0C446.94,80.71,446.77,80.6,446.44,80.6Zm.83-36.14c-.22-.44-.39-.67-.5-.67a.44.44,0,0,0-.5.5c0,.56.17.73.5.5C447.11,44.79,447.27,44.68,447.27,44.46Zm1-34.14a.51.51,0,0,0-.33-.16c-.23,0-.33.16-.33.5a.45.45,0,0,0,.33.16C448.27,10.82,448.38,10.66,448.27,10.32Zm.67,38.8a1.31,1.31,0,0,1,.58-.16c.17,0,.25-.11.25-.34s-.22-.38-.67-.16c-.55,0-.83.16-.83.5C448.27,49.07,448.49,49.12,448.94,49.12Zm.16,24c-.22-.22-.39-.33-.5-.33l-.33.33c0,.34.11.5.33.5S448.88,73.44,449.1,73.1Zm1-6.49c-.22-.44-.5-.67-.83-.67s-.5.23-.5.67.17.66.5.66A.78.78,0,0,0,450.1,66.61Zm-.66-30.14V36.3h-.34c-.11,0-.16,0-.16.08s.11.09.33.09Zm-.17,64.94c0-.22-.06-.27-.17-.17v.17Zm.83-74.27v.34a.15.15,0,0,0,.17-.17v-.17Zm.5,28.64h.17l.17-.16h-.34Zm.34,29.65h-.17l.17.16Zm.66,16.65c.33.22.5.11.5-.34,0-.22-.06-.33-.17-.33-.33-.33-.5-.27-.5.17C451.21,101.91,451.27,102.08,451.6,102.08Zm1.17-57.45a1,1,0,0,0-.67-.34l-.17.34c0,.33.11.5.34.5A.44.44,0,0,0,452.77,44.63Zm-.34,63.44c.23-.22.17-.33-.16-.33h-.17v.33Zm.17-94.25c.33.22.5.11.5-.33l-.17-.33c-.33-.11-.5-.06-.5.16C452.21,13.65,452.27,13.82,452.6,13.82Zm.17,45a.67.67,0,0,0,.16-.5.47.47,0,0,0-.33-.16.67.67,0,0,0-.17.5C452.66,58.62,452.77,58.67,452.77,58.78Zm.66,11.49c0-.11-.11-.17-.33-.17a.15.15,0,0,1-.17.17l.17.17C453.32,70.66,453.43,70.6,453.43,70.27Zm1.67-4.16a.59.59,0,0,0-.67-.67c-.44.12-.66.34-.66.67a.78.78,0,0,0,.83.66C454.93,66.77,455.1,66.55,455.1,66.11Zm-1-48.63c.33,0,.5-.1.5-.33a.37.37,0,0,0-.08-.25.32.32,0,0,1-.09-.25.44.44,0,0,0-.5.5A.5.5,0,0,1,454.1,17.48Zm3,54.62c-.34,0-.5.12-.5.34q-.35.66.33.66c.33.34.5.28.5-.16A.69.69,0,0,0,457.1,72.1Zm-.17-27a.47.47,0,0,0,.33.16v-.16a.51.51,0,0,0-.16-.34c0,.12,0,.17-.09.17S456.93,45,456.93,45.13Zm1-2a.57.57,0,0,1,.42-.17c.16,0,.19-.11.08-.33a.28.28,0,0,0-.17-.25c-.11-.06-.16,0-.16.08-.45,0-.67.17-.67.5C457.43,43.07,457.6,43.13,457.93,43.13Zm.5,62.94.33-.16c.33-.34.33-.5,0-.5-.11-.11-.28-.06-.5.16a.3.3,0,0,0,.09.25A.37.37,0,0,1,458.43,106.07Zm.5-45.62v-.34c-.22,0-.33.06-.33.17l.16.17Zm0-22.32-.17.17c.11.22.22.28.33.17A.51.51,0,0,0,458.93,38.13Z"/><path d="M90.26,237.76v-4.5a4.14,4.14,0,0,0,0-4.49v-2.5a23.42,23.42,0,0,0,.5-2.83,5.78,5.78,0,0,0-.5-3v-3a5.1,5.1,0,0,0,.66-1.75,1.93,1.93,0,0,0-.66-1.74v-4.5c.33-.22.41-.39.25-.5a.54.54,0,0,1-.25-.5V208c.22-.77.41-1.5.58-2.16a2.62,2.62,0,0,0-.58-2.17v-9a1.26,1.26,0,0,0,0-2v-2c.33-.11.5-.44.5-1,.11-1.66.19-3.35.25-5.07s0-3.42-.09-5.08a21,21,0,0,1-.16-2.58v-2.59a9.2,9.2,0,0,1,1-4.91,35.5,35.5,0,0,0,2-4.58,12.4,12.4,0,0,1,3.92-5.33,33,33,0,0,0,4.74-4.49.69.69,0,0,1,.5-.17,28.56,28.56,0,0,0,5-2.08,10.76,10.76,0,0,1,5.16-1.25h7c0,.33.11.5.34.5a5,5,0,0,1,2.41.25,17.55,17.55,0,0,1,2.25,1.08,7.89,7.89,0,0,0,2.41.92,3.21,3.21,0,0,1,2.09,1.58,8.33,8.33,0,0,1,4.91,2.83c1.16,1.45,2.3,2.94,3.41,4.5a22.68,22.68,0,0,1,2.75,6,37.15,37.15,0,0,1,1.25,6.5,8.3,8.3,0,0,0,.08,1.25,1.23,1.23,0,0,0,.75.91v.5a4.42,4.42,0,0,0-.75,2.08c-.06.73-.08,1.48-.08,2.25a6.67,6.67,0,0,1-1.17,4.08,12.25,12.25,0,0,1-3.16,2.91,1.41,1.41,0,0,1-1.83,0l.16.17a4.56,4.56,0,0,1-3.83,0,5.83,5.83,0,0,1-3.33-2.66,7.48,7.48,0,0,1-.83-4.17,32.86,32.86,0,0,0-.25-4.16,15.77,15.77,0,0,0-1.08-4,11,11,0,0,0-3.5-5.49,11.42,11.42,0,0,0-2.5-2.17,3.86,3.86,0,0,0-3.16-.33h-.83a4.79,4.79,0,0,0-2.75-.17,14.38,14.38,0,0,0-2.58,1,8,8,0,0,0-3,2.42,12.68,12.68,0,0,0-1.58,3,20.35,20.35,0,0,0-.92,3.33,18,18,0,0,1-1,3.41,3.79,3.79,0,0,1,.25,2.83,6.1,6.1,0,0,0-.08,3,46,46,0,0,1,.33,7.82l-.33,8a8.42,8.42,0,0,0,.25,1.91,1.83,1.83,0,0,1-.75,1.92,2.2,2.2,0,0,1,.75,1.75c-.06.61-.08,1.19-.08,1.74a27.78,27.78,0,0,1-.17,5.25,16.52,16.52,0,0,0,.17,5.24q.17.51.33,1.17a2.11,2.11,0,0,1,0,1.17,4.26,4.26,0,0,0-.33,1.58,1.46,1.46,0,0,1-.84,1.25,2.29,2.29,0,0,1,.75,1.41,13.36,13.36,0,0,1,.09,1.59,8.27,8.27,0,0,1,0,2.33c-.12.77-.23,1.61-.34,2.49a18.22,18.22,0,0,0,.17,4.25,18.22,18.22,0,0,1,.17,4.25,15.84,15.84,0,0,0,.5,4.08c.33,1.27.61,2.58.83,3.91a4.67,4.67,0,0,0,1.5,2.83l2.5,2.16a8.27,8.27,0,0,0,6.49,2,8.62,8.62,0,0,0,5.83-2.49,18.33,18.33,0,0,0,5.49-12.66v-2.5a5.16,5.16,0,0,1,1.25-3.66,9.66,9.66,0,0,1,3.08-2.17,3.67,3.67,0,0,1,2.33-.25,12.48,12.48,0,0,1,2.67.84,9.76,9.76,0,0,1,2.41,1.5,4.46,4.46,0,0,1,1.42,1.91,24.53,24.53,0,0,1,.75,6.49q-.09,3.17-.42,6.5a2.62,2.62,0,0,1-.75,1.41,1.92,1.92,0,0,0-.58,1.42,10.8,10.8,0,0,1-1.83,5.74,31,31,0,0,1-3.67,4.42,30,30,0,0,1-5.57,4.66,18.32,18.32,0,0,1-6.92,2.66l-2.66.34a22.23,22.23,0,0,0-2.66.5,15.23,15.23,0,0,1-9.83-1.34c-.44-.22-.86-.44-1.25-.66a13.56,13.56,0,0,0-1.41-.67,11.29,11.29,0,0,1-3.83-2,37.56,37.56,0,0,1-3.33-3,16.33,16.33,0,0,1-2.33-2.92,17.13,17.13,0,0,1-1.67-3.41c-.56-1.55-1.11-3.08-1.67-4.58a17,17,0,0,1-1-4.75,1.81,1.81,0,0,0-.5-1.33v-2a4.68,4.68,0,0,0,.41-2.24,10.1,10.1,0,0,1,.09-2.25C91,238.48,90.81,238,90.26,237.76Zm2.49-12.66-.33.17.17.33c.33.34.5.28.5-.16A.3.3,0,0,0,92.75,225.1Zm.34-15c-.34,0-.5.11-.5.33a.48.48,0,0,0,.33.17c.44,0,.67-.11.67-.34S93.42,210.12,93.09,210.12Zm0-37.8h-.17v.16Zm.5,23.81a.15.15,0,0,1-.17-.17v.34A.15.15,0,0,0,93.59,196.13Zm1.5-19-.17-.17a.15.15,0,0,1-.17.17c0,.33.11.39.34.16Zm.83-4a.69.69,0,0,0-.5-.17.22.22,0,0,0,0,.34c0,.33.11.39.33.16C95.75,173.26,95.81,173.15,95.92,173.15Zm1.5,52.95a.79.79,0,0,0-.67-.83c-.44-.22-.67-.11-.67.33-.22.67,0,1,.67,1C97.19,226.6,97.42,226.44,97.42,226.1Zm-.5,8.66c.44,0,.61-.16.5-.5a.3.3,0,0,0-.34-.33.44.44,0,0,0-.5.5C96.58,234.65,96.69,234.76,96.92,234.76Zm.5-41.13a.52.52,0,0,0-.34-.17v.17l.17.17A.15.15,0,0,0,97.42,193.63Zm0,50.29q-.35,0,0,.33l.16-.16Zm.5-42.63-.17.33c.11.34.28.39.5.17a.48.48,0,0,0,.17-.33.3.3,0,0,1-.25-.09A.37.37,0,0,0,97.92,201.29Zm2-4.83a6,6,0,0,1,.59-.25c.16-.05.19-.25.08-.58a4.49,4.49,0,0,0-.67-.5c-.66,0-1,.22-1,.67S99.36,196.46,99.91,196.46Zm0,53.62a.48.48,0,0,0-.33-.17.51.51,0,0,0-.16.34c0,.11.1.16.33.16A.45.45,0,0,0,99.91,250.08Zm0-50.62q-.33,0,0,.33l.17-.16Zm1.17-9c-.44-.11-.67.05-.67.5,0,.22.06.33.17.33.33.22.61.11.83-.33C101.41,190.63,101.3,190.47,101.08,190.47Zm1.33,73.93c0-.22-.16-.33-.5-.33a.29.29,0,0,0-.33.33c-.33.33-.22.5.33.5C102,264.9,102.19,264.73,102.41,264.4Zm.5-90.09c0-.22-.16-.44-.5-.66a.44.44,0,0,0-.5.5c0,.44.17.66.5.66A.44.44,0,0,0,102.91,174.31ZM102.58,215c-.33,0-.5.11-.5.33s.11.5.33.5.5-.11.5-.34C103.25,215.11,103.13,215,102.58,215Zm.17-45.46-.17.16h.17Zm.33,75.26-.33.34c0,.33.1.39.33.16l.17-.16C103.25,244.86,103.19,244.75,103.08,244.75Zm2.5-86.59c.22,0,.5-.27.83-.83,0-.44-.06-.67-.17-.67-.44,0-.78.28-1,.84A.66.66,0,0,0,105.58,158.16Zm5.32,6.33a.68.68,0,0,0-.16-.5c-.33,0-.5.11-.5.33v.17a.15.15,0,0,0,.17.17C110.51,164.77,110.68,164.71,110.9,164.49Zm1.34-2.5a.51.51,0,0,0-.34-.16h-.16c0,.33.05.5.16.5A.3.3,0,0,0,112.24,162Zm.5-4.49c-.56.22-.84.5-.84.83s0,.41.25.58a1.48,1.48,0,0,0,.75.25c.45,0,.67-.27.67-.83A.73.73,0,0,0,112.74,157.5Zm.16,101.57c-.22,0-.33.06-.33.17v.17q.33.33.33,0Zm1.34,9.49c0-.22-.06-.33-.17-.33s-.11.17,0,.17S114.12,268.56,114.24,268.56Zm3.49-10.49c0-.22-.16-.33-.5-.33a.29.29,0,0,0-.33.33.59.59,0,0,0,.67.67A1,1,0,0,0,117.73,258.07Zm2.67-91.75.16-.17a.14.14,0,0,0-.16-.16c0,.11-.06.16-.17.16A.15.15,0,0,1,120.4,166.32Zm2-8.66c-.22-.22-.39-.27-.49-.16v.16c-.12.11-.06.17.16.17S122.39,157.77,122.39,157.66Zm2.17,109.24c.33-.22.44-.39.33-.5s-.16-.33-.5-.33-.33.16-.33.5C124.28,266.79,124.45,266.9,124.56,266.9Zm1.83-109.57c-.22-.67-.44-1-.66-1-.45,0-.67.17-.67.5a1.86,1.86,0,0,1-.17.83c0,.67.28.89.84.67C126.17,158.33,126.39,158,126.39,157.33Zm-1.16,9-.17.17h.17Zm.66,90.75c-.33.23-.5.45-.5.67a.66.66,0,0,0,.67.33c.55,0,.72-.22.5-.66A.69.69,0,0,0,125.89,257.07Zm0,4.33.17-.16h-.17Zm3.83-97.91c0-.44-.16-.67-.5-.67s-.66.17-.66.5a.59.59,0,0,0,.66.67C129.56,164.21,129.72,164.05,129.72,163.49Zm.67,6c0-.34-.23-.5-.67-.5l-.5.5c0,.44.17.66.5.66A.59.59,0,0,0,130.39,169.49Zm1.83-8.83c0-.22-.17-.28-.5-.17a2.84,2.84,0,0,0-.5.67q-.16.33.33.33C132,161.27,132.22,161,132.22,160.66Zm-.5,92.25a.5.5,0,0,1-.17.34c.11.11.17.11.17,0,.22,0,.33-.06.33-.17A.48.48,0,0,0,131.72,252.91Zm2.83.67a1,1,0,0,0-.33-.67.44.44,0,0,0-.5.5.29.29,0,0,0,.33.33C134.38,254.08,134.55,254,134.55,253.58Zm1.67-10.66c0,.11,0,.17-.09.17s-.08.06-.08.16l.17.17c.11,0,.16,0,.16-.08s.06-.09.17-.09Z"/><path d="M157.53,187.8v-1.5a2.12,2.12,0,0,0,.83-1.83,11.3,11.3,0,0,1-.33-2.74v-4.08a1.6,1.6,0,0,0-.5-1.17V176a8.81,8.81,0,0,0,.58-4.25c-.16-1.38-.36-2.8-.58-4.24v-4.83A3.08,3.08,0,0,0,158,160a9,9,0,0,1,1.18-5.07,9.49,9.49,0,0,1,4.38-3.09l.5-.25a2.37,2.37,0,0,0,.51-.41h2.52a.62.62,0,0,0,.59.5,1.07,1.07,0,0,1,.76.33,13,13,0,0,1,3,2.58,7.34,7.34,0,0,1,1.52,3.58,23.36,23.36,0,0,1,.25,4.33,40.2,40.2,0,0,0,.08,4.5,53.21,53.21,0,0,1-.08,6.57,36.22,36.22,0,0,0,.08,6.58,5.44,5.44,0,0,1-.08,2.08,9.16,9.16,0,0,0-.25,2.09,27.58,27.58,0,0,1,.25,4.74c-.06,1.61-.09,3.19-.09,4.75a8.47,8.47,0,0,0,2.65,6.16,6.44,6.44,0,0,0,2.89,1.25,5.69,5.69,0,0,1,2.89,1.41c.33.34.69.28,1.07-.16a1.64,1.64,0,0,1,1.24-.67h1.49a13.54,13.54,0,0,0,3.72-.5A5.09,5.09,0,0,0,192,199l.33-.33c.22-.56.55-.72,1-.5a.65.65,0,0,0,1-.34c.22-.55.08-.88-.42-1s-.64-.38-.41-.83a8.24,8.24,0,0,0,.16-3.66,10.23,10.23,0,0,1,0-3.66c.11-.89.2-1.72.25-2.5a12.55,12.55,0,0,0-.08-2.5c-.11-1.55-.17-3.16-.17-4.83s0-3.33-.16-5a26.74,26.74,0,0,1,.16-5.16,20.25,20.25,0,0,0,0-5.16,6.37,6.37,0,0,1,.34-4.08c.55-1.27,1.05-2.58,1.5-3.91a.15.15,0,0,0,.16-.17,4.18,4.18,0,0,1,2.25-2c.94-.33,1.86-.61,2.75-.83,2-.67,3.77-.05,5.33,1.83a1.48,1.48,0,0,1,.41.75.75.75,0,0,0,.42.58c1.11.45,1.72,1,1.83,1.75s.22,1.53.33,2.42a11.53,11.53,0,0,1-.5,4.41,5.75,5.75,0,0,0,.5,4.41,7.43,7.43,0,0,0-.25,4.5,11.11,11.11,0,0,1,.25,4.5,26.32,26.32,0,0,0-.08,3.66,16.11,16.11,0,0,1-.25,3.66,16.3,16.3,0,0,0,0,5.66,17.51,17.51,0,0,1,0,8.33,3.11,3.11,0,0,0,0,2,8,8,0,0,1,.17,2.83,12.17,12.17,0,0,0,0,2.83,45.31,45.31,0,0,1-.25,4.66,12.1,12.1,0,0,0,.41,4.66,14.05,14.05,0,0,1,0,5.33,14.42,14.42,0,0,0-.41,2.5,6.38,6.38,0,0,0,.25,2.33,2.51,2.51,0,0,0,.08.67.94.94,0,0,1-.08.67,30,30,0,0,0-.17,5.49,30.05,30.05,0,0,1-.17,5.5,5.93,5.93,0,0,0,.25,2.58,5.76,5.76,0,0,1,.25,2.58,28.64,28.64,0,0,0-.16,7,48.58,48.58,0,0,1,0,5.66,32.43,32.43,0,0,0,.16,5.66,6.7,6.7,0,0,1-.91,4.67,11.12,11.12,0,0,1-3.42,3.16,4.67,4.67,0,0,1-3.66,1,15.25,15.25,0,0,1-3.66-1.17,5.3,5.3,0,0,1-2.42-2.24,8,8,0,0,1-.91-2.75c-.23-1.22-.39-2.44-.5-3.67s-.17-2.44-.17-3.66a30.82,30.82,0,0,1,.25-6,24.1,24.1,0,0,0,.08-6,32.9,32.9,0,0,1,0-4.66q.17-2,.42-4.08a12.28,12.28,0,0,0-.25-4.25,3.43,3.43,0,0,1-.25-1.66,15.56,15.56,0,0,0,.08-1.67,28.45,28.45,0,0,1,0-4.33,6.44,6.44,0,0,0-1.16-4.16,8.54,8.54,0,0,0-3.06-2.91,5.72,5.72,0,0,0-3.87-.75,2.89,2.89,0,0,1-1.41.25c-.38-.06-.85-.14-1.4-.25a7.82,7.82,0,0,0-5.28.5,8.36,8.36,0,0,0-3.8,3.49,4.71,4.71,0,0,0-.5,2.83q.33,3.17.5,6.33a20.69,20.69,0,0,1-.66,6.33,3,3,0,0,0,0,2,6.76,6.76,0,0,1-.5,6.33.92.92,0,0,1-.34.41c-.11.06-.05.14.17.25.89.34,1.27.78,1.16,1.33a8.66,8.66,0,0,0-.16,1.67c-.23,1.56-.42,3.08-.58,4.58a14,14,0,0,0,.25,4.58,9.7,9.7,0,0,1,.25,2.83,10.87,10.87,0,0,0,.24,3,2,2,0,0,1-.24,1.49c-.28.45-.59.89-.92,1.34a9.49,9.49,0,0,1-2.87,2.91c-1.12.72-2.24,1.42-3.36,2.08H164.6a1,1,0,0,0-.67-.33,10.14,10.14,0,0,0-2.19-1.08,3,3,0,0,1-1.68-1.25c-.57-.78-1.07-1.53-1.52-2.25a8.13,8.13,0,0,1-1-2.58v-.33a3.22,3.22,0,0,0,.5-2.58,4.33,4.33,0,0,1,0-2.42,5.81,5.81,0,0,0,.16-2.33,9.61,9.61,0,0,0-.66-2.17v-2q1.33-1.33,0-3v-.5a12.51,12.51,0,0,0,.5-4.41c-.11-1.39-.28-2.86-.5-4.42v-2a6.86,6.86,0,0,0,.66-3.33,13.19,13.19,0,0,0-.66-4.17v-1a.76.76,0,0,0,.5-.83v-7.49a1.12,1.12,0,0,0-.5-1v-6c.22-.44.22-.77,0-1v-1a2.07,2.07,0,0,0,0-2.49v-4a6.82,6.82,0,0,0,.58-3.16,8.37,8.37,0,0,1,.42-3.17,1.94,1.94,0,0,0-1-2.49v-4a2.75,2.75,0,0,0,.58-2.25C158,189.33,157.75,188.58,157.53,187.8Zm2.16-7.49v-.17c-.11-.11-.27,0-.5.17l.17.17C159.58,180.48,159.69,180.42,159.69,180.31Zm-.5,58.78v.33h.17v-.16Zm1,18.32-.16-.34c-.34,0-.5.12-.5.34l.16.33C160,258,160.19,257.85,160.19,257.41Zm.5-30.31h-.16l-.17.17h.17Zm.5,26q-.66,0-.33.33c0,.11.11.28.33.5.11-.11.19-.17.25-.17s.14-.1.25-.33S161.53,253.08,161.19,253.08Zm0-44.8c0-.22-.06-.27-.16-.16v.16Zm1,1.67a1.11,1.11,0,0,1-.75.08c-.28-.05-.41.09-.41.42s.27.5.83.5a1.11,1.11,0,0,1,.75-.08c.27,0,.41-.09.41-.42s.06-.5-.16-.5Zm-.33,15c-.23-.11-.45,0-.67.33a.66.66,0,0,0,.5.67c.33,0,.5-.11.5-.34S162.19,225.16,161.86,224.94Zm.33-52.29v-.17c0-.22-.06-.33-.17-.33l-.16.17Zm.5,23.48c-.11,0-.17,0-.17-.08s-.05-.09-.16-.09a.32.32,0,0,1-.09.25.37.37,0,0,0-.08.25q0,.34.33,0C162.63,196.46,162.69,196.35,162.69,196.13Zm1,22.15a.21.21,0,0,0-.33,0,.14.14,0,0,0,.16.16C163.63,218.44,163.69,218.39,163.69,218.28Zm.17-40.8c.33.22.5.11.5-.33a.3.3,0,0,0-.34-.34c-.11-.11-.28-.05-.5.17C163.52,177.31,163.63,177.48,163.86,177.48Zm-.17,21.31-.17.17c0,.33.11.39.34.17H164Zm1-25.14.5-.5a.44.44,0,0,0-.5-.5c-.33,0-.5.22-.5.67C164.19,173.54,164.36,173.65,164.69,173.65Zm.33,34.47a.47.47,0,0,1-.33.16l.17.17c.1,0,.16,0,.16-.08s.06-.09.17-.09A.15.15,0,0,0,165,208.12Zm1.5,17.65a1,1,0,0,0-.83-.5c-.45-.22-.67-.05-.67.5a.73.73,0,0,0,.83.83C166.3,226.6,166.52,226.33,166.52,225.77Zm-.33,9q.66,0,.33-.66c0-.23-.17-.34-.5-.34a1,1,0,0,0-.5.84A.55.55,0,0,0,166.19,234.76Zm0-17c.11-.11.05-.28-.17-.5-.11,0-.17.05-.17.16v.34Zm-.17,34.8v-.17h-.17Zm.5-58.62c.11,0,.17-.11.17-.33a.5.5,0,0,0-.34-.17c-.22,0-.27.06-.16.17Zm0,50.13c0-.11-.06-.11-.17,0Zm1-42.3c0-.44-.17-.67-.5-.67a.3.3,0,0,0-.33.34c-.23.44-.06.66.5.66a.14.14,0,0,0,.16-.16Zm1.33-45c-.22-.33-.39-.44-.5-.33a.29.29,0,0,0-.33.33c0,.44.17.56.5.33A.29.29,0,0,0,168.85,156.83Zm0,39.8c.56-.22.83-.44.83-.67.11-.55-.16-.83-.83-.83s-.83.22-.83.67S168.3,196.41,168.85,196.63Zm0,53.62a.47.47,0,0,1-.16-.34l-.34.34.17.16C168.52,250.53,168.63,250.47,168.85,250.25Zm-.33-50.79a.15.15,0,0,1,.17.17.14.14,0,0,0,.16.16c.34.23.5.11.5-.33,0-.11-.11-.28-.33-.5S168.74,199,168.52,199.46Zm1-8.49c0,.44.16.55.5.33.22,0,.33-.17.33-.5l-.17-.33C169.41,190.47,169.19,190.63,169.52,191Zm1.16,11.65c-.11,0-.16.06-.16.17s.16.06.16.17v-.34Zm.17,62.28a.29.29,0,0,0,.33-.33c.11-.11.06-.28-.16-.5s-.28-.06-.5.17A.67.67,0,0,0,170.85,264.9Zm1.5-49.62c-.22-.33-.45-.5-.67-.5a.58.58,0,0,0-.66.66c.22.45.5.67.83.67A.77.77,0,0,0,172.35,215.28Zm-.67-41-.33-.16c-.33,0-.39.11-.17.33,0,.11.11.17.34.17,0-.11,0-.17.08-.17S171.68,174.43,171.68,174.31Zm.67,33.14a.37.37,0,0,0-.08-.25.32.32,0,0,1-.09-.25l-.33.17c-.22.33-.17.5.17.5A.48.48,0,0,1,172.35,207.45Zm2.16-2.16c0-.22-.16-.44-.5-.67-.44,0-.66.17-.66.5a.67.67,0,0,0,.33.83C174,206.06,174.29,205.84,174.51,205.29Zm13.82,9.49a.44.44,0,0,0,.5-.5c0-.33-.27-.5-.83-.5-.33,0-.5.11-.5.33A1.75,1.75,0,0,0,188.33,214.78Zm2.84-.17c0-.33-.12-.5-.34-.5-.33-.22-.61-.11-.83.34s-.06.66.5.66C190.72,215.22,190.94,215.06,191.17,214.61Zm.83-10.32a1.57,1.57,0,0,0-1-.83c-.67,0-.89.27-.67.83a.84.84,0,0,0,1.67,0Zm1.83-4a.6.6,0,0,0-.67.67c.23.44.45.66.67.66.44,0,.67-.27.67-.83C194.5,200.46,194.27,200.29,193.83,200.29Zm3.16,6.5a.72.72,0,0,1,.67,0c.22.11.33,0,.33-.34,0-.66-.44-1.11-1.33-1.33a2.57,2.57,0,0,0-1.16-.08,1.24,1.24,0,0,0-1,.75c-.23.44-.12.64.33.58a1.15,1.15,0,0,1,1,.25.49.49,0,0,0,.5.08A1,1,0,0,1,197,206.79Zm-1.66,50.78c-.11-.22-.33-.27-.67-.16l-.16.33c.22.33.44.39.66.17C195.27,257.91,195.33,257.8,195.33,257.57Zm.17-40.13h-.17l.17.34Zm1.16,10.83h.17c.11,0,.16-.06.16-.17s-.05-.33-.16-.33-.28-.06-.5.16C196.33,228.16,196.44,228.27,196.66,228.27Zm1.17-3.17a.79.79,0,0,0-.67.84c0,.33.11.5.33.5.56.22.84,0,.84-.67C198.33,225.55,198.16,225.33,197.83,225.1Zm1-61.78a1,1,0,0,0-.67-.33q-.33-.33-.33.33c0,.56.16.73.5.5A.44.44,0,0,0,198.83,163.32ZM198,194.46c.22,0,.34-.05.34-.16.22-.22.16-.34-.17-.34H198l-.16.17c0,.11,0,.17.08.17S198,194.35,198,194.46Zm.5-39a.48.48,0,0,0-.33-.17l-.17.17.17.33Zm.34,13.49c-.34.22-.5.44-.5.66s.11.5.33.5c.44,0,.67-.17.67-.5S199.27,169.21,198.83,169Zm0,33-.34-.34-.16.17.33.33Zm1.66,8.16c0-.56-.22-.84-.67-.84-.55-.22-.83,0-.83.67s.28,1.17.83,1.17S200.49,210.78,200.49,210.12Zm-1,23.31a.69.69,0,0,0,.5-.17c0-.33-.06-.5-.17-.5s-.27,0-.49.17A.68.68,0,0,0,199.49,233.43Zm0-36v.17h.33q.17,0,.09-.09a.37.37,0,0,0-.25-.08Zm.33-7.16c-.11-.11-.16-.05-.16.17v.16l.16-.16Zm1.34,63.11c0-.33-.12-.5-.34-.5l-.33.17c-.22.33-.11.5.33.5.11,0,.17,0,.17-.09S201,253.41,201.16,253.41Zm-.34-92.08c.45-.23.61-.45.5-.67s-.16-.33-.5-.33a1,1,0,0,0-.33.66C200.38,161.22,200.49,161.33,200.82,161.33Zm.34,42,.33-.17c0-.22-.06-.33-.17-.33a.48.48,0,0,0-.33.17A.48.48,0,0,1,201.16,203.29Zm2-7.49c.55,0,.83-.23.83-.67a1,1,0,0,0-.5-.83.73.73,0,0,0-.83.83A.65.65,0,0,0,203.16,195.8Zm-.34,20.14c-.11,0-.16.06-.16.17a.21.21,0,0,0,.33,0v-.17ZM204,224.6c0-.33-.23-.5-.67-.5s-.72.23-.5.67a.44.44,0,0,0,.5.5C203.76,225.05,204,224.83,204,224.6Zm-.83,28.31-.34.34.17.33c.33.22.5.11.5-.33ZM205.32,190c0-.45-.11-.67-.33-.67s-.45.22-.67.67q0,.66.33.66C204.88,190.63,205.1,190.41,205.32,190Zm.5,27.64c0-.22-.17-.33-.5-.33l-.5.5c0,.33.22.5.67.5A.68.68,0,0,0,205.82,217.61Zm-.33,25.64v-.16l-.17-.17a.48.48,0,0,1-.33.17c0,.22,0,.33.16.33C205.37,243.64,205.49,243.59,205.49,243.25Zm-.34-36.3a1.31,1.31,0,0,0,1.17,1.5c.77.23,1.05,0,.83-.66,0-.67-.5-1.23-1.5-1.67C205.32,206,205.15,206.29,205.15,207Zm.84,9.33a.78.78,0,0,0,.5-.84c0-.33-.23-.49-.67-.49s-.67.16-.67.49S205.43,216.06,206,216.28Zm1-17.65.16-.17H207Zm0,44.62v.34c.22.22.33.16.33-.17v-.17Zm.66-42.13c-.11,0-.17,0-.17-.08s0-.08-.16-.08-.11.16,0,.16a.47.47,0,0,0,.16.34A.48.48,0,0,0,207.65,201.12Z"/><path d="M242.12,215.28v2c-.33.11-.5.44-.5,1a32.44,32.44,0,0,0-.17,5.66c.11,1.89.17,3.77.17,5.66,0,.56.17.89.5,1v2c-.22.44-.42.86-.58,1.25s0,.8.58,1.24v2.5a10.59,10.59,0,0,0,0,7.83v2a6.17,6.17,0,0,0-.67,2.83v3q0,2.33.09,4.74a46.78,46.78,0,0,1-.09,4.75,5.91,5.91,0,0,1-2.66,5.16,19.47,19.47,0,0,1-2.25,1.41,22.83,22.83,0,0,0-2.25,1.42H231.8a1.58,1.58,0,0,0-.75-.42,2.45,2.45,0,0,1-.75-.25,8.27,8.27,0,0,1-3.75-2.16,7.71,7.71,0,0,1-1.08-4.16v-1.09a1,1,0,0,0-.67-.91v-1.5a3.84,3.84,0,0,0,0-4.33v-2a4.1,4.1,0,0,0,0-4.49v-2c.56-.22.81-.56.75-1a8.62,8.62,0,0,1-.08-1.17c-.11-1.55-.2-3.05-.25-4.49a23.93,23.93,0,0,1,.25-4.5c0-.67-.23-1-.67-1.17V233.6a3.32,3.32,0,0,0,.5-2.83,30.39,30.39,0,0,1-.08-3.92c.05-1.27.08-2.58.08-3.91a3.79,3.79,0,0,1,.17-1.17c.11-.33.5-.5,1.16-.5.45,0,.67-.33.67-1a.48.48,0,0,0-.17-.33.21.21,0,0,0-.33,0c-.56.11-.92.08-1.08-.08a1.3,1.3,0,0,1-.34-.67c0-.27-.11-.55-.16-.83a.79.79,0,0,0-.42-.58v-1.5a6.82,6.82,0,0,0,.5-3.25c-.11-1.05-.28-2.14-.5-3.25v-1.5a4,4,0,0,0,.58-2.91,5.75,5.75,0,0,1,.25-2.91c.34-.56.06-.94-.83-1.17V199a2.9,2.9,0,0,0,0-3.5V193c1-1.11,1-2.45,0-4v-6.5q1.33-2.82,0-4.82v-3.5c.78-1,.78-1.83,0-2.5v-1.5a7.71,7.71,0,0,0,.75-4.24,41.72,41.72,0,0,0-.75-4.25v-3.83a4.15,4.15,0,0,0,2.17-2.17,3.44,3.44,0,0,1,3.16-2.66H231c.34,0,.61-.22.84-.67h2a1.74,1.74,0,0,0,.84.67,9.13,9.13,0,0,1,6.82,6.16,1.5,1.5,0,0,1,.25,1.08.9.9,0,0,0,.42.92v1.5a6,6,0,0,1-.33.58,1,1,0,0,0-.17.58c0,1.56,0,3.14.08,4.75a29.13,29.13,0,0,1-.25,4.91,1.57,1.57,0,0,1-.41-.25,2.46,2.46,0,0,0-.42-.25.28.28,0,0,0-.25.17c-.06.11,0,.17.08.17h.84a1.6,1.6,0,0,1,.5,1.16,2.08,2.08,0,0,0,.33,1.17v2q-.84,1.15,0,1.83v6a4.54,4.54,0,0,0,0,5V192a1.7,1.7,0,0,0-.92,1.58c.06.61.14,1.19.25,1.75a13.85,13.85,0,0,1,.34,3v3.17c-.12,1.33-.17,2.69-.17,4.08v5a.93.93,0,0,0,.5.75v3A.84.84,0,0,0,242.12,215.28Zm-15.49,45-.33-.17-.17.17c0,.11,0,.17.09.17s.08,0,.08.16Zm.84-53.12c0-.11,0-.17.08-.17s.08,0,.08-.16c-.22-.11-.39-.11-.5,0V207c.11,0,.17,0,.17.09S227.35,207.12,227.47,207.12Zm1.66-18.48c0-.45-.22-.56-.66-.34-.45,0-.67.28-.67.84,0,.33.22.49.67.49A.88.88,0,0,0,229.13,188.64Zm-1,42.13c0,.11,0,.16-.08.16s-.08.06-.08.17l.16.16c.11,0,.17,0,.17-.08s0-.08.17-.08Zm1.33,27c-.33-.22-.55-.27-.66-.17l-.17.34c.11.22.33.28.67.16A.49.49,0,0,1,229.46,257.74Zm1.67-25.14c-.22-.34-.45-.5-.67-.5a2.2,2.2,0,0,0-1.08.66c-.5.45-.69.73-.58.84,0,.33.11.39.33.16a1.13,1.13,0,0,1,1-.5A1.07,1.07,0,0,0,231.13,232.6Zm-1.5-32.47-.33-.34H229a.32.32,0,0,0,.09.25.37.37,0,0,1,.08.25.33.33,0,0,0,.25-.08A.33.33,0,0,1,229.63,200.13Zm0,14.32-.17.16c0,.34.11.39.34.17v-.17C229.69,214.61,229.63,214.56,229.63,214.45Zm1,5.32a.15.15,0,0,0-.17-.16l-.16.16v.17C230.52,220.16,230.63,220.11,230.63,219.77Zm1.66-58.28a1.13,1.13,0,0,1-.33-.83c0-.33-.11-.5-.33-.5s-.39,0-.5.33a2.83,2.83,0,0,0-.17.84.46.46,0,0,0,.09.58.77.77,0,0,0,.58.25A.59.59,0,0,0,232.29,161.49Zm-.16,78.1c0-.44-.11-.67-.33-.67s-.5.06-.5.5v.5c0,.12,0,.17.16.17C231.9,240.2,232.13,240,232.13,239.59Zm1.33-29.14c0-.33-.11-.5-.33-.5-.34.22-.5.39-.5.5-.34.33-.28.5.16.5S233.46,210.78,233.46,210.45Zm-.17-55.29-.16.17c0-.33-.06-.5-.17-.5V155A.47.47,0,0,0,233.29,155.16Zm.67,42a1.08,1.08,0,0,0-.67,1c.23.44.45.61.67.5a.8.8,0,0,0,.67-.84A.59.59,0,0,0,234,197.13Zm-.33,26.14v-.17c-.23-.22-.34-.16-.34.17l.17.33A.47.47,0,0,0,233.63,223.27Zm.5-37.63a.65.65,0,0,0,.5-.67c0-.44-.17-.66-.5-.66-.67,0-.89.27-.67.83C233.46,185.47,233.68,185.64,234.13,185.64Zm.5-12.82-.17-.17c-.22-.22-.33-.17-.33.17,0,.11.11.16.33.16C234.46,172.87,234.51,172.82,234.63,172.82Zm.33,63.44-.17-.33c-.33-.11-.5,0-.5.33l.17.33C234.57,236.59,234.74,236.48,235,236.26Zm.67,3-.17-.34c-.33-.11-.5,0-.5.34s0,.33.17.33S235.51,239.59,235.63,239.26Zm0-58.62c0-.11.1-.27.33-.5,0-.33-.17-.44-.5-.33s-.33.17-.33.5C234.9,180.53,235.07,180.64,235.63,180.64Zm-.17,43.63v-.17a.21.21,0,0,0-.33,0c-.12.12-.12.17,0,.17Q235.13,224.6,235.46,224.27Zm.33,32.8c-.33,0-.5.12-.5.34v.33a.15.15,0,0,0,.17.17.93.93,0,0,0,.66-.34C236.12,257.24,236,257.07,235.79,257.07Zm.5-30.13v.16q0,.68.33,0l-.16-.16Zm1.17,26.64a.33.33,0,0,0-.09-.25.37.37,0,0,1-.08-.25.44.44,0,0,0-.5.5l.17.33C237.29,253.91,237.46,253.8,237.46,253.58Zm1.33-43.13a.44.44,0,0,0-.5-.5.93.93,0,0,1-.67.08.7.7,0,0,0-.66.25.44.44,0,0,0,.5.5A1.94,1.94,0,0,0,238.79,210.45Zm-.67,15c0-.11-.11-.28-.33-.5-.33,0-.5.11-.5.33s.11.5.33.5S237.9,225.77,238.12,225.44Zm.17-29.31h-.17c-.22.22-.22.39,0,.5a.15.15,0,0,0,.17-.17Q238.62,196.46,238.29,196.13ZM238,172.32v.16l.33-.16Zm1.83,5c.11,0,.17-.11.17-.33l-.17-.17-.33.34c.1,0,.16,0,.16.08S239.68,177.31,239.79,177.31Z"/><path d="M256.44,235.43v-4.5a2,2,0,0,0,.66-1.83,5.1,5.1,0,0,1,0-1.83,1.56,1.56,0,0,0,0-1,1.56,1.56,0,0,1,0-1c.23-.55.31-.86.25-.92a5.57,5.57,0,0,0-.91-.41v-1.5a5.93,5.93,0,0,0,0-6.33v-2.5c.77-.77.77-1.44,0-2v-4c.66-.67.89-1.28.66-1.83a5,5,0,0,1-.16-2.17,7.1,7.1,0,0,0,0-2.16,8.55,8.55,0,0,1,.08-2.67,3.14,3.14,0,0,0-.58-2.49v-8a1.75,1.75,0,0,0,.91-1.66c-.05-.67-.08-1.28-.08-1.83-.22-2.22-.33-4.42-.33-6.58s-.06-4.36-.17-6.58v-1a1.8,1.8,0,0,1,.33-1c.56-.55.61-.83.17-.83s-.72-.11-.83-.33v-2a1.64,1.64,0,0,0,0-2.5v-1a7.93,7.93,0,0,0,.5-5.16,2.62,2.62,0,0,1,.33-1.83,9.89,9.89,0,0,1,2.67-3.17,8.29,8.29,0,0,1,1.58-.75,3.55,3.55,0,0,0,1.41-.91h2.5a5.88,5.88,0,0,0,3.33.66,20.58,20.58,0,0,0,3.5-.66h2q1,1.17,2.49,0h6a1.8,1.8,0,0,0,1.33.5,33,33,0,0,1,5.25.75,17.75,17.75,0,0,1,4.91,1.91q2.33,1.5,4.49,3a10.82,10.82,0,0,1,3.5,4.16,6.58,6.58,0,0,0,1.67,2.17,15.22,15.22,0,0,1,3.16,7.16c.22,1.55.47,3.14.75,4.74a9.92,9.92,0,0,1-.42,4.92,6.34,6.34,0,0,0,.09,3.66,7.48,7.48,0,0,1,.25,3.66,18.59,18.59,0,0,0-.25,4c0,1.33.08,2.61.08,3.83q-.17,3.17-.33,6.24a22.87,22.87,0,0,1-1.17,6.08,21.44,21.44,0,0,1-9.82,12,28.35,28.35,0,0,1-6.58,2.91,21.94,21.94,0,0,1-7.41.92,9.48,9.48,0,0,0-5.66,1.67,20.18,20.18,0,0,0-4.17,4,5,5,0,0,0-.74,1.42,1.83,1.83,0,0,0,.24,1.58,1.23,1.23,0,0,1,0,1.5,2.84,2.84,0,0,0,0,2.66,4,4,0,0,1,.34,1.5,7.74,7.74,0,0,1-.17,1.5,12.3,12.3,0,0,0-.33,4c.11,1.33.16,2.66.16,4s.06,2.67.17,4a22.26,22.26,0,0,1,0,3.83c-.11,1.56-.19,3-.25,4.5s-.19,2.94-.41,4.49a7.18,7.18,0,0,1-1.59,4.16q-1.24,1.33-4.74,1.84a8,8,0,0,1-3-.25,5.58,5.58,0,0,1-2.5-1.42,22.31,22.31,0,0,1-2.08-2c-.72-.77-.75-1.77-.08-3,.22-.22.16-.39-.17-.5a2.77,2.77,0,0,0-.83-.17v-.5a3.75,3.75,0,0,0,.66-2.5,12.24,12.24,0,0,0-.66-2.5v-1.83c.77-.55.77-1.22,0-2v-2.49a12.83,12.83,0,0,0,.66-4.92c-.11-1.6-.27-3.24-.5-4.91a.14.14,0,0,1-.16-.16v-2.5a1.65,1.65,0,0,0,.58-1.67C256.85,236.54,256.66,236,256.44,235.43Zm1.66-38.14.34-.33-.17-.17c-.22-.22-.33-.16-.33.17A.49.49,0,0,1,258.1,197.29Zm.5,56.79c.34,0,.5-.11.5-.34a.29.29,0,0,0-.33-.33c-.33-.11-.5,0-.5.33C258.05,254,258.16,254.08,258.6,254.08Zm0-69.77c0,.11.11.16.34.16a.14.14,0,0,0,.16-.16c0-.34-.11-.39-.33-.17A.15.15,0,0,0,258.6,184.31Zm1.17,7c.33,0,.5-.11.5-.33l-.17-.34a.54.54,0,0,0-.66.17C259.44,191.13,259.54,191.3,259.77,191.3Zm-.17,33.14v.16h.17Zm1.5,17.48a.33.33,0,0,0-.25.09.37.37,0,0,1-.25.08.37.37,0,0,0,.08.25.33.33,0,0,1,.09.25l.33-.17C261.21,242.31,261.21,242.15,261.1,241.92Zm.83-84.92a1.25,1.25,0,0,1-.16-.5c0-.11-.11-.17-.34-.17-.44,0-.66.17-.66.5,0,.56.22.83.66.83S261.93,157.44,261.93,157Zm.17,23a.68.68,0,0,1-.5.16.36.36,0,0,0,.08.25.33.33,0,0,1,.09.25l.33-.16Zm.17,57.45-.17-.17v.33Zm1.16-3.83a.44.44,0,0,0-.5.5.78.78,0,0,0,.84.5c.22-.23.33-.39.33-.5C264.1,233.54,263.87,233.37,263.43,233.6Zm1.83-36.14c0-.33-.27-.5-.83-.5-.56-.22-.83-.05-.83.5-.22.67-.06,1,.5,1S264.93,198.13,265.26,197.46Zm-1-10.32c-.23.11-.34.19-.34.25a.54.54,0,0,1-.16.25c0,.44.1.55.33.33a1,1,0,0,0,.66-.33c0-.22-.05-.34-.16-.34A.45.45,0,0,1,264.27,187.14Zm.49-33.31c-.22-.22-.39-.33-.49-.33s-.34.11-.34.33c0,.56.17.67.5.34Zm-.49,3.33-.34.34.17.33c.33,0,.5-.11.5-.33Zm1,103.74c0-.44-.16-.66-.5-.66s-.66.17-.66.5.17.66.5.66S265,261.35,265.26,260.9Zm.67-26.3a1,1,0,0,0-.5-.84c-.22-.11-.44.06-.67.5,0,.45.17.67.5.67S265.71,234.93,265.93,234.6Zm-.33-63.28-.34-.34c-.22,0-.27.12-.16.34l.16.16A.49.49,0,0,0,265.6,171.32Zm0,45.29a1,1,0,0,0-.5.83c0,.56.16.89.5,1s.66-.16.66-.5A1.19,1.19,0,0,0,265.6,216.61Zm-.34-27.47c0,.33.11.49.34.49s.44,0,.66-.33.11-.61-.33-.83C265.71,188.47,265.49,188.69,265.26,189.14Zm2,4.49a1.81,1.81,0,0,0-.66-.83.68.68,0,0,1-.09.33.8.8,0,0,0-.08.33c0,.45.11.67.33.67A.44.44,0,0,0,267.26,193.63Zm.5,16.15c0-.44-.16-.66-.5-.66s-.66.16-.66.5.16.66.5.66S267.76,210.12,267.76,209.78Zm-1.16,45.13c0,.44.11.67.33.67a.44.44,0,0,0,.5-.5c0-.34-.11-.5-.33-.5s-.34,0-.34.16S266.71,254.91,266.6,254.91Zm2.49-33a1.35,1.35,0,0,1,.67-.25,2.81,2.81,0,0,0,.83-.25,1.47,1.47,0,0,0,.84-1.5q-.35-.66-1.5-.33a1.72,1.72,0,0,1-1.67.16,1.85,1.85,0,0,0-1,.34.67.67,0,0,0-.33.83C266.93,221.83,267.65,222.16,269.09,221.94Zm-1.33,2.5a.47.47,0,0,1,.33-.67.47.47,0,0,0,.34-.67c0-.33-.17-.44-.5-.33a1.2,1.2,0,0,0-.67,1.17A.44.44,0,0,0,267.76,224.44Zm-.16-7.16c.33-.11.49-.39.49-.84a.51.51,0,0,0-.33-.16q-.66,0-.33.66c0,.12,0,.17.08.17S267.6,217.17,267.6,217.28Zm0-12.16h.16l-.16-.17Zm1,26.31v-.17l-.33.34c0,.11.06.16.17.16S268.59,231.65,268.59,231.43Zm0-23.81v-.17c-.11,0-.16.06-.16.17s.16.06.16.17Zm.84-48.13a.43.43,0,0,1-.17-.33.29.29,0,0,0-.33.33c-.23.23-.11.34.33.34A.48.48,0,0,0,269.43,159.49Zm.5,43.3c0-.11-.17-.28-.5-.5a.44.44,0,0,0-.5.5c0,.56.16.72.5.5A.44.44,0,0,0,269.93,202.79Zm.16-37.63-.16-.34h-.17l.17.34Zm.5,95.08-.33-.33-.17.16c0,.11,0,.17.09.17s.08.06.08.17.17,0,.17-.09S270.48,260.24,270.59,260.24Zm.67-53.79c-.33,0-.5.11-.5.34a.37.37,0,0,0,.08.25.32.32,0,0,1,.09.25.66.66,0,0,0,.66-.34C271.59,206.84,271.48,206.68,271.26,206.45Zm21.31-29.14a12.46,12.46,0,0,0-1.75-6.24,7.86,7.86,0,0,0-4.41-3.92,14.94,14.94,0,0,0-9.82,0,6.29,6.29,0,0,0-3.83,2.5,7.84,7.84,0,0,0-.67,4.83,9,9,0,0,1,.25,2.75,18.07,18.07,0,0,1-.42,2.91,5.55,5.55,0,0,1-.08,1,2,2,0,0,0,.08,1,5.49,5.49,0,0,1,.34,2.67,22.61,22.61,0,0,1-.5,2.66,16,16,0,0,0-.25,1.67,5.45,5.45,0,0,0,.08,1.66,24.44,24.44,0,0,1,.33,4v3.83a26.65,26.65,0,0,1,.17,2.91,7.87,7.87,0,0,0,.5,2.75c.78,2.22,1.67,3.64,2.67,4.24s2.66.75,5,.42a1,1,0,0,1,.67-.17,8.22,8.22,0,0,0,4.83-.41,14.05,14.05,0,0,0,4-2.58,7,7,0,0,0,1.92-2.58,18.63,18.63,0,0,0,.91-2.92,31.56,31.56,0,0,0,.09-6,30.85,30.85,0,0,1,.08-6,20.53,20.53,0,0,0-.08-5.49A20.19,20.19,0,0,1,292.57,177.31Zm-18.65,37.3-.33-.16a.48.48,0,0,0-.17.33c0,.33.11.39.34.17A.49.49,0,0,0,273.92,214.61Zm.84,5c-.12-.34-.28-.39-.5-.17-.23,0-.34.11-.34.33,0,.45.17.56.5.34C274.64,220.11,274.76,219.94,274.76,219.61Zm1-57.45a3.72,3.72,0,0,0,.67-.42c.22-.16.22-.3,0-.41a.66.66,0,0,1-.33-1c.22-.45,0-.61-.67-.5-.44,0-.66.19-.66.58v1.08C274.76,161.94,275.09,162.16,275.75,162.16Zm-.66,52.45c-.11,0-.17.17-.17.5s.11.45.34.33a.45.45,0,0,0,.16-.33C275.42,214.78,275.31,214.61,275.09,214.61Zm2.5-59.94c-.23-.45-.39-.67-.5-.67a.59.59,0,0,0-.67.67c.22.44.44.66.67.66S277.59,155.11,277.59,154.67Zm-.84,55.61-.16.34c0,.11.11.16.33.16s.17-.11.17-.33S277,210.28,276.75,210.28Zm1,12.16a1,1,0,0,0-.5.83.15.15,0,0,0,.17.17h.17A2.36,2.36,0,0,1,277.75,222.44Zm-.16-9.66-.17.33h.17Zm2-55.95c.34-.33.5-.44.5-.33a.41.41,0,0,0,0-.67c-.22-.11-.3-.08-.25.08a.76.76,0,0,1-.08.59c-.11,0-.17.11-.17.33v0Zm1.84,53.95c0-.11,0-.16.08-.16s.08-.06.08-.17-.11-.17-.33-.17l-.17.17Zm-.17,4h-.17l.17.17Zm2,3.66.16-.16c0-.11-.05-.17-.16-.17a.15.15,0,0,1-.17.17C283.19,218.28,283.25,218.33,283.25,218.44Zm2.66-1.16-.16.16c0,.12.05.17.16.17v-.33Zm3-60.62c0-.33-.22-.5-.67-.5-.33.23-.5.45-.5.67,0,.56.22.72.67.5C288.74,157.33,288.91,157.11,288.91,156.66Zm.5,4.67c0,.22,0,.33.17.33a.47.47,0,0,0,.16-.33c0-.11-.11-.17-.33-.17Zm2.5,53.95c0-.33-.23-.5-.67-.5-.22,0-.33.17-.33.5s.16.66.5.66S291.91,215.72,291.91,215.28Zm2.16-10.16a.67.67,0,0,0-.66-.33.53.53,0,0,0-.17.66c0,.45.17.56.5.34A1,1,0,0,0,294.07,205.12Zm1.17-47.79c0-.44-.17-.61-.5-.5a.65.65,0,0,0-.67.5c-.11.22,0,.44.33.67C294.74,158,295,157.77,295.24,157.33Zm1,26.14c0-.44-.23-.61-.67-.5-.22,0-.33.17-.33.5,0,.56.22.73.66.5C296.24,184,296.35,183.81,296.24,183.47Zm1.83-7.16a5.47,5.47,0,0,1,.83-.66q.5-.33,0-1.17c-.11-.22-.33-.27-.67-.17-.55.34-.69.7-.41,1.09a2,2,0,0,1,.41,1.08c-.22.11-.39.14-.49.08s-.17,0-.17.25Zm.33,2.33a.52.52,0,0,0-.33-.49.5.5,0,1,0,0,1C298.29,179.14,298.4,179,298.4,178.64Zm0-7.82-.17.16c-.11.12-.11.17,0,.17s0,.17.09.17.08-.06.08-.17Zm.83,21.81c0-.22-.16-.33-.5-.33s-.33.17-.33.5a.29.29,0,0,0,.33.33A.44.44,0,0,0,299.23,192.63Zm.67-28.31a.44.44,0,0,0-.5-.5c-.33,0-.5.12-.5.34,0,.55.17.72.5.5C299.73,164.66,299.9,164.55,299.9,164.32Zm0,17.32h.17l.16-.16h-.33Zm2.5,19.82c0-.78-.23-1.17-.67-1.17-.89-.22-1.22.11-1,1a3.63,3.63,0,0,0,.17.92.67.67,0,0,0,.67.58.54.54,0,0,0,.58-.5A2.81,2.81,0,0,1,302.4,201.46Zm-1.5-39.63a.48.48,0,0,0-.17.33.15.15,0,0,0,.17-.17Zm-.17,12,.34.17.33-.17q.17-.33-.33-.33Zm3.33,17c0-.22-.05-.33-.16-.33s-.34,0-.34.33l.34.33c0-.11,0-.16.08-.16S304.06,190.91,304.06,190.8Z"/><path d="M347.52,151.17h2c.11.33.28.33.5,0h.5a4.05,4.05,0,0,0,3,1.16,9,9,0,0,1,4.08,1.25,16.91,16.91,0,0,0,3.75,1.75c.55.23.83.78.83,1.67,0,.33.22.39.66.16a1.42,1.42,0,0,1,1.17.17c.89.89,1.75,1.78,2.58,2.66s1.64,1.84,2.42,2.83a14.14,14.14,0,0,1,2,4.83,25.05,25.05,0,0,0,1.5,4.83,1,1,0,0,1,.09.67,2.5,2.5,0,0,0-.09.66l-.33,3.34a12.23,12.23,0,0,0,.17,3.49,6.19,6.19,0,0,1-.42,5,9.48,9.48,0,0,1-3.58,3.5,5.44,5.44,0,0,1-6.16.16,10,10,0,0,1-4.33-4.49.36.36,0,0,0-.08-.25.33.33,0,0,1-.09-.25,9,9,0,0,0,.09-3.17,8.46,8.46,0,0,1,.08-3.16,6.39,6.39,0,0,0-.17-4.33,9.76,9.76,0,0,0-2.5-3.5,14.8,14.8,0,0,0-4.08-2.91,8.33,8.33,0,0,0-5.41-.42,13.81,13.81,0,0,0-5.91,2.92,7.16,7.16,0,0,0-2.41,5.74v5.83a13.53,13.53,0,0,0,1.33,5.83,49.48,49.48,0,0,1,2,6,1.34,1.34,0,0,1,.16.58c0,.17.17.25.5.25a2.14,2.14,0,0,1,1.42.75c.27.39.58.81.91,1.25a13.76,13.76,0,0,0,3.09,3.58q1.74,1.43,3.58,3.25c1.77,1.66,3.63,3.25,5.57,4.75a38.65,38.65,0,0,1,5.42,5.07c1.33,1.56,2.6,3.11,3.83,4.67a14.92,14.92,0,0,1,2.66,5.66,2.17,2.17,0,0,1,.25,1.08c-.06.17-.36.31-.92.42a1.06,1.06,0,0,0,1.17.58,1.14,1.14,0,0,1,1.16.42,2.41,2.41,0,0,1,.34,1,10.47,10.47,0,0,0,.66,2.74,21,21,0,0,1,.84,2.58c.22,1,.47,2,.75,2.92a10.49,10.49,0,0,1,.41,2.91,29,29,0,0,0,.17,3.17,28.26,28.26,0,0,0,.5,3v2.5a5.28,5.28,0,0,0-.67,1.75c-.11.61-.22,1.19-.33,1.75a35.24,35.24,0,0,1-1,4.66,10.24,10.24,0,0,1-2.33,4.16,5.58,5.58,0,0,1-.75.92,4.11,4.11,0,0,0-.75,1.08,11.06,11.06,0,0,1-3.75,4.5c-1.61,1.11-3.24,2.16-4.91,3.16a15.46,15.46,0,0,1-5.49,2,27.48,27.48,0,0,1-6,.33,37,37,0,0,1-4.33-.25,9.28,9.28,0,0,1-4.16-1.58,6.2,6.2,0,0,0-2.25-.91,7.89,7.89,0,0,1-2.41-.92,13,13,0,0,1-1.83-.92c-.67-.38-.78-1.13-.34-2.24a.44.44,0,0,0-.16-.59.47.47,0,0,0-.67.09c-.33.22-.61.25-.83.08a5.63,5.63,0,0,0-.67-.42,6.07,6.07,0,0,1-2.25-2c-.5-.77-1-1.6-1.58-2.49a26.39,26.39,0,0,1-1.5-3.17,31.72,31.72,0,0,1-1.16-3.49c-.23-.89-.42-1.78-.59-2.67a6.13,6.13,0,0,1,.09-2.66,10.59,10.59,0,0,0,.5-1.67,4.22,4.22,0,0,0,0-1.66,8.53,8.53,0,0,1-.17-2.92,25,25,0,0,0,.17-2.91,4.47,4.47,0,0,1,2-3.33,11.79,11.79,0,0,1,5.25-1.5,8.81,8.81,0,0,1,5.58,1.67,7.21,7.21,0,0,1,3.08,4.49c.27,1.67.47,3.39.58,5.16q0,.67-.33.84a2.29,2.29,0,0,0-.67.5,2.53,2.53,0,0,0-1,3.16,9.5,9.5,0,0,0,1.67,3.33,11.23,11.23,0,0,0,2.66,2.5,8.39,8.39,0,0,0,5.25,1.5,25.42,25.42,0,0,0,5.58-1,9.38,9.38,0,0,0,1.16-.67,1.79,1.79,0,0,1,1.33-.17c.45,0,.59-.27.42-.83a2,2,0,0,1,.08-1.5,21.89,21.89,0,0,0,2-5.24,15.11,15.11,0,0,0,.17-5.91q-.68-3.16-1.5-6.25a21.1,21.1,0,0,0-2.66-5.91,18.6,18.6,0,0,1-1.84-4.16l-.16-.67-.5.33c-.11.12-.45,0-1-.33a18.12,18.12,0,0,1-2.33-2.41,28.9,28.9,0,0,0-2.17-2.42,23.72,23.72,0,0,1-2.16-2.08,18.37,18.37,0,0,0-2.33-2.08c-2.11-1.77-4.2-3.55-6.25-5.33a22,22,0,0,1-5.08-6.49c0-.22-.22-.45-.66-.67a5.32,5.32,0,0,1-2.17-3.16,9.12,9.12,0,0,0-1-2.83,9.59,9.59,0,0,1-1.16-2.59,17.41,17.41,0,0,1-.5-2.74v.16a2.4,2.4,0,0,1-1.17-2,13,13,0,0,0-.41-3.25,7.12,7.12,0,0,1-.09-3.25,3.25,3.25,0,0,0-1-2.66V176c.45-.22.67-.72.67-1.5a6.1,6.1,0,0,1,.33-2.83,22.61,22.61,0,0,0,.83-2.66,14.12,14.12,0,0,1,1.25-2.75,9.19,9.19,0,0,0,1.09-2.92,4.92,4.92,0,0,1,1.66-2.49q2-1.67,3.75-3.42a19.41,19.41,0,0,1,4.08-3.08c.44-.22.89-.41,1.33-.58a2.5,2.5,0,0,1,1.67.08c.33,0,.63-.27.91-.83a1.47,1.47,0,0,1,1.42-.83c.77-.11,1.55-.19,2.33-.25s1.61-.09,2.5-.09h1.08A1,1,0,0,0,347.52,151.17ZM324,183.47a.44.44,0,0,0,.5.5c.23,0,.34-.16.34-.5s.11-.36,0-.41a.28.28,0,0,0-.34.08C324.43,183.14,324.27,183.25,324,183.47Zm1.67,54.46a.5.5,0,0,1,.17-.34h-.5v.17C325.38,237.87,325.49,237.93,325.71,237.93Zm.67-60.28c-.23,0-.34-.06-.34-.17a.68.68,0,0,0-.16.5.48.48,0,0,1,.33.17.36.36,0,0,1,.08-.25A.33.33,0,0,0,326.38,177.65Zm2.16,74.26v-.58c0-.17-.16-.25-.5-.25s-.5.33-.5,1,.22.83.67.83a.29.29,0,0,0,.33-.33Zm.5-59.28c.55,0,.83-.22.83-.66.22-.45.06-.67-.5-.67a1.53,1.53,0,0,0-1,.83C328.38,192.47,328.6,192.63,329,192.63Zm.33-18.15c-.55,0-.72.22-.5.67a1.46,1.46,0,0,0,.42,1.08l.75.75a1.29,1.29,0,0,0,.58-.33c.28-.22.36-.45.25-.67A2,2,0,0,0,329.37,174.48Zm-.33-11a.48.48,0,0,1,.33-.17c-.22-.1-.39-.1-.5,0A.15.15,0,0,1,329,163.49Zm.5,83.93.33-.34c.22-.22.17-.38-.16-.5s-.39-.16-.5.17A.68.68,0,0,0,329.54,247.42Zm.17-5.17v-.16c-.23-.22-.34-.17-.34.16v.17C329.59,242.42,329.71,242.37,329.71,242.25Zm0-63.11h.16L330,179l-.17-.17A.47.47,0,0,0,329.71,179.14Zm1.16,3.33c0,.12,0,.17-.08.17s-.08.06-.08.17c0,.33.11.39.33.16l.33-.33a.37.37,0,0,1-.25-.08A.33.33,0,0,0,330.87,182.47Zm.84,4c.22-.55.16-.83-.17-.83s-.45.3-.33.58a.67.67,0,0,1-.17.75c-.33.33-.33.5,0,.5s.64-.11.58-.33A.89.89,0,0,1,331.71,186.47Zm.33-17.32c-.23-.33-.39-.44-.5-.33s-.17.11-.17.33c0,.45.11.56.34.34C331.93,169.49,332,169.38,332,169.15Zm-.5,69.11h.17l-.17.17Zm.67-79.6-.34.33c0,.23.06.34.17.34.22.22.33.11.33-.34A.45.45,0,0,1,332.21,158.66Zm.33,38.13a.53.53,0,0,0-.33-.16.45.45,0,0,0-.17.33c0,.45.17.56.5.33Zm-.17-20.14v-.34l-.16.17Zm.67,77.76a.44.44,0,0,0,.5-.5,1,1,0,0,0-.67-.66c-.44,0-.61.22-.5.66S332.59,254.41,333,254.41ZM332.87,184a.36.36,0,0,1-.08.25.33.33,0,0,0-.09.25.67.67,0,0,1,.5.17v-.33Zm.5,65.94v-.16H333a.21.21,0,0,0,0,.33c.11,0,.16,0,.16-.08S333.26,249.91,333.37,249.91Zm.67-59.44c-.23.22-.34.39-.34.5s.06.33.17.33c.33.22.5.17.5-.17S334.37,190.69,334,190.47Zm1.16,51.62-.33.16v.17l.33-.17Zm.84-84.93c0-.44-.17-.66-.5-.66-.12,0-.28.11-.5.33,0,.56.22.83.66.83C335.92,157.66,336,157.5,336,157.16Zm.16,23c-.11,0-.16,0-.16.09s-.06.08-.17.08a.15.15,0,0,0,.17.17l.16-.17Zm3,17.49a1,1,0,0,0-.67-.67c-.44,0-.66.28-.66.83s.16.73.5.5C338.92,198.29,339.2,198.07,339.2,197.63Zm-1-40,.17.17.33-.17-.17-.33A.29.29,0,0,0,338.2,157.66Zm.67,103.91c.33,0,.5-.22.5-.67.22-.44,0-.66-.67-.66-.33,0-.5.22-.5.66A.59.59,0,0,0,338.87,261.57Zm2-6.33c.11,0,.17,0,.17.09s.05.08.17.08l.16-.17c0-.11,0-.16-.08-.16s-.08-.06-.08-.17Zm1-45.46a.44.44,0,0,0-.5-.5l-.16.17-.17.17c-.11.11,0,.28.33.5C341.47,210.12,341.64,210,341.86,209.78Zm.84,48.46-.17.17q.33.66.33,0v-.17Zm0-50.62v.17l.16-.17Zm.83-48c-.11,0-.17-.11-.17-.33l-.16.16a.47.47,0,0,0,.16.34Zm.16,42.8c-.33-.11-.49,0-.49.33s.1.5.33.5a.44.44,0,0,0,.5-.5C344.25,202.57,344.14,202.46,343.69,202.46Zm1.34,58a.59.59,0,0,0-.67-.67.44.44,0,0,0-.5.5c0,.44.17.66.5.66S345,260.74,345,260.41Zm.5-53.29c0-.11.05-.17.16-.17l-.33-.16c-.11,0-.17.05-.17.16A.52.52,0,0,1,345.53,207.12Zm2,50.79c0-.22,0-.34-.16-.34a.45.45,0,0,1-.33-.16c-.34,0-.62.28-.84.83a.26.26,0,0,0-.08.33q.08.18.42,0a2.16,2.16,0,0,0,.5-.33A1.72,1.72,0,0,1,347.52,257.91ZM350,161a1.58,1.58,0,0,1,.25-.75c.17-.27,0-.41-.58-.41s-.67.5-.67,1.16.22,1,.67,1,.61-.11.5-.33A1.48,1.48,0,0,1,350,161Zm1-6.66c-.22,0-.33.17-.33.5l.5.5c.22.23.33.11.33-.33S351.35,154.33,351,154.33Zm0,55.79a.54.54,0,0,0-.33.5c.22.22.39.27.5.16.44,0,.5-.16.16-.5C351.35,210,351.24,209.9,351,210.12Zm2.83,46.79q-.5.33-.33.66c0,.45.17.56.5.34s.33-.39.33-.5A.44.44,0,0,0,353.85,256.91Zm.5-100.25v-.5h-.16v.5Zm.17,70.44h-.17l.17.17Zm.83-16.82a.15.15,0,0,0-.17.17l.17.17c.22.22.33.16.33-.17A.48.48,0,0,0,355.35,210.28Zm.83,15.16a.44.44,0,0,0-.5-.5c-.11,0-.16.11-.16.33-.23.33-.11.5.33.5A.29.29,0,0,0,356.18,225.44Zm0,39.13c-.11-.11-.16-.19-.16-.25s-.06-.14-.17-.25c0,.11,0,.17-.08.17s-.09.05-.09.16a.47.47,0,0,0,.17.33c.11,0,.17,0,.17-.08S356.07,264.57,356.18,264.57Zm2.67-91.75c-.45,0-.67.11-.67.33a.29.29,0,0,0,.33.33c.11.11.28.06.5-.16S359.07,172.82,358.85,172.82Zm1.66,53.12a.78.78,0,0,0-.83-.67c-.44-.22-.67-.05-.67.5.23.44.5.67.84.67S360.29,226.27,360.51,225.94Zm.17,8.32c-.22-.33-.45-.5-.67-.5s-.33.17-.33.5.05.5.5.5S360.68,234.49,360.68,234.26Zm-.83,18.15.16.17v-.17Zm.16-34.8.17-.17H360Zm.5-49.79-.16-.17v.17Zm2.5,82.59a.7.7,0,0,0-.17-.5c-.22-.22-.33-.16-.33.17s.06.33.17.33H363Zm2.5-76.76c-.45,0-.67.16-.67.5s.17.66.5.66.67-.16.67-.5S365.84,173.87,365.51,173.65Zm1,71.27v-.17l-.17-.16a.94.94,0,0,0-.66.16c-.23.34-.12.5.33.5S366.51,245.14,366.51,244.92Zm-.67-75.27h-.16v.17h.16Zm4,14.16c0-.11.05-.17.16-.17a.15.15,0,0,0,.17-.17v-.16l-.17-.17c-.33-.33-.5-.22-.5.33Z"/></g></g></svg>