<svg xmlns="http://www.w3.org/2000/svg" viewBox="0 0 243.13 310.18"><g id="Layer_2" data-name="Layer 2"><g id="Layer_1-2" data-name="Layer 1"><path d="M52.59,246.74l-3.94-.53q-6.7-.74-16.93-.9t-24.16.16L6.39,210q20.85-2.65,37.15-1,6.08,14.91,1.07,27.87l-26-2,.22-15.41,11.5-.53,0,0,2.4,0c.77,0,1.54.06,2.31.15s1.45.2,2.18.34c.89.18,1.78.39,2.68.58a13.38,13.38,0,0,0-3.1-7.1q-10.21-1.92-26.18.22l.85,27.64q23.84,3,39.6,2.55L52.49,236q2.11-14.61-1.92-32.63L0,203.8V288H9L7.77,251.85l1-.22Q23,248.77,45.35,252.7l1.39,3.82A36.69,36.69,0,0,1,46.42,281l-27-2.13.21-16.61,11.53-.62s0-.09.07-.09c1,.1,2,.14,3,.18s1.78.06,2.67.13,1.74.21,2.59.37c.68.13,1.36.27,2,.43a14.59,14.59,0,0,0-3.17-7.42q-10.55-2-27.24.21l.85,29.81q12.43,1.59,22.72,2.29t18.58.48a66.82,66.82,0,0,0,1.33-6.77q.48-3.34.7-6.44Q56.1,263,52.59,246.74Z"/><path d="M112.85,255.31l-11.07-52.25h-26L58.43,288h7.88l13.32-75.68,18.74.32,7,39.85-24.28.22,5.11-26.41,6.17.21,1.49,14.91h-.08c0,.62.07,1.25.13,1.86.19,2,.49,4,.65,6.08l7.19-.27L94.32,218l-11.5.11-8.63,40.24,32.16.11,4,29.55h10.22Z"/><path d="M150.54,204.3l.43,8.4h8.42l2.24,69.66-30.7,1.07-.22-25.35,22-.21-.22,16.59-12.71.43h0c-.5,0-1,.05-1.5,0-.87,0-1.75-.06-2.63-.08h-1.24l.23,4.5,24.06-.21L158,252.77l-31.78-.43-.21,37,42-.64v-76h9.16l.43-8.4Z"/><path d="M235.46,256.55,224.39,204.3h-26l-17.35,84.92h7.88l13.31-75.67,18.74.31,7,39.86-24.28.22,5.11-26.41,6.17.21,1.5,14.91h0c.12.43.12.87.22,1.31a49,49,0,0,1,1,6.61l6.69-.25-7.46-31.1-11.5.1-8.62,40.25,32.16.11,3.94,29.54h10.22Z"/><path d="M80.08,307v.68a2.45,2.45,0,0,1-.19,1,2.54,2.54,0,0,1-.53.8,2.5,2.5,0,0,1-.79.57,2.44,2.44,0,0,1-1,.2,3.61,3.61,0,0,1-.91-.12,2.06,2.06,0,0,1-.83-.43,2.32,2.32,0,0,1-.61-.79A2.83,2.83,0,0,1,75,307.6v-6a2.73,2.73,0,0,1,.18-1,2.31,2.31,0,0,1,.52-.8,2.47,2.47,0,0,1,.81-.53,2.66,2.66,0,0,1,1-.19,2.38,2.38,0,0,1,1.8.72,2.5,2.5,0,0,1,.53.84,2.76,2.76,0,0,1,.19,1.05v.62H78.52v-.53a1.32,1.32,0,0,0-.26-.8.86.86,0,0,0-.71-.33.8.8,0,0,0-.78.36,2,2,0,0,0-.19.91v5.6a1.42,1.42,0,0,0,.21.8.81.81,0,0,0,.74.32,1,1,0,0,0,.33-.05.77.77,0,0,0,.33-.18.81.81,0,0,0,.23-.33,1.27,1.27,0,0,0,.1-.54V307Z"/><path d="M90.88,310.09V299.14h1.56v4.69h1.94v-4.69h1.56v10.95H94.38v-4.88H92.44v4.88Z"/><path d="M107,310.09V299.14h1.57v10.95Z"/><path d="M119.59,310.09V299.14h2.35a3.24,3.24,0,0,1,1.13.17,2.07,2.07,0,0,1,.89.6,2.24,2.24,0,0,1,.56,1,6.4,6.4,0,0,1,.15,1.56,8.59,8.59,0,0,1-.08,1.24,2.8,2.8,0,0,1-.36,1,2.36,2.36,0,0,1-.86.83,2.91,2.91,0,0,1-1.42.3h-.8v4.28Zm1.56-9.47v3.72h.76a1.6,1.6,0,0,0,.73-.14.85.85,0,0,0,.39-.38,1.41,1.41,0,0,0,.14-.57c0-.23,0-.48,0-.76s0-.5,0-.73a1.48,1.48,0,0,0-.14-.61.89.89,0,0,0-.37-.4,1.45,1.45,0,0,0-.7-.13Z"/><path d="M152.71,307v.68a2.65,2.65,0,0,1-.19,1,2.72,2.72,0,0,1-.53.8,2.61,2.61,0,0,1-.79.57,2.49,2.49,0,0,1-1,.2,3.61,3.61,0,0,1-.91-.12,2,2,0,0,1-.82-.43,2.32,2.32,0,0,1-.61-.79,2.83,2.83,0,0,1-.24-1.24v-6a2.54,2.54,0,0,1,.19-1,2.17,2.17,0,0,1,.52-.8,2.33,2.33,0,0,1,.8-.53,2.71,2.71,0,0,1,1-.19,2.38,2.38,0,0,1,1.8.72,2.67,2.67,0,0,1,.53.84,3,3,0,0,1,.19,1.05v.62h-1.57v-.53a1.32,1.32,0,0,0-.26-.8.85.85,0,0,0-.71-.33.8.8,0,0,0-.77.36,1.89,1.89,0,0,0-.19.91v5.6a1.51,1.51,0,0,0,.2.8.81.81,0,0,0,.75.32,1,1,0,0,0,.33-.05.77.77,0,0,0,.33-.18.92.92,0,0,0,.23-.33,1.45,1.45,0,0,0,.09-.54V307Z"/><path d="M163.41,301.72a2.87,2.87,0,0,1,.23-1.17,2.49,2.49,0,0,1,.61-.84,2.54,2.54,0,0,1,.84-.49,2.71,2.71,0,0,1,1.89,0,2.58,2.58,0,0,1,.85.49,2.47,2.47,0,0,1,.6.84,2.87,2.87,0,0,1,.23,1.17v5.79a2.82,2.82,0,0,1-.23,1.18,2.39,2.39,0,0,1-.6.82,2.73,2.73,0,0,1-2.74.5,2.57,2.57,0,0,1-.84-.5,2.41,2.41,0,0,1-.61-.82,2.82,2.82,0,0,1-.23-1.18Zm1.57,5.79a1,1,0,0,0,.31.84,1.2,1.2,0,0,0,1.49,0,1,1,0,0,0,.31-.84v-5.79a1,1,0,0,0-.31-.84,1.2,1.2,0,0,0-1.49,0,1,1,0,0,0-.31.84Z"/><path d="M170.87,310.09v-1.57h1.57v1.57Z"/><path d="M85,91c-2.6,1.55-5.6,3.27-8.52,5.13-2.06,1.3-4,2.84-6,4.18a9.4,9.4,0,0,1-9.88.64,10.59,10.59,0,0,1-2.44-1.86c-1-.89-1.8-1.88-2.69-2.83a8.63,8.63,0,0,1-2.12,1.57,6.59,6.59,0,0,1-2.51,0A51.81,51.81,0,0,0,34.36,99c-3.26.8-6.41,2.09-9.61,3.16l-1.82.58c-1-1.28-.34-2.44,0-3.58a71.67,71.67,0,0,1,13-26q6.88-8.55,14.25-16.7c1.66-1.83.82-3.65,1.25-5.83-2.35.33-4.37.57-6.37.91a48.34,48.34,0,0,0-12.86,4c-2.15,1-2.43,1.71-1.87,4,.13.55.35,1.08.48,1.62C32.2,67,27.1,71.89,21.14,70.43a9.12,9.12,0,0,1-6.58-5.57,7.69,7.69,0,0,1,.28-7.29A24.73,24.73,0,0,1,27.66,46.23c7.73-3,15.58-5.57,24.05-5.17a2.81,2.81,0,0,0,2.89-1.81,9.06,9.06,0,0,0-1.8-1.86c-3.65-2.12-7.33-4.18-11.06-6.15A13.4,13.4,0,0,0,38,30c-2.35-.47-3.75.4-4.59,2.65a6.7,6.7,0,0,0-.32,1.08c-.64,3.81-3,5.81-6.64,6.76-4.14,1.08-9.47-1.74-10.89-5.9a9.05,9.05,0,0,1,5.22-10.88,31.65,31.65,0,0,1,24.14.64,49.21,49.21,0,0,1,15.92,10.3l3.82-1.39c.75-7.21-1.16-13.25-7-17.73a7,7,0,0,0-5.27-1.73c-.72,1.47-1.14,3.12-2.15,4.23-2.58,2.82-6,3.41-9.57,2.48a4.56,4.56,0,0,1-3.37-4.42c-.34-4.53,1.06-8.33,5-10.91A13.69,13.69,0,0,1,56,4c3.6,1.56,7.28,3,10.13,6.16,0-.51,0-1,.07-1.52.19-3.36,3.07-7.24,6.4-8.2A8.09,8.09,0,0,1,81.45,3c4.36,4.86,5.82,10.65,5.47,17A84,84,0,0,1,84,38.86a8.28,8.28,0,0,0,.49,5.72,83.38,83.38,0,0,1,2.73,8.55,11.27,11.27,0,0,1,.29,3.07,4.93,4.93,0,0,1-2.3,4.56c-2,1.19-4,2.35-6.34,3.72a15.19,15.19,0,0,0,4.55,6.86A138.71,138.71,0,0,0,100,83.91c7.19,4.42,14.21,9.15,21.27,13.78a24.64,24.64,0,0,1,3.3,2.64c1.54,1.43,1.88,2.49.76,4.22-1.62,2.5-3.57,4.8-5.42,7.14a15.89,15.89,0,0,1-1.65,1.52c-1.65,1.59-3.11,1.93-5,.64-3-2-5.88-4.06-8.62-6.32C98.06,102.08,91.59,96.51,85,91ZM70.33,66.56c-3.93,0-6.6,1.46-8.09,4.86A20.59,20.59,0,0,1,61,73.62c-2.33,3.89-1.45,6.63,2.9,9.58a3.07,3.07,0,0,0,3.64.07C69.71,82,72,80.82,74.16,79.6c.71-.4,1.4-.83,2.13-1.26-1.17-2.08-2.28-3.92-3.24-5.84S71.2,68.47,70.33,66.56Zm-2.57-54.2a4.22,4.22,0,0,0,.07,1,35.15,35.15,0,0,1,3.65,15.17A28.28,28.28,0,0,0,72,32.34l6.53,3.23c2.9-6.59,2-17.52-1.78-22C73.75,14.47,70.72,14.76,67.76,12.36Zm9.1,34.33a2.18,2.18,0,0,0-2.13-1.84,2,2,0,1,0,.44,4A1.91,1.91,0,0,0,76.86,46.69Z"/><path d="M43.71,156.88c-2.54-1.45-5-2.47-7-4.09a36.23,36.23,0,0,1-5.2-5.83,4.23,4.23,0,0,1-.23-4.79c4.47-8.75,9.46-17.09,17.32-23.33a46.61,46.61,0,0,0,3.73-3.44,7.68,7.68,0,0,1,5.49-2.49c2.43,0,4.88-.11,7.29.11,3.36.31,6.72.76,10,1.39a21.81,21.81,0,0,1,5.28,1.85c3.23,1.57,4.66,4.53,5.39,7.84.66,3,1.13,6.08,1.69,9.12.08.44.22.86.42,1.61,1-.68,1.84-1.24,2.68-1.78,2.94-1.88,5.92-2,8.15-.22a8.45,8.45,0,0,1,2.47,8.95,13.56,13.56,0,0,1-4.27,5.5,28.14,28.14,0,0,1-9.89,5.23c-3.11,1-5.84-.45-7.79-2.7-2.69-3.08-4.7-6.57-3.81-11a12.67,12.67,0,0,0,0-3.37c-.24-3.74-2.27-5.71-6.07-5.87a17.53,17.53,0,0,0-9.66,2.6c-3.92,2.26-7,5.25-8.45,9.76-.7,2.13-.61,3.78.89,5.4a33.3,33.3,0,0,1,2.52,3,43.41,43.41,0,0,1,2.67,4,5.59,5.59,0,0,1,.38,5.41,44.9,44.9,0,0,1-3.82,7.15c-3,4.1-6.29,8-9.42,11.94-1,1.24-1.84,2.56-2.94,4.11A22.52,22.52,0,0,0,44.41,185c2.47,1.27,3.5,2.45,3,5.09a5.74,5.74,0,0,1-5.09,4.23,8.51,8.51,0,0,1-4.56-1,48.83,48.83,0,0,0-8.8-4.32,33.46,33.46,0,0,1-4.29-2.11,4.22,4.22,0,0,1-2-5.32,10.19,10.19,0,0,1,3.15-4.91l6.38-5.54C36.84,167,40,161.73,43.71,156.88Z"/><path d="M32.31,114.61a39.46,39.46,0,0,0,4.88,2.13c1.84.52,2.79-.24,3.19-2.14.37-1.72.43-3.53,1.66-5,1.08.47,2.06,1,3.11,1.34,3.09,1,4.26.28,5-2.9a4.79,4.79,0,0,1,.38-.87l4.8,1.31a11.34,11.34,0,0,1-1.19,1.32,143.41,143.41,0,0,0-15.21,14.15c-3.69,4-5.89,8.9-8.72,13.42-.64,1-1.29,2-2.19,3.42-3.47-5.78-4.41-12-6.32-18a5.33,5.33,0,0,1,4.62.11c.25.13.51.25.77.36,3.37,1.51,4.23,1,4.18-2.69A13.08,13.08,0,0,1,32.31,114.61Z"/><path d="M54.74,104.48c-1.56.45-2.38-.26-3.28-1-2.14-1.72-3.5-1.19-4.09,1.52-.2.9-.42,1.79-.74,3.11a28.52,28.52,0,0,1-2.74-1.55c-2.7-1.94-3.3-1.83-4.74,1.29-.82,1.76-1.45,3.61-2.26,5.66-1.14-.92-2.2-1.82-3.31-2.65-1.87-1.42-3.42-1-4.1,1.22-.73,2.41-1.19,4.89-1.79,7.42l-6.41-.69a30.9,30.9,0,0,1,0-9.79,4.89,4.89,0,0,1,3.23-3.62c8.66-3.37,17.54-5.36,26.92-4.48C53.68,101.15,54.17,102.61,54.74,104.48Z"/><path d="M182.33,53.22c.63,3.6,2.85,5.53,6.12,6.35,1.82.46,3.7.65,5.52,1.09A16,16,0,0,1,198,62c6,3.25,11.5,7.16,15.56,12.73a40,40,0,0,1,7.07,14.6c1.1,4.75,2.32,9.48,3.27,14.26,1.12,5.62.34,11.23-.84,16.75-.63,3-3.33,4.16-6.11,2.65-4.78-2.59-9.48-5.33-14.14-8.14-3.06-1.83-6-3.87-9-5.84s-3.42-3.18-2.28-6.4a20.44,20.44,0,0,0,.52-11.64,7.44,7.44,0,0,0-.29-1.08c-.06-.16-.24-.27-.55-.59-.27.64-.51,1.19-.73,1.74-1.54,3.83-2.95,7.72-4.67,11.46-1.57,3.43-6,5.23-10.13,4.34-1.63-.36-3.2-1-4.93-1.49l-6.06,13.83a6.34,6.34,0,0,1-4.12-.37c-2.73-1-5.46-2-8.15-3.11s-3.14-2.12-2.25-4.85a36.7,36.7,0,0,1,2.44-6c3.14-5.87,6.43-11.67,9.64-17.5.89-1.61,1.72-3.24,2.69-5.07-8.21-1.72-9.54-8.41-11.6-14.4-5.81-1.45-10.76-4-14-9.19-1.35-2.13-2.81-4.21-4.14-6.36a10.47,10.47,0,0,1-1.31-6.25,6,6,0,0,1,8.85-4.89,9.17,9.17,0,0,1,3.5,3.52A56.26,56.26,0,0,1,149,52.3a17.79,17.79,0,0,0,1.81,4.47,5.65,5.65,0,0,0,.12-1.35c-.4-2.79-.73-5.59-1.28-8.35a50.75,50.75,0,0,1-.81-11.48c.16-6.58,3-11.94,7.2-16.7,2.32-2.61,4.05-3,6.71-1.85a6.43,6.43,0,0,1,3.82,6.35,21.75,21.75,0,0,1-1.35,5.42c-2.07,5.75-4.18,11.48-5,17.58-.15,1.14-.11,2.3-.16,3.46l.77.17c.5-1.14,1.06-2.26,1.49-3.43,2-5.28,4-10.57,7-15.36,2.55-4.05,5.26-8,8.09-11.85a16.78,16.78,0,0,1,7.18-5.31,8.16,8.16,0,0,1,9.52,2.81,4.54,4.54,0,0,1,.31,4.57c-1,2.33-2.52,4.42-4.93,5.16-7.68,2.39-11.09,8.85-14.84,15a27.25,27.25,0,0,0-1.83,3.81c-.44,1.09-.72,2.26-1.23,3.92a8.22,8.22,0,0,0,2-.67c2.93-2.34,5.85-4.69,8.71-7.11,2.36-2,4.56-4.2,7-6.15,4.33-3.51,9.47-4.92,14.92-5.14a10.69,10.69,0,0,1,4.6,1,5,5,0,0,1,2.61,6.63A9.07,9.07,0,0,1,207.25,43a32.51,32.51,0,0,1-5.69,2.36c-3.05.94-6.17,1.65-9.26,2.45A23.08,23.08,0,0,0,182.33,53.22Zm-9.57,42.44a4.31,4.31,0,0,0,5-1.72,31.52,31.52,0,0,0,2.3-3.54,47.67,47.67,0,0,0,5.84-15.77,2.76,2.76,0,0,0-.55-2,3.47,3.47,0,0,0-5.6.2,19.69,19.69,0,0,0-2.6,5.55c-1.51,5.13-2.79,10.33-4.15,15.51A17.85,17.85,0,0,0,172.76,95.66Zm-11.68-25.2a2.46,2.46,0,0,0,3.16-1.53,2.81,2.81,0,0,0-1.6-3.67,2.65,2.65,0,0,0-3.21,1.52A2.93,2.93,0,0,0,161.08,70.46Z"/><path d="M184.79,149.49a10.64,10.64,0,0,0-2.51,1.06c-5.81,4.4-12.59,7.1-18.75,10.89-.72.44-1.42.91-2.18,1.29a4.86,4.86,0,0,0-3,5.45,16.45,16.45,0,0,1-1.8,9.29,9.54,9.54,0,0,1-2.54,3.28,13.69,13.69,0,0,1-16.92-.85,3.87,3.87,0,0,1-.66-5.54,7.06,7.06,0,0,1,5.14-3.11c5.45-.63,5.6-2.63,5.07-6.74-1-7.89.19-10.14,7.57-13.21,4.24-1.77,8.56-3.38,12.91-4.86a5,5,0,0,0,3.69-4.31,44.87,44.87,0,0,1,3.23-9.56c1.36-3,4.82-3.7,7.48-1.78l26,18.79a21.85,21.85,0,0,1,2,1.56c1.61,1.5,1.73,2.23.78,4.19-.37.76-.71,1.53-1.12,2.27a7.3,7.3,0,0,1-8.36,3.68,25.24,25.24,0,0,1-5-1.77,3.92,3.92,0,0,0-3.48-.14,18.05,18.05,0,0,0-7.86,6.2,8.47,8.47,0,0,0-.76,8.83c.6,1.28,1.26,2.53,1.82,3.82,2,4.52,1.06,9.4-2.77,12.49a31.54,31.54,0,0,1-7.51,4.34c-3.12,1.31-6.25-.29-7.66-3.4a5.94,5.94,0,0,1,2.53-8l.74-.41c2.9-1.53,2.89-1.53,1.64-4.41-.64-1.47-1.18-3-1.86-4.42a9.19,9.19,0,0,1,1.82-10.93c2.5-2.64,5.34-5,8-7.43,1.31-1.2,2.69-2.34,3.89-3.65a9.07,9.07,0,0,0,1.13-2.34Z"/><path d="M206,130.76c.37,2,.59,3.8,1,5.51.79,3.18,1.35,3.37,4.26,2,1.66-.76,3.4-1.34,5.23-2,.09,3.62-1.94,8.85-4.14,10.88a37.2,37.2,0,0,1-8.45-4.73c-6.58-4.64-13.07-9.42-19.57-14.17-1.78-1.3-2.53-3.45-2.56-7l6.7-3.07c.34,2.39.63,4.47.93,6.55a16.58,16.58,0,0,0,.37,2.22c.46,1.53,1.42,1.92,2.77,1s2.87-2,4.64-3.29c.14,2.12.25,3.83.36,5.55a9.19,9.19,0,0,0,.1,1.39c.35,1.56,1.31,2.07,2.66,1.21A11.27,11.27,0,0,1,206,130.76Z"/><path d="M151.37,133.12c-2.1-.79-4.34-1.51-6.46-2.47-2.66-1.21-3.4-2.9-2.67-5.69a31.37,31.37,0,0,1,1.37-4.28c.92-2.18,2.33-2.59,4.49-1.71,1.9.77,3.88,1.34,5.83,2,2.75.92,5.53,1.76,8.24,2.77,2.25.83,3,2.25,2.65,4.63-.69,5-4.89,7.57-9.6,5.95C154,133.88,152.72,133.53,151.37,133.12Z"/><path d="M192,124.82c-.27-2.68-.48-4.82-.7-6.95-.25-2.35-.83-2.8-3.11-2.14-1.76.51-3.46,1.27-5.56,2a54.36,54.36,0,0,1,1.23-5.42c.63-1.87,2.72-2.32,4.71-1.11,1.76,1.07,3.47,2.22,5.21,3.33,3.63,2.31,7.21,4.72,10.93,6.9,2.5,1.47,5.19,2.6,7.79,3.91a28.5,28.5,0,0,1,3.67,2,6.48,6.48,0,0,1,2,2.23c1,2.11.26,3.46-2,4.13-2.06.6-4.08,1.32-6.26,2-1.16-1.46-1.08-3.2-1-5,.13-2.93-.31-3.3-3.21-2.76-.92.17-1.83.37-2.74.61s-1.6.51-2.79.89a32.31,32.31,0,0,1-.18-3.85c.24-3.53-1.13-4.61-4.63-2.9C194.41,123.34,193.49,124,192,124.82Z"/></g></g></svg>